<svg width="576" height="85" viewBox="0 0 576 85" fill="none" xmlns="http://www.w3.org/2000/svg">
<g clip-path="url(#clip0_276_1091)">
<path d="M219.62 66.0836C219.433 65.76 219.182 65.477 218.883 65.2515C218.584 65.026 218.242 64.8625 217.877 64.7708C215.402 64.1732 212.828 64.0915 210.32 64.531C211.392 59.9086 210.703 56.2687 210.009 54.15C209.794 53.4881 209.339 52.929 208.732 52.5813C208.124 52.2337 207.409 52.1221 206.723 52.2684C204.284 52.8082 201.978 53.8237 199.938 55.2559C198.498 51.8241 196.176 48.8274 193.202 46.5655C192.711 46.1985 192.113 46 191.499 46C190.885 46 190.287 46.1986 189.796 46.5657C186.823 48.8275 184.5 51.8242 183.06 55.2559C181.02 53.8237 178.714 52.8082 176.275 52.2684C175.59 52.1221 174.874 52.2337 174.266 52.5814C173.659 52.9291 173.204 53.4882 172.989 54.1502C172.295 56.2687 171.606 59.9087 172.678 64.531C170.17 64.0916 167.596 64.1733 165.121 64.7708C164.757 64.8637 164.415 65.0277 164.116 65.2531C163.817 65.4785 163.566 65.7608 163.379 66.0835C163.191 66.4062 163.07 66.7628 163.022 67.1325C162.975 67.5022 163.003 67.8774 163.103 68.2364C163.901 71.0644 166.351 76.446 173.804 80.7138C181.286 84.9984 187.926 84.9998 191.495 84.9998L191.498 85L191.499 84.9999L191.5 85L191.503 84.9998C195.072 84.9998 201.712 84.9984 209.194 80.7138C216.647 76.446 219.097 71.0644 219.895 68.2364C219.997 67.8776 220.025 67.5021 219.978 67.1323C219.931 66.7624 219.809 66.4058 219.62 66.0836ZM207.116 54.1022C207.345 54.0538 207.583 54.0912 207.785 54.207C207.988 54.3228 208.139 54.5089 208.211 54.7293C208.899 56.8278 209.575 60.5854 208.134 65.4016C208.115 65.4508 208.1 65.5016 208.089 65.5534C207.511 67.4038 206.721 69.1825 205.735 70.8548C203.703 74.2843 201.007 77.2808 197.801 79.6713C197.604 79.8194 197.408 79.9616 197.212 80.1007C199.599 76.9836 201.896 72.1971 201.896 65.3127C201.917 62.5158 201.489 59.7334 200.626 57.0706C202.554 55.6381 204.766 54.6265 207.116 54.1022ZM190.927 48.0683C191.092 47.9449 191.293 47.8781 191.499 47.8781C191.705 47.8781 191.906 47.9447 192.071 48.0681C194.457 49.8343 200.005 55.0504 200.005 65.3127C200.005 70.7165 198.502 75.3721 195.538 79.1501C194.4 80.6205 193.037 81.9052 191.499 82.9575C189.961 81.9052 188.598 80.6205 187.46 79.1501C184.496 75.3721 182.993 70.7165 182.993 65.3127C182.993 55.0504 188.541 49.8343 190.927 48.0683ZM174.787 54.7295C174.859 54.509 175.01 54.3229 175.213 54.207C175.415 54.0911 175.653 54.0538 175.882 54.1022C178.232 54.6265 180.444 55.6381 182.372 57.0706C181.509 59.7334 181.081 62.5158 181.103 65.3127C181.103 72.1971 183.399 76.9836 185.786 80.1007C185.591 79.9616 185.394 79.8194 185.197 79.6713C181.991 77.2808 179.295 74.2843 177.263 70.8548C176.273 69.1759 175.481 67.3899 174.902 65.5317C174.893 65.4882 174.88 65.4454 174.865 65.4036C173.423 60.5865 174.099 56.8282 174.787 54.7295ZM164.924 67.7315C164.891 67.613 164.882 67.4891 164.898 67.3672C164.914 67.2452 164.954 67.1276 165.016 67.0211C165.078 66.9146 165.16 66.8214 165.259 66.7469C165.358 66.6724 165.47 66.6181 165.59 66.5871C167.232 66.1697 169.865 65.8405 173.243 66.5438C173.85 68.371 174.649 70.1301 175.626 71.7922C178.669 77.0204 183.106 80.7803 186.694 82.9353C182.479 82.523 178.405 81.2113 174.749 79.0902C167.877 75.1549 165.644 70.2844 164.924 67.7315ZM218.074 67.7315C217.354 70.2844 215.121 75.1549 208.249 79.0902C204.594 81.2113 200.519 82.523 196.304 82.9353C199.892 80.7803 204.329 77.0205 207.372 71.7922C208.349 70.1301 209.148 68.3711 209.755 66.5439C213.133 65.8405 215.766 66.1697 217.408 66.5871C217.528 66.6181 217.64 66.6724 217.739 66.7469C217.838 66.8214 217.92 66.9146 217.982 67.0211C218.044 67.1276 218.084 67.2452 218.1 67.3672C218.116 67.4891 218.107 67.613 218.074 67.7315Z" fill="#C0C0C0"/>
<path d="M387.62 66.0836C387.433 65.76 387.182 65.477 386.883 65.2515C386.584 65.026 386.242 64.8625 385.877 64.7708C383.402 64.1732 380.828 64.0915 378.32 64.531C379.392 59.9086 378.703 56.2687 378.009 54.15C377.794 53.4881 377.339 52.929 376.732 52.5813C376.124 52.2337 375.409 52.1221 374.723 52.2684C372.284 52.8082 369.978 53.8237 367.938 55.2559C366.498 51.8241 364.176 48.8274 361.202 46.5655C360.711 46.1985 360.113 46 359.499 46C358.885 46 358.287 46.1986 357.796 46.5657C354.823 48.8275 352.5 51.8242 351.06 55.2559C349.02 53.8237 346.714 52.8082 344.275 52.2684C343.59 52.1221 342.874 52.2337 342.266 52.5814C341.659 52.9291 341.204 53.4882 340.989 54.1502C340.295 56.2687 339.606 59.9087 340.678 64.531C338.17 64.0916 335.596 64.1733 333.121 64.7708C332.757 64.8637 332.415 65.0277 332.116 65.2531C331.817 65.4785 331.566 65.7608 331.379 66.0835C331.191 66.4062 331.07 66.7628 331.022 67.1325C330.975 67.5022 331.003 67.8774 331.103 68.2364C331.901 71.0644 334.351 76.446 341.804 80.7138C349.286 84.9984 355.926 84.9998 359.495 84.9998L359.498 85L359.499 84.9999L359.5 85L359.503 84.9998C363.072 84.9998 369.712 84.9984 377.194 80.7138C384.647 76.446 387.097 71.0644 387.895 68.2364C387.997 67.8776 388.025 67.5021 387.978 67.1323C387.931 66.7624 387.809 66.4058 387.62 66.0836ZM375.116 54.1022C375.345 54.0538 375.583 54.0912 375.785 54.207C375.988 54.3228 376.139 54.5089 376.211 54.7293C376.899 56.8278 377.575 60.5854 376.134 65.4016C376.115 65.4508 376.1 65.5016 376.089 65.5534C375.511 67.4038 374.721 69.1825 373.735 70.8548C371.703 74.2843 369.007 77.2808 365.801 79.6713C365.604 79.8194 365.408 79.9616 365.212 80.1007C367.599 76.9836 369.896 72.1971 369.896 65.3127C369.917 62.5158 369.489 59.7334 368.626 57.0706C370.554 55.6381 372.766 54.6265 375.116 54.1022ZM358.927 48.0683C359.092 47.9449 359.293 47.8781 359.499 47.8781C359.705 47.8781 359.906 47.9447 360.071 48.0681C362.457 49.8343 368.005 55.0504 368.005 65.3127C368.005 70.7165 366.502 75.3721 363.538 79.1501C362.4 80.6205 361.037 81.9052 359.499 82.9575C357.961 81.9052 356.598 80.6205 355.46 79.1501C352.496 75.3721 350.993 70.7165 350.993 65.3127C350.993 55.0504 356.541 49.8343 358.927 48.0683ZM342.787 54.7295C342.859 54.509 343.01 54.3229 343.213 54.207C343.415 54.0911 343.653 54.0538 343.882 54.1022C346.232 54.6265 348.444 55.6381 350.372 57.0706C349.509 59.7334 349.081 62.5158 349.103 65.3127C349.103 72.1971 351.399 76.9836 353.786 80.1007C353.591 79.9616 353.394 79.8194 353.197 79.6713C349.991 77.2808 347.295 74.2843 345.263 70.8548C344.273 69.1759 343.481 67.3899 342.902 65.5317C342.893 65.4882 342.88 65.4454 342.865 65.4036C341.423 60.5865 342.099 56.8282 342.787 54.7295ZM332.924 67.7315C332.891 67.613 332.882 67.4891 332.898 67.3672C332.914 67.2452 332.954 67.1276 333.016 67.0211C333.078 66.9146 333.16 66.8214 333.259 66.7469C333.358 66.6724 333.47 66.6181 333.59 66.5871C335.232 66.1697 337.865 65.8405 341.243 66.5438C341.85 68.371 342.649 70.1301 343.626 71.7922C346.669 77.0204 351.106 80.7803 354.694 82.9353C350.479 82.523 346.405 81.2113 342.749 79.0902C335.877 75.1549 333.644 70.2844 332.924 67.7315ZM386.074 67.7315C385.354 70.2844 383.121 75.1549 376.249 79.0902C372.594 81.2113 368.519 82.523 364.304 82.9353C367.892 80.7803 372.329 77.0205 375.372 71.7922C376.349 70.1301 377.148 68.3711 377.755 66.5439C381.133 65.8405 383.766 66.1697 385.408 66.5871C385.528 66.6181 385.64 66.6724 385.739 66.7469C385.838 66.8214 385.92 66.9146 385.982 67.0211C386.044 67.1276 386.084 67.2452 386.1 67.3672C386.116 67.4891 386.107 67.613 386.074 67.7315Z" fill="#C0C0C0"/>
<path d="M563.62 66.0836C563.433 65.76 563.182 65.477 562.883 65.2515C562.584 65.026 562.242 64.8625 561.877 64.7708C559.402 64.1732 556.828 64.0915 554.32 64.531C555.392 59.9086 554.703 56.2687 554.009 54.15C553.794 53.4881 553.339 52.929 552.732 52.5813C552.124 52.2337 551.409 52.1221 550.723 52.2684C548.284 52.8082 545.978 53.8237 543.938 55.2559C542.498 51.8241 540.176 48.8274 537.202 46.5655C536.711 46.1985 536.113 46 535.499 46C534.885 46 534.287 46.1986 533.796 46.5657C530.823 48.8275 528.5 51.8242 527.06 55.2559C525.02 53.8237 522.714 52.8082 520.275 52.2684C519.59 52.1221 518.874 52.2337 518.266 52.5814C517.659 52.9291 517.204 53.4882 516.989 54.1502C516.295 56.2687 515.606 59.9087 516.678 64.531C514.17 64.0916 511.596 64.1733 509.121 64.7708C508.757 64.8637 508.415 65.0277 508.116 65.2531C507.817 65.4785 507.566 65.7608 507.379 66.0835C507.191 66.4062 507.07 66.7628 507.022 67.1325C506.975 67.5022 507.003 67.8774 507.103 68.2364C507.901 71.0644 510.351 76.446 517.804 80.7138C525.286 84.9984 531.926 84.9998 535.495 84.9998L535.498 85L535.499 84.9999L535.5 85L535.503 84.9998C539.072 84.9998 545.712 84.9984 553.194 80.7138C560.647 76.446 563.097 71.0644 563.895 68.2364C563.997 67.8776 564.025 67.5021 563.978 67.1323C563.931 66.7624 563.809 66.4058 563.62 66.0836ZM551.116 54.1022C551.345 54.0538 551.583 54.0912 551.785 54.207C551.988 54.3228 552.139 54.5089 552.211 54.7293C552.899 56.8278 553.575 60.5854 552.134 65.4016C552.115 65.4508 552.1 65.5016 552.089 65.5534C551.511 67.4038 550.721 69.1825 549.735 70.8548C547.703 74.2843 545.007 77.2808 541.801 79.6713C541.604 79.8194 541.408 79.9616 541.212 80.1007C543.599 76.9836 545.896 72.1971 545.896 65.3127C545.917 62.5158 545.489 59.7334 544.626 57.0706C546.554 55.6381 548.766 54.6265 551.116 54.1022ZM534.927 48.0683C535.092 47.9449 535.293 47.8781 535.499 47.8781C535.705 47.8781 535.906 47.9447 536.071 48.0681C538.457 49.8343 544.005 55.0504 544.005 65.3127C544.005 70.7165 542.502 75.3721 539.538 79.1501C538.4 80.6205 537.037 81.9052 535.499 82.9575C533.961 81.9052 532.598 80.6205 531.46 79.1501C528.496 75.3721 526.993 70.7165 526.993 65.3127C526.993 55.0504 532.541 49.8343 534.927 48.0683ZM518.787 54.7295C518.859 54.509 519.01 54.3229 519.213 54.207C519.415 54.0911 519.653 54.0538 519.882 54.1022C522.232 54.6265 524.444 55.6381 526.372 57.0706C525.509 59.7334 525.081 62.5158 525.103 65.3127C525.103 72.1971 527.399 76.9836 529.786 80.1007C529.591 79.9616 529.394 79.8194 529.197 79.6713C525.991 77.2808 523.295 74.2843 521.263 70.8548C520.273 69.1759 519.481 67.3899 518.902 65.5317C518.893 65.4882 518.88 65.4454 518.865 65.4036C517.423 60.5865 518.099 56.8282 518.787 54.7295ZM508.924 67.7315C508.891 67.613 508.882 67.4891 508.898 67.3672C508.914 67.2452 508.954 67.1276 509.016 67.0211C509.078 66.9146 509.16 66.8214 509.259 66.7469C509.358 66.6724 509.47 66.6181 509.59 66.5871C511.232 66.1697 513.865 65.8405 517.243 66.5438C517.85 68.371 518.649 70.1301 519.626 71.7922C522.669 77.0204 527.106 80.7803 530.694 82.9353C526.479 82.523 522.405 81.2113 518.749 79.0902C511.877 75.1549 509.644 70.2844 508.924 67.7315ZM562.074 67.7315C561.354 70.2844 559.121 75.1549 552.249 79.0902C548.594 81.2113 544.519 82.523 540.304 82.9353C543.892 80.7803 548.329 77.0205 551.372 71.7922C552.349 70.1301 553.148 68.3711 553.755 66.5439C557.133 65.8405 559.766 66.1697 561.408 66.5871C561.528 66.6181 561.64 66.6724 561.739 66.7469C561.838 66.8214 561.92 66.9146 561.982 67.0211C562.044 67.1276 562.084 67.2452 562.1 67.3672C562.116 67.4891 562.107 67.613 562.074 67.7315Z" fill="#C0C0C0"/>
<path d="M60.6196 66.0836C60.4328 65.76 60.1823 65.477 59.883 65.2515C59.5838 65.026 59.2418 64.8625 58.8774 64.7708C56.402 64.1732 53.8285 64.0915 51.3196 64.531C52.3921 59.9086 51.7031 56.2687 51.0093 54.15C50.7942 53.4881 50.3388 52.929 49.7316 52.5813C49.1243 52.2337 48.4085 52.1221 47.7231 52.2684C45.2841 52.8082 42.9778 53.8237 40.9383 55.2559C39.4985 51.8241 37.1755 48.8274 34.2017 46.5655C33.7112 46.1985 33.1134 46 32.499 46C31.8846 46 31.2869 46.1986 30.7964 46.5657C27.8225 48.8275 25.4995 51.8242 24.0597 55.2559C22.0203 53.8237 19.714 52.8082 17.2751 52.2684C16.5896 52.1221 15.8738 52.2337 15.2665 52.5814C14.6592 52.9291 14.2038 53.4882 13.9887 54.1502C13.295 56.2687 12.606 59.9087 13.6785 64.531C11.1696 64.0916 8.59611 64.1733 6.12065 64.7708C5.75687 64.8637 5.41544 65.0277 5.11631 65.2531C4.81719 65.4785 4.56638 65.7608 4.37855 66.0835C4.19073 66.4062 4.06966 66.7628 4.02242 67.1325C3.97519 67.5022 4.00274 67.8774 4.10347 68.2364C4.90093 71.0644 7.35121 76.446 14.8038 80.7138C22.2857 84.9984 28.9261 84.9998 32.4954 84.9998L32.4981 85L32.499 84.9999L32.5 85L32.5027 84.9998C36.072 84.9998 42.7124 84.9984 50.1942 80.7138C57.6468 76.446 60.0971 71.0644 60.8946 68.2364C60.9967 67.8776 61.025 67.5021 60.9778 67.1323C60.9305 66.7624 60.8087 66.4058 60.6196 66.0836ZM48.1164 54.1022C48.3448 54.0538 48.5832 54.0912 48.7854 54.207C48.9877 54.3228 49.1395 54.5089 49.2115 54.7293C49.8987 56.8278 50.5747 60.5854 49.134 65.4016C49.1148 65.4508 49.0999 65.5016 49.0893 65.5534C48.5108 67.4038 47.7208 69.1825 46.7348 70.8548C44.7031 74.2843 42.0067 77.2808 38.8014 79.6713C38.6038 79.8194 38.4075 79.9616 38.2123 80.1007C40.5994 76.9836 42.8955 72.1971 42.8955 65.3127C42.9174 62.5158 42.4887 59.7334 41.6256 57.0706C43.5539 55.6381 45.7659 54.6265 48.1164 54.1022ZM31.927 48.0683C32.0918 47.9449 32.2926 47.8781 32.499 47.8781C32.7054 47.8781 32.9063 47.9447 33.0711 48.0681C35.4566 49.8343 41.0052 55.0504 41.0052 65.3127C41.0052 70.7165 39.5022 75.3721 36.538 79.1501C35.4002 80.6205 34.0374 81.9052 32.499 82.9575C30.9607 81.9052 29.5979 80.6205 28.4601 79.1501C25.4959 75.3721 23.9928 70.7165 23.9928 65.3127C23.9928 55.0504 29.5415 49.8343 31.927 48.0683ZM15.7866 54.7295C15.8585 54.509 16.0103 54.3229 16.2126 54.207C16.4149 54.0911 16.6534 54.0538 16.8818 54.1022C19.2322 54.6265 21.4441 55.6381 23.3724 57.0706C22.5094 59.7334 22.0807 62.5158 22.1026 65.3127C22.1026 72.1971 24.3987 76.9836 26.7858 80.1007C26.5906 79.9616 26.3943 79.8194 26.1967 79.6713C22.9913 77.2808 20.295 74.2843 18.2633 70.8548C17.2734 69.1759 16.4812 67.3899 15.9023 65.5317C15.8929 65.4882 15.8803 65.4454 15.8647 65.4036C14.4231 60.5865 15.0994 56.8282 15.7866 54.7295ZM5.92394 67.7315C5.89101 67.613 5.88216 67.4891 5.8979 67.3672C5.91365 67.2452 5.95367 67.1276 6.01566 67.0211C6.07764 66.9146 6.16035 66.8214 6.25896 66.7469C6.35758 66.6724 6.47014 66.6181 6.5901 66.5871C8.23198 66.1697 10.8648 65.8405 14.2426 66.5438C14.8502 68.371 15.6491 70.1301 16.6263 71.7922C19.6695 77.0204 24.1062 80.7803 27.6941 82.9353C23.4794 82.523 19.4045 81.2113 15.749 79.0902C8.87726 75.1549 6.64375 70.2844 5.92394 67.7315ZM59.0741 67.7315C58.3543 70.2844 56.1208 75.1549 49.2491 79.0902C45.5935 81.2113 41.5186 82.523 37.304 82.9353C40.8918 80.7803 45.3286 77.0205 48.3718 71.7922C49.3489 70.1301 50.1478 68.3711 50.7554 66.5439C54.1332 65.8405 56.7661 66.1697 58.408 66.5871C58.5279 66.6181 58.6405 66.6724 58.7391 66.7469C58.8377 66.8214 58.9204 66.9146 58.9824 67.0211C59.0444 67.1276 59.0844 67.2452 59.1002 67.3672C59.1159 67.4891 59.1071 67.613 59.0741 67.7315Z" fill="#C0C0C0"/>
<g clip-path="url(#clip1_276_1091)">
<path d="M285.062 93.76H226.938V92.365H255.302V79.5019C255.301 79.1939 255.186 73.0559 248.767 71.1029C248.353 72.6335 247.144 74.385 244.375 74.385C244.205 74.385 240.165 74.3385 236.133 70.3066C235.86 70.0334 235.86 69.5916 236.133 69.3184C240.165 65.2865 244.205 65.24 244.375 65.24C247.907 65.24 248.901 68.092 248.946 69.6982C252.321 70.6611 254.225 72.6645 255.302 74.6097V62.0625H256.698V74.6117C257.775 72.6664 259.681 70.6631 263.054 69.7001C263.099 68.0939 264.093 65.2419 267.625 65.2419C267.796 65.2419 271.835 65.2884 275.869 69.3204C276.142 69.5936 276.142 70.0353 275.869 70.3085C271.835 74.3385 267.796 74.385 267.625 74.385C264.856 74.385 263.647 72.6335 263.233 71.1029C256.812 73.0559 256.697 79.1939 256.696 79.5019V92.365H285.062V93.76ZM264.591 70.7716C264.849 71.7132 265.579 72.99 267.625 72.99C267.658 72.99 270.942 72.928 274.366 69.8125C270.948 66.7047 267.67 66.635 267.625 66.635C265.162 66.635 264.608 68.4795 264.484 69.3727C265.432 69.2061 266.474 69.1131 267.627 69.1131V70.51C266.501 70.51 265.494 70.603 264.591 70.7716ZM237.634 69.8125C241.058 72.9261 244.342 72.99 244.377 72.99C246.423 72.99 247.151 71.7171 247.409 70.7716C246.506 70.603 245.499 70.51 244.375 70.51V69.115C245.526 69.115 246.57 69.208 247.518 69.3746C247.396 68.4834 246.841 66.635 244.375 66.635C244.342 66.635 241.058 66.6989 237.634 69.8125ZM256 62.7581C253.834 62.7581 252.015 61.2449 251.546 59.2182C249.825 60.2393 247.436 59.9661 245.985 58.5111C245.123 57.6489 244.646 56.4999 244.646 55.2793C244.646 54.4481 244.867 53.6499 245.28 52.9524C243.255 52.4854 241.74 50.6661 241.74 48.5C241.74 46.3339 243.253 44.5126 245.28 44.0437C244.867 43.3462 244.646 42.5499 244.646 41.7187C244.646 40.4981 245.123 39.3492 245.985 38.487C247.489 36.9835 249.788 36.7471 251.544 37.7837C252.013 35.7551 253.832 34.24 256 34.24C258.166 34.24 259.987 35.7551 260.456 37.7817C262.204 36.7452 264.508 36.9796 266.015 38.4851C266.877 39.3492 267.354 40.4981 267.354 41.7187C267.354 42.5499 267.133 43.3482 266.72 44.0457C268.745 44.5126 270.26 46.3319 270.26 48.5C270.26 50.6681 268.745 52.4854 266.718 52.9543C267.133 53.6518 267.354 54.4481 267.354 55.2812C267.354 56.5019 266.877 57.6508 266.015 58.513C264.564 59.9661 262.179 60.2412 260.454 59.2202C259.985 61.2449 258.166 62.7581 256 62.7581ZM252.824 58.0945C252.824 58.1255 252.823 58.1565 252.823 58.1875C252.823 59.939 254.249 61.365 256 61.365C257.751 61.365 259.177 59.939 259.177 58.1875C259.177 58.1565 259.177 58.1274 259.177 58.0964C258.825 57.6489 258.565 57.1432 258.403 56.6007C256.88 57.0521 255.124 57.0521 253.599 56.6007C253.437 57.1432 253.175 57.6469 252.824 58.0945ZM259.706 56.0892C259.848 56.6336 260.131 57.1238 260.534 57.5249C261.737 58.73 263.827 58.7281 265.027 57.5268C265.629 56.9262 265.957 56.1279 265.957 55.2793C265.957 54.4307 265.627 53.6324 265.027 53.0318C264.622 52.6269 264.132 52.3459 263.589 52.2064C262.762 53.8921 261.392 55.2619 259.706 56.0892ZM248.411 52.2084C247.872 52.3498 247.372 52.6346 246.971 53.0337C246.371 53.6344 246.041 54.4307 246.041 55.2793C246.041 56.1279 246.373 56.9262 246.971 57.5249C248.173 58.7261 250.261 58.7261 251.462 57.5249C251.867 57.1219 252.148 56.6317 252.292 56.0872C250.608 55.2638 249.238 53.8921 248.411 52.2084ZM256 41.4456C252.111 41.4456 248.948 44.6095 248.948 48.4981C248.948 52.3866 252.111 55.5506 256 55.5506C259.889 55.5506 263.052 52.3866 263.052 48.4981C263.052 44.6095 259.889 41.4456 256 41.4456ZM265.591 51.6736L265.688 51.6775C267.439 51.6775 268.865 50.2515 268.865 48.5C268.865 46.7485 267.441 45.3225 265.688 45.3225L265.593 45.3264C265.147 45.6771 264.641 45.9386 264.099 46.0994C264.327 46.8589 264.448 47.6649 264.448 48.5C264.448 49.3351 264.325 50.1411 264.099 50.9044C264.637 51.0652 265.145 51.3268 265.591 51.6736ZM246.312 45.3206C244.561 45.3206 243.135 46.7466 243.135 48.4981C243.135 50.2496 244.561 51.6775 246.312 51.6775L246.409 51.6756C246.855 51.3287 247.363 51.0672 247.901 50.9044C247.675 50.1411 247.552 49.3351 247.552 48.5C247.552 47.6669 247.673 46.8609 247.899 46.0994C247.357 45.9367 246.853 45.6771 246.407 45.3264L246.312 45.3206ZM249.219 38.5432C248.405 38.5432 247.591 38.8532 246.971 39.4712C246.371 40.0719 246.041 40.8701 246.041 41.7187C246.041 42.5674 246.373 43.3656 246.971 43.9643C247.374 44.3692 247.866 44.6502 248.409 44.7936C249.234 43.1079 250.606 41.7362 252.292 40.9108C252.15 40.3702 251.869 39.8781 251.464 39.4732C250.844 38.8532 250.031 38.5432 249.219 38.5432ZM259.706 40.9089C261.392 41.7362 262.764 43.1079 263.591 44.7916C264.132 44.6521 264.622 44.3692 265.027 43.9643C265.629 43.3637 265.957 42.5654 265.957 41.7168C265.957 40.8682 265.627 40.0699 265.027 39.4693C263.789 38.2312 261.772 38.2312 260.536 39.4693C260.129 39.8762 259.848 40.3664 259.706 40.9089ZM252.823 38.9055C253.175 39.3531 253.437 39.8568 253.597 40.3993C255.12 39.9479 256.876 39.9479 258.401 40.3993C258.561 39.8568 258.823 39.3531 259.174 38.9055L259.177 38.8125C259.177 37.061 257.753 35.635 256 35.635C254.247 35.635 252.823 37.0591 252.823 38.8125C252.823 38.8435 252.823 38.8745 252.823 38.9055Z" fill="#C0C0C0"/>
</g>
<g clip-path="url(#clip2_276_1091)">
<path d="M453.062 93.76H394.938V92.365H423.302V79.5019C423.301 79.1939 423.186 73.0559 416.767 71.1029C416.353 72.6335 415.144 74.385 412.375 74.385C412.205 74.385 408.165 74.3385 404.133 70.3066C403.86 70.0334 403.86 69.5916 404.133 69.3184C408.165 65.2865 412.205 65.24 412.375 65.24C415.907 65.24 416.901 68.092 416.946 69.6982C420.321 70.6611 422.225 72.6645 423.302 74.6097V62.0625H424.698V74.6117C425.775 72.6664 427.681 70.6631 431.054 69.7001C431.099 68.0939 432.093 65.2419 435.625 65.2419C435.796 65.2419 439.835 65.2884 443.869 69.3204C444.142 69.5936 444.142 70.0353 443.869 70.3085C439.835 74.3385 435.796 74.385 435.625 74.385C432.856 74.385 431.647 72.6335 431.233 71.1029C424.812 73.0559 424.697 79.1939 424.696 79.5019V92.365H453.062V93.76ZM432.591 70.7716C432.849 71.7132 433.579 72.99 435.625 72.99C435.658 72.99 438.942 72.928 442.366 69.8125C438.948 66.7047 435.67 66.635 435.625 66.635C433.162 66.635 432.608 68.4795 432.484 69.3727C433.432 69.2061 434.474 69.1131 435.627 69.1131V70.51C434.501 70.51 433.494 70.603 432.591 70.7716ZM405.634 69.8125C409.058 72.9261 412.342 72.99 412.377 72.99C414.423 72.99 415.151 71.7171 415.409 70.7716C414.506 70.603 413.499 70.51 412.375 70.51V69.115C413.526 69.115 414.57 69.208 415.518 69.3746C415.396 68.4834 414.841 66.635 412.375 66.635C412.342 66.635 409.058 66.6989 405.634 69.8125ZM424 62.7581C421.834 62.7581 420.015 61.2449 419.546 59.2182C417.825 60.2393 415.436 59.9661 413.985 58.5111C413.123 57.6489 412.646 56.4999 412.646 55.2793C412.646 54.4481 412.867 53.6499 413.28 52.9524C411.255 52.4854 409.74 50.6661 409.74 48.5C409.74 46.3339 411.253 44.5126 413.28 44.0437C412.867 43.3462 412.646 42.5499 412.646 41.7187C412.646 40.4981 413.123 39.3492 413.985 38.487C415.489 36.9835 417.788 36.7471 419.544 37.7837C420.013 35.7551 421.832 34.24 424 34.24C426.166 34.24 427.987 35.7551 428.456 37.7817C430.204 36.7452 432.508 36.9796 434.015 38.4851C434.877 39.3492 435.354 40.4981 435.354 41.7187C435.354 42.5499 435.133 43.3482 434.72 44.0457C436.745 44.5126 438.26 46.3319 438.26 48.5C438.26 50.6681 436.745 52.4854 434.718 52.9543C435.133 53.6518 435.354 54.4481 435.354 55.2812C435.354 56.5019 434.877 57.6508 434.015 58.513C432.564 59.9661 430.179 60.2412 428.454 59.2202C427.985 61.2449 426.166 62.7581 424 62.7581ZM420.824 58.0945C420.824 58.1255 420.823 58.1565 420.823 58.1875C420.823 59.939 422.249 61.365 424 61.365C425.751 61.365 427.177 59.939 427.177 58.1875C427.177 58.1565 427.177 58.1274 427.177 58.0964C426.825 57.6489 426.565 57.1432 426.403 56.6007C424.88 57.0521 423.124 57.0521 421.599 56.6007C421.437 57.1432 421.175 57.6469 420.824 58.0945ZM427.706 56.0892C427.848 56.6336 428.131 57.1238 428.534 57.5249C429.737 58.73 431.827 58.7281 433.027 57.5268C433.629 56.9262 433.957 56.1279 433.957 55.2793C433.957 54.4307 433.627 53.6324 433.027 53.0318C432.622 52.6269 432.132 52.3459 431.589 52.2064C430.762 53.8921 429.392 55.2619 427.706 56.0892ZM416.411 52.2084C415.872 52.3498 415.372 52.6346 414.971 53.0337C414.371 53.6344 414.041 54.4307 414.041 55.2793C414.041 56.1279 414.373 56.9262 414.971 57.5249C416.173 58.7261 418.261 58.7261 419.462 57.5249C419.867 57.1219 420.148 56.6317 420.292 56.0872C418.608 55.2638 417.238 53.8921 416.411 52.2084ZM424 41.4456C420.111 41.4456 416.948 44.6095 416.948 48.4981C416.948 52.3866 420.111 55.5506 424 55.5506C427.889 55.5506 431.052 52.3866 431.052 48.4981C431.052 44.6095 427.889 41.4456 424 41.4456ZM433.591 51.6736L433.688 51.6775C435.439 51.6775 436.865 50.2515 436.865 48.5C436.865 46.7485 435.441 45.3225 433.688 45.3225L433.593 45.3264C433.147 45.6771 432.641 45.9386 432.099 46.0994C432.327 46.8589 432.448 47.6649 432.448 48.5C432.448 49.3351 432.325 50.1411 432.099 50.9044C432.637 51.0652 433.145 51.3268 433.591 51.6736ZM414.312 45.3206C412.561 45.3206 411.135 46.7466 411.135 48.4981C411.135 50.2496 412.561 51.6775 414.312 51.6775L414.409 51.6756C414.855 51.3287 415.363 51.0672 415.901 50.9044C415.675 50.1411 415.552 49.3351 415.552 48.5C415.552 47.6669 415.673 46.8609 415.899 46.0994C415.357 45.9367 414.853 45.6771 414.407 45.3264L414.312 45.3206ZM417.219 38.5432C416.405 38.5432 415.591 38.8532 414.971 39.4712C414.371 40.0719 414.041 40.8701 414.041 41.7187C414.041 42.5674 414.373 43.3656 414.971 43.9643C415.374 44.3692 415.866 44.6502 416.409 44.7936C417.234 43.1079 418.606 41.7362 420.292 40.9108C420.15 40.3702 419.869 39.8781 419.464 39.4732C418.844 38.8532 418.031 38.5432 417.219 38.5432ZM427.706 40.9089C429.392 41.7362 430.764 43.1079 431.591 44.7916C432.132 44.6521 432.622 44.3692 433.027 43.9643C433.629 43.3637 433.957 42.5654 433.957 41.7168C433.957 40.8682 433.627 40.0699 433.027 39.4693C431.789 38.2312 429.772 38.2312 428.536 39.4693C428.129 39.8762 427.848 40.3664 427.706 40.9089ZM420.823 38.9055C421.175 39.3531 421.437 39.8568 421.597 40.3993C423.12 39.9479 424.876 39.9479 426.401 40.3993C426.561 39.8568 426.823 39.3531 427.174 38.9055L427.177 38.8125C427.177 37.061 425.753 35.635 424 35.635C422.247 35.635 420.823 37.0591 420.823 38.8125C420.823 38.8435 420.823 38.8745 420.823 38.9055Z" fill="#C0C0C0"/>
</g>
<g clip-path="url(#clip3_276_1091)">
<path d="M126.062 93.76H67.9375V92.365H96.3025V79.5019C96.3006 79.1939 96.1863 73.0559 89.7673 71.1029C89.3527 72.6335 88.1437 74.385 85.375 74.385C85.2045 74.385 81.1648 74.3385 77.1329 70.3066C76.8597 70.0334 76.8597 69.5916 77.1329 69.3184C81.1648 65.2865 85.2045 65.24 85.375 65.24C88.9071 65.24 89.901 68.092 89.9456 69.6982C93.3207 70.6611 95.2253 72.6645 96.3025 74.6097V62.0625H97.6975V74.6117C98.7748 72.6664 100.681 70.6631 104.054 69.7001C104.099 68.0939 105.093 65.2419 108.625 65.2419C108.796 65.2419 112.835 65.2884 116.869 69.3204C117.142 69.5936 117.142 70.0353 116.869 70.3085C112.835 74.3385 108.796 74.385 108.625 74.385C105.856 74.385 104.647 72.6335 104.233 71.1029C97.8118 73.0559 97.6975 79.1939 97.6956 79.5019V92.365H126.062V93.76ZM105.591 70.7716C105.849 71.7132 106.579 72.99 108.625 72.99C108.658 72.99 111.942 72.928 115.366 69.8125C111.948 66.7047 108.67 66.635 108.625 66.635C106.162 66.635 105.608 68.4795 105.484 69.3727C106.432 69.2061 107.474 69.1131 108.627 69.1131V70.51C107.501 70.51 106.494 70.603 105.591 70.7716ZM78.6344 69.8125C82.058 72.9261 85.3421 72.99 85.3769 72.99C87.4229 72.99 88.1514 71.7171 88.4091 70.7716C87.5063 70.603 86.4988 70.51 85.375 70.51V69.115C86.5259 69.115 87.5702 69.208 88.5176 69.3746C88.3956 68.4834 87.8414 66.635 85.375 66.635C85.3421 66.635 82.058 66.6989 78.6344 69.8125ZM97 62.7581C94.8339 62.7581 93.0146 61.2449 92.5457 59.2182C90.8252 60.2393 88.4363 59.9661 86.9851 58.5111C86.1229 57.6489 85.6462 56.4999 85.6462 55.2793C85.6462 54.4481 85.8671 53.6499 86.2798 52.9524C84.2551 52.4854 82.74 50.6661 82.74 48.5C82.74 46.3339 84.2532 44.5126 86.2798 44.0437C85.8671 43.3462 85.6462 42.5499 85.6462 41.7187C85.6462 40.4981 86.1229 39.3492 86.9851 38.487C88.4886 36.9835 90.7884 36.7471 92.5437 37.7837C93.0126 35.7551 94.8319 34.24 97 34.24C99.1661 34.24 100.987 35.7551 101.456 37.7817C103.204 36.7452 105.508 36.9796 107.015 38.4851C107.877 39.3492 108.354 40.4981 108.354 41.7187C108.354 42.5499 108.133 43.3482 107.72 44.0457C109.745 44.5126 111.26 46.3319 111.26 48.5C111.26 50.6681 109.745 52.4854 107.718 52.9543C108.133 53.6518 108.354 54.4481 108.354 55.2812C108.354 56.5019 107.877 57.6508 107.015 58.513C105.564 59.9661 103.179 60.2412 101.454 59.2202C100.985 61.2449 99.1661 62.7581 97 62.7581ZM93.8244 58.0945C93.8244 58.1255 93.8225 58.1565 93.8225 58.1875C93.8225 59.939 95.2485 61.365 97 61.365C98.7515 61.365 100.177 59.939 100.177 58.1875C100.177 58.1565 100.177 58.1274 100.177 58.0964C99.8249 57.6489 99.5653 57.1432 99.4025 56.6007C97.8796 57.0521 96.1242 57.0521 94.5994 56.6007C94.4367 57.1432 94.1751 57.6469 93.8244 58.0945ZM100.706 56.0892C100.848 56.6336 101.131 57.1238 101.534 57.5249C102.737 58.73 104.827 58.7281 106.027 57.5268C106.629 56.9262 106.957 56.1279 106.957 55.2793C106.957 54.4307 106.627 53.6324 106.027 53.0318C105.622 52.6269 105.132 52.3459 104.589 52.2064C103.762 53.8921 102.392 55.2619 100.706 56.0892ZM89.4108 52.2084C88.8722 52.3498 88.3723 52.6346 87.9713 53.0337C87.3706 53.6344 87.0413 54.4307 87.0413 55.2793C87.0413 56.1279 87.3726 56.9262 87.9713 57.5249C89.1725 58.7261 91.2611 58.7261 92.4624 57.5249C92.8673 57.1219 93.1483 56.6317 93.2916 56.0872C91.6079 55.2638 90.2381 53.8921 89.4108 52.2084ZM97 41.4456C93.1114 41.4456 89.9475 44.6095 89.9475 48.4981C89.9475 52.3866 93.1114 55.5506 97 55.5506C100.889 55.5506 104.052 52.3866 104.052 48.4981C104.052 44.6095 100.889 41.4456 97 41.4456ZM106.591 51.6736L106.688 51.6775C108.439 51.6775 109.865 50.2515 109.865 48.5C109.865 46.7485 108.441 45.3225 106.688 45.3225L106.593 45.3264C106.147 45.6771 105.641 45.9386 105.099 46.0994C105.327 46.8589 105.448 47.6649 105.448 48.5C105.448 49.3351 105.325 50.1411 105.099 50.9044C105.637 51.0652 106.145 51.3268 106.591 51.6736ZM87.3125 45.3206C85.561 45.3206 84.135 46.7466 84.135 48.4981C84.135 50.2496 85.561 51.6775 87.3125 51.6775L87.4094 51.6756C87.855 51.3287 88.3626 51.0672 88.9012 50.9044C88.6746 50.1411 88.5525 49.3351 88.5525 48.5C88.5525 47.6669 88.6726 46.8609 88.8993 46.0994C88.3568 45.9367 87.8531 45.6771 87.4074 45.3264L87.3125 45.3206ZM90.2188 38.5432C89.405 38.5432 88.5912 38.8532 87.9713 39.4712C87.3706 40.0719 87.0413 40.8701 87.0413 41.7187C87.0413 42.5674 87.3726 43.3656 87.9713 43.9643C88.3743 44.3692 88.8664 44.6502 89.4089 44.7936C90.2342 43.1079 91.606 41.7362 93.2916 40.9108C93.1502 40.3702 92.8693 39.8781 92.4643 39.4732C91.8443 38.8532 91.0306 38.5432 90.2188 38.5432ZM100.706 40.9089C102.392 41.7362 103.764 43.1079 104.591 44.7916C105.132 44.6521 105.622 44.3692 106.027 43.9643C106.629 43.3637 106.957 42.5654 106.957 41.7168C106.957 40.8682 106.627 40.0699 106.027 39.4693C104.789 38.2312 102.772 38.2312 101.536 39.4693C101.129 39.8762 100.848 40.3664 100.706 40.9089ZM93.8225 38.9055C94.1751 39.3531 94.4367 39.8568 94.5975 40.3993C96.1204 39.9479 97.8758 39.9479 99.4006 40.3993C99.5614 39.8568 99.8229 39.3531 100.174 38.9055L100.177 38.8125C100.177 37.061 98.7534 35.635 97 35.635C95.2466 35.635 93.8225 37.0591 93.8225 38.8125C93.8225 38.8435 93.8225 38.8745 93.8225 38.9055Z" fill="#C0C0C0"/>
</g>
<g clip-path="url(#clip4_276_1091)">
<path d="M331.062 88.76H272.938V87.365H301.302V69.2087C287.897 65.0915 287.74 53.3076 287.74 53.1875C287.74 52.8019 288.052 52.49 288.438 52.49C288.552 52.49 297.736 52.6101 301.302 61.0266V49.9867C295.899 49.6264 291.615 45.1159 291.615 39.625V29.9375C291.615 29.5519 291.927 29.24 292.312 29.24C292.396 29.24 297.999 29.3039 301.618 33.1092C302.364 32.0513 304.98 29.24 311.688 29.24C312.073 29.24 312.385 29.5519 312.385 29.9375V39.625C312.385 45.1159 308.099 49.6264 302.698 49.9867V70.7141C306.264 62.2976 315.448 62.1775 315.562 62.1775C315.948 62.1775 316.26 62.4894 316.26 62.875C316.26 63.2857 316.103 72.8899 302.698 78.8303V87.363H331.062V88.76ZM314.803 63.6151C312.098 63.867 303.236 65.5856 302.721 77.29C312.776 72.6051 314.507 65.8568 314.803 63.6151ZM289.18 53.9257C289.426 56.4134 291.022 64.3882 301.285 67.7381C300.83 55.8884 291.875 54.1737 289.18 53.9257ZM293.01 30.6699V39.625C293.01 44.5831 297.044 48.615 302 48.615C306.956 48.615 310.99 44.5831 310.99 39.625V30.6466C304.41 30.8559 302.694 33.9927 302.622 34.1302L302.382 34.0082C303.717 35.7849 304.635 38.2203 304.635 41.5625H303.24C303.24 32.2664 295.44 30.8772 293.01 30.6699Z" fill="#C0C0C0"/>
</g>
<g clip-path="url(#clip5_276_1091)">
<path d="M499.062 88.76H440.938V87.365H469.302V69.2087C455.897 65.0915 455.74 53.3076 455.74 53.1875C455.74 52.8019 456.052 52.49 456.438 52.49C456.552 52.49 465.736 52.6101 469.302 61.0266V49.9867C463.899 49.6264 459.615 45.1159 459.615 39.625V29.9375C459.615 29.5519 459.927 29.24 460.312 29.24C460.396 29.24 465.999 29.3039 469.618 33.1092C470.364 32.0513 472.98 29.24 479.688 29.24C480.073 29.24 480.385 29.5519 480.385 29.9375V39.625C480.385 45.1159 476.099 49.6264 470.698 49.9867V70.7141C474.264 62.2976 483.448 62.1775 483.562 62.1775C483.948 62.1775 484.26 62.4894 484.26 62.875C484.26 63.2857 484.103 72.8899 470.698 78.8303V87.363H499.062V88.76ZM482.803 63.6151C480.098 63.867 471.236 65.5856 470.721 77.29C480.776 72.6051 482.507 65.8568 482.803 63.6151ZM457.18 53.9257C457.426 56.4134 459.022 64.3882 469.285 67.7381C468.83 55.8884 459.875 54.1737 457.18 53.9257ZM461.01 30.6699V39.625C461.01 44.5831 465.044 48.615 470 48.615C474.956 48.615 478.99 44.5831 478.99 39.625V30.6466C472.41 30.8559 470.694 33.9927 470.622 34.1302L470.382 34.0082C471.717 35.7849 472.635 38.2203 472.635 41.5625H471.24C471.24 32.2664 463.44 30.8772 461.01 30.6699Z" fill="#C0C0C0"/>
</g>
<g clip-path="url(#clip6_276_1091)">
<path d="M172.062 88.76H113.938V87.365H142.302V69.2087C128.897 65.0915 128.74 53.3076 128.74 53.1875C128.74 52.8019 129.052 52.49 129.438 52.49C129.552 52.49 138.736 52.6101 142.302 61.0266V49.9867C136.899 49.6264 132.615 45.1159 132.615 39.625V29.9375C132.615 29.5519 132.927 29.24 133.312 29.24C133.396 29.24 138.999 29.3039 142.618 33.1092C143.364 32.0513 145.98 29.24 152.688 29.24C153.073 29.24 153.385 29.5519 153.385 29.9375V39.625C153.385 45.1159 149.099 49.6264 143.698 49.9867V70.7141C147.264 62.2976 156.448 62.1775 156.562 62.1775C156.948 62.1775 157.26 62.4894 157.26 62.875C157.26 63.2857 157.103 72.8899 143.698 78.8303V87.363H172.062V88.76ZM155.803 63.6151C153.098 63.867 144.236 65.5856 143.721 77.29C153.776 72.6051 155.507 65.8568 155.803 63.6151ZM130.18 53.9257C130.426 56.4134 132.022 64.3882 142.285 67.7381C141.83 55.8884 132.875 54.1737 130.18 53.9257ZM134.01 30.6699V39.625C134.01 44.5831 138.044 48.615 143 48.615C147.956 48.615 151.99 44.5831 151.99 39.625V30.6466C145.41 30.8559 143.694 33.9927 143.622 34.1302L143.382 34.0082C144.717 35.7849 145.635 38.2203 145.635 41.5625H144.24C144.24 32.2664 136.44 30.8772 134.01 30.6699Z" fill="#C0C0C0"/>
</g>
</g>
<defs>
<clipPath id="clip0_276_1091">
<rect width="576" height="85" fill="white"/>
</clipPath>
<clipPath id="clip1_276_1091">
<rect width="62" height="62" fill="white" transform="translate(225 33)"/>
</clipPath>
<clipPath id="clip2_276_1091">
<rect width="62" height="62" fill="white" transform="translate(393 33)"/>
</clipPath>
<clipPath id="clip3_276_1091">
<rect width="62" height="62" fill="white" transform="translate(66 33)"/>
</clipPath>
<clipPath id="clip4_276_1091">
<rect width="62" height="62" fill="white" transform="translate(271 28)"/>
</clipPath>
<clipPath id="clip5_276_1091">
<rect width="62" height="62" fill="white" transform="translate(439 28)"/>
</clipPath>
<clipPath id="clip6_276_1091">
<rect width="62" height="62" fill="white" transform="translate(112 28)"/>
</clipPath>
</defs>
</svg>
