<svg width="1728" height="821" viewBox="0 0 1728 821" fill="none" xmlns="http://www.w3.org/2000/svg">
<g clip-path="url(#clip0_273_148)">
<path d="M451.628 800.702L422.692 757.37H438.854L409.766 713.795H425.765L380.5 646L335.229 713.795H351.229L322.141 757.37H338.303L309.372 800.702H374.926V823H377.713H383.287H386.075V800.702H451.628ZM352.86 749.689H336.704L365.786 706.125H349.787L380.5 660.131L411.208 706.125H395.203L424.296 749.689H408.134L437.071 793.027H383.287V780.1L405.083 755.199L400.886 751.526L383.287 771.642V751.105L400.864 731.016L396.667 727.349L383.287 742.641V705.277H377.713V742.635L364.333 727.348L360.136 731.016L377.713 751.104V771.636L360.115 751.526L355.923 755.199L377.713 780.1V793.027H323.929L352.86 749.689Z" fill="#F5F5F5"/>
<path d="M0 281.203L94.1094 133.061C101.698 120.982 110.736 111.398 120.697 104.864C130.659 98.3307 141.346 94.9778 152.137 95.0004C162.876 94.9575 173.511 98.3034 183.414 104.841C193.316 111.378 202.286 120.973 209.793 133.061L659.138 840.395" stroke="#F5F5F5" stroke-width="8" stroke-miterlimit="10"/>
<path d="M388.713 414.706L466.083 292.328C481.542 268.309 502.39 254.845 524.111 254.853C545.719 254.873 566.445 268.344 581.767 292.328L883 830.56" stroke="#F5F5F5" stroke-width="8" stroke-miterlimit="10"/>
<path d="M960 244.86L1038.51 86.6478C1044.84 73.7486 1052.38 63.5128 1060.69 56.5349C1069 49.5571 1077.92 45.9763 1086.92 46.0004C1095.88 45.9546 1104.75 49.528 1113.02 56.5095C1121.28 63.4911 1128.76 73.739 1135.02 86.6478L1509.9 842.064" stroke="#F5F5F5" stroke-width="8" stroke-miterlimit="10"/>
<path d="M1284.29 387.439L1348.84 256.742C1361.74 231.09 1379.13 216.711 1397.25 216.72C1415.28 216.74 1432.57 231.127 1445.35 256.742L1728 800.913" stroke="#F5F5F5" stroke-width="8" stroke-miterlimit="10"/>
<path d="M1005.71 686.32C999.396 673.728 988.94 663.155 975.918 655.728C962.891 648.301 947.269 644.003 930.503 644C908.144 644.006 887.824 651.636 872.975 664.163C865.554 670.426 859.499 677.925 855.294 686.32C851.086 694.712 848.739 704.004 848.739 713.738C848.739 723.47 851.086 732.764 855.294 741.153C861.607 753.748 872.06 764.321 885.084 771.748C891.437 775.37 898.416 778.242 905.837 780.238C904.854 797.172 901.598 821 901.598 821H957.86C957.86 821 954.192 794.558 953.369 780.705C966.584 777.433 978.447 771.395 988.028 763.313C995.446 757.046 1001.5 749.548 1005.71 741.153C1009.92 732.764 1012.27 723.469 1012.26 713.738C1012.27 704.004 1009.92 694.712 1005.71 686.32ZM997.418 737C992.024 747.769 982.919 757.08 971.326 763.69C966.138 766.648 960.456 769.056 954.402 770.826C958.757 757.203 973.624 737.23 973.624 737.23L969.914 732.592C969.914 732.592 961.568 746.194 957.86 744.648C954.15 743.103 955.695 726.101 955.695 726.101H948.276C949.511 737.847 944.565 750.521 937.765 747.121C930.964 743.72 934.367 719.61 934.367 719.61L927.874 718.683C927.874 718.683 924.783 747.121 917.362 750.215C907.913 754.149 900.671 739.703 893.255 724.556L886.454 727.957C888.307 733.212 902.218 757.63 905.309 764.431C905.807 765.527 906.046 767.742 906.101 770.678C895.741 767.582 886.489 762.588 878.959 756.226C872.423 750.709 867.182 744.182 863.582 737C859.986 729.812 858.016 721.979 858.016 713.738C858.016 705.493 859.986 697.66 863.582 690.475C868.977 679.703 878.081 670.395 889.68 663.782C901.27 657.171 915.323 653.273 930.503 653.276C950.74 653.27 968.98 660.212 982.047 671.249C988.581 676.763 993.821 683.293 997.418 690.475C1001.02 697.66 1002.99 705.493 1002.99 713.737C1002.99 721.979 1001.02 729.812 997.418 737Z" fill="#F5F5F5"/>
<path d="M1399.19 721.329C1399.6 719.125 1399.81 716.911 1399.81 714.718C1399.81 698.858 1389.75 684.993 1374.98 679.931C1369.49 662.743 1353.62 651 1335.31 651C1317.01 651 1301.13 662.743 1295.64 679.931C1280.87 684.987 1270.82 698.858 1270.82 714.718C1270.82 716.911 1271.02 719.125 1271.43 721.329C1262.85 729.216 1258 740.186 1258 751.935C1258 774.929 1276.71 793.635 1299.7 793.635C1304.27 793.635 1308.73 792.9 1313.02 791.453C1318.01 794.985 1323.76 797.27 1329.78 798.145V828H1332.55H1338.08H1340.84V798.145C1346.86 797.27 1352.62 794.985 1357.61 791.453C1361.89 792.901 1366.36 793.635 1370.93 793.635C1393.92 793.635 1412.63 774.93 1412.63 751.935C1412.63 740.186 1407.77 729.215 1399.19 721.329ZM1370.93 782.573C1366.75 782.573 1362.69 781.741 1358.85 780.099L1355.71 778.748L1353.1 780.963C1348.84 784.571 1343.58 786.786 1338.08 787.347V772.871L1359.7 748.164L1355.54 744.523L1338.08 764.477V744.102L1355.52 724.17L1351.35 720.53L1338.08 735.697V704.465H1332.55V735.702L1319.27 720.529L1315.11 724.17L1332.55 744.102V764.477L1315.09 744.524L1310.93 748.164L1332.55 772.871V787.347C1327.04 786.786 1321.79 784.571 1317.53 780.963L1314.92 778.748L1311.77 780.098C1307.94 781.74 1303.88 782.572 1299.7 782.572C1282.8 782.572 1269.06 768.83 1269.06 751.934C1269.06 742.422 1273.41 733.601 1280.97 727.735L1283.93 725.434L1282.9 721.837C1282.22 719.471 1281.88 717.073 1281.88 714.717C1281.88 702.844 1289.94 692.57 1301.47 689.735L1304.75 688.924L1305.53 685.635C1308.81 671.753 1321.06 662.062 1335.31 662.062C1349.57 662.062 1361.81 671.753 1365.09 685.635L1365.87 688.925L1369.15 689.735C1380.69 692.571 1388.75 702.845 1388.75 714.718C1388.75 717.073 1388.4 719.471 1387.72 721.837L1386.69 725.435L1389.65 727.736C1397.22 733.602 1401.56 742.423 1401.56 751.935C1401.56 768.831 1387.82 782.573 1370.93 782.573Z" fill="#F5F5F5"/>
<path d="M1654.75 708.593C1655.19 706.255 1655.41 703.906 1655.41 701.58C1655.41 684.76 1644.74 670.053 1629.07 664.685C1623.25 646.455 1606.42 634 1587 634C1567.58 634 1550.75 646.455 1544.93 664.685C1529.26 670.048 1518.6 684.76 1518.6 701.58C1518.6 703.906 1518.81 706.255 1519.24 708.593C1510.14 716.957 1505 728.593 1505 741.054C1505 765.442 1524.84 785.282 1549.23 785.282C1554.08 785.282 1558.81 784.503 1563.36 782.967C1568.64 786.714 1574.75 789.137 1581.13 790.065V821.73H1584.07H1589.93H1592.87V790.066C1599.25 789.138 1605.36 786.714 1610.64 782.968C1615.19 784.503 1619.93 785.282 1624.77 785.282C1649.16 785.282 1669 765.443 1669 741.054C1669 728.593 1663.85 716.957 1654.75 708.593ZM1624.77 773.549C1620.34 773.549 1616.04 772.667 1611.97 770.925L1608.63 769.492L1605.86 771.841C1601.35 775.669 1595.77 778.017 1589.93 778.613V763.259L1612.87 737.054L1608.45 733.193L1589.93 754.356V732.746L1608.43 711.606L1604.01 707.745L1589.93 723.832V690.706H1584.07V723.837L1569.99 707.744L1565.57 711.606L1584.07 732.746V754.357L1565.55 733.193L1561.13 737.055L1584.07 763.259V778.613C1578.22 778.017 1572.65 775.669 1568.13 771.841L1565.37 769.492L1562.03 770.925C1557.97 772.666 1553.66 773.548 1549.23 773.548C1531.31 773.548 1516.73 758.974 1516.73 741.053C1516.73 730.964 1521.34 721.609 1529.37 715.387L1532.51 712.946L1531.41 709.131C1530.69 706.622 1530.33 704.078 1530.33 701.58C1530.33 688.987 1538.87 678.091 1551.1 675.083L1554.59 674.223L1555.41 670.734C1558.89 656.011 1571.88 645.733 1587 645.733C1602.12 645.733 1615.11 656.011 1618.58 670.735L1619.41 674.224L1622.89 675.084C1635.12 678.091 1643.67 688.988 1643.67 701.581C1643.67 704.079 1643.31 706.622 1642.58 709.132L1641.49 712.947L1644.63 715.388C1652.66 721.61 1657.27 730.965 1657.27 741.054C1657.27 758.974 1642.69 773.549 1624.77 773.549Z" fill="#F5F5F5"/>
<path d="M700 58.7721C700 40.3328 683.382 25.5761 664.464 28.866C657.739 17.9682 644.447 12.2207 631.695 15.2506C626.272 5.80084 616.335 0 605.39 0C594.653 0 585.272 5.64962 579.88 14.1257C573.265 9.82726 565.481 7.3631 557.243 7.3631C534.824 7.3631 516.489 25.141 515.601 47.5447C495.189 50.5147 480 67.9499 480 88.7838C480 111.763 498.7 130.465 521.684 130.465H647.11C670.09 130.465 688.791 111.764 688.791 88.7838C688.791 86.6851 688.577 84.6333 688.273 82.6163C695.383 77.0678 700 68.4754 700 58.7721ZM647.11 126.574H521.684C500.846 126.574 483.894 109.622 483.894 88.787C483.894 69.374 498.436 53.2161 517.716 51.2023L519.449 50.7976V49.046C519.449 28.2078 536.402 11.2557 557.244 11.2557C571.525 11.2557 584.429 19.1943 590.923 31.9688L591.655 33.406L593.197 32.9577C596.674 31.9492 600.217 31.439 603.729 31.439C617.453 31.439 630.123 38.9142 636.793 50.9499L637.502 52.2195L638.915 51.9084C663.152 46.5623 684.902 65.2671 684.902 88.7838C684.897 109.622 667.949 126.574 647.11 126.574ZM687.401 78.3146C682.101 58.0367 661.902 43.6314 639.475 47.8199C631.953 35.275 618.388 27.5464 603.725 27.5464C600.357 27.5464 596.981 27.9674 593.641 28.7997C590.911 23.8822 587.291 19.6774 583.047 16.3168C587.734 8.87968 595.961 3.89261 605.391 3.89261C615.39 3.89261 624.427 9.45302 628.975 18.4034L629.707 19.8406L631.256 19.3923C643.186 15.9197 655.917 21.4094 661.781 31.9884L662.489 33.258L663.903 32.9469C680.936 29.2163 696.106 42.3074 696.106 58.7732C696.107 66.528 692.739 73.4788 687.401 78.3146Z" fill="#F5F5F5"/>
<path d="M402 171.772C402 153.333 385.382 138.576 366.464 141.866C359.739 130.968 346.447 125.221 333.695 128.251C328.272 118.801 318.335 113 307.39 113C296.653 113 287.272 118.65 281.88 127.126C275.265 122.827 267.481 120.363 259.243 120.363C236.824 120.363 218.489 138.141 217.601 160.545C197.189 163.515 182 180.95 182 201.784C182 224.763 200.7 243.465 223.684 243.465H349.11C372.09 243.465 390.791 224.764 390.791 201.784C390.791 199.685 390.577 197.633 390.273 195.616C397.383 190.068 402 181.475 402 171.772ZM349.11 239.574H223.684C202.846 239.574 185.894 222.622 185.894 201.787C185.894 182.374 200.436 166.216 219.716 164.202L221.449 163.798V162.046C221.449 141.208 238.402 124.256 259.244 124.256C273.525 124.256 286.429 132.194 292.923 144.969L293.655 146.406L295.197 145.958C298.674 144.949 302.217 144.439 305.729 144.439C319.453 144.439 332.123 151.914 338.793 163.95L339.502 165.22L340.915 164.908C365.152 159.562 386.902 178.267 386.902 201.784C386.897 222.622 369.949 239.574 349.11 239.574ZM389.401 191.315C384.101 171.037 363.902 156.631 341.475 160.82C333.953 148.275 320.388 140.546 305.725 140.546C302.357 140.546 298.981 140.967 295.641 141.8C292.911 136.882 289.291 132.677 285.047 129.317C289.734 121.88 297.961 116.893 307.391 116.893C317.39 116.893 326.427 122.453 330.975 131.403L331.707 132.841L333.256 132.392C345.186 128.92 357.917 134.409 363.781 144.988L364.489 146.258L365.903 145.947C382.936 142.216 398.106 155.307 398.106 171.773C398.107 179.528 394.739 186.479 389.401 191.315Z" fill="#F5F5F5"/>
<path d="M1698 73.7721C1698 55.3328 1681.38 40.5761 1662.46 43.866C1655.74 32.9682 1642.45 27.2207 1629.7 30.2506C1624.27 20.8008 1614.33 15 1603.39 15C1592.65 15 1583.27 20.6496 1577.88 29.1257C1571.26 24.8273 1563.48 22.3631 1555.24 22.3631C1532.82 22.3631 1514.49 40.141 1513.6 62.5447C1493.19 65.5147 1478 82.9499 1478 103.784C1478 126.763 1496.7 145.465 1519.68 145.465H1645.11C1668.09 145.465 1686.79 126.764 1686.79 103.784C1686.79 101.685 1686.58 99.6333 1686.27 97.6163C1693.38 92.0678 1698 83.4754 1698 73.7721ZM1645.11 141.574H1519.68C1498.85 141.574 1481.89 124.622 1481.89 103.787C1481.89 84.374 1496.44 68.2161 1515.72 66.2023L1517.45 65.7976V64.046C1517.45 43.2078 1534.4 26.2557 1555.24 26.2557C1569.53 26.2557 1582.43 34.1943 1588.92 46.9688L1589.66 48.406L1591.2 47.9577C1594.67 46.9492 1598.22 46.439 1601.73 46.439C1615.45 46.439 1628.12 53.9142 1634.79 65.9499L1635.5 67.2195L1636.91 66.9084C1661.15 61.5623 1682.9 80.2671 1682.9 103.784C1682.9 124.622 1665.95 141.574 1645.11 141.574ZM1685.4 93.3146C1680.1 73.0367 1659.9 58.6314 1637.48 62.8199C1629.95 50.275 1616.39 42.5464 1601.72 42.5464C1598.36 42.5464 1594.98 42.9674 1591.64 43.7997C1588.91 38.8822 1585.29 34.6774 1581.05 31.3168C1585.73 23.8797 1593.96 18.8926 1603.39 18.8926C1613.39 18.8926 1622.43 24.453 1626.97 33.4034L1627.71 34.8406L1629.26 34.3923C1641.19 30.9197 1653.92 36.4094 1659.78 46.9884L1660.49 48.258L1661.9 47.9469C1678.94 44.2163 1694.11 57.3074 1694.11 73.7732C1694.11 81.528 1690.74 88.4788 1685.4 93.3146Z" fill="#F5F5F5"/>
<g clip-path="url(#clip1_273_148)">
<path d="M903.544 92.0821C891.016 79.4474 873.826 72.3459 855.082 72.0388C854.142 71.9806 853.2 71.9882 852.261 72.0587C833.857 72.5691 817.005 79.644 804.672 92.0821C791.995 104.867 785.013 122.387 785.013 141.414C785.013 162.717 798.07 178.99 809.59 193.347C816.997 202.58 823.995 211.305 825.242 219.134V233.785C825.242 233.839 825.249 233.891 825.25 233.944C825.253 234.012 825.255 234.079 825.261 234.147C825.269 234.246 825.282 234.343 825.296 234.439C825.302 234.478 825.304 234.518 825.311 234.558L830.804 265.412C831.178 267.515 833.007 269.047 835.143 269.047H873.072C875.209 269.047 877.038 267.515 877.412 265.412L882.905 234.558C882.912 234.518 882.914 234.478 882.919 234.439C882.934 234.342 882.947 234.246 882.955 234.147C882.961 234.079 882.963 234.012 882.965 233.944C882.967 233.891 882.973 233.838 882.973 233.785V219.134C884.221 211.305 891.219 202.58 898.626 193.347C910.146 178.99 923.203 162.717 923.203 141.414C923.203 122.387 916.221 104.867 903.544 92.0821ZM862.795 84.5639C862.811 84.5782 862.827 84.5917 862.842 84.6056C873.4 94.3822 885.986 111.77 885.986 139.087C885.986 162.633 877.959 178.869 871.509 191.914C867.527 199.968 864.013 207.097 863.004 214.37H862.17C862.472 208.217 863.395 201.759 864.434 194.492C866.378 180.897 868.796 163.977 868.796 139.088C868.796 113.394 865.777 95.7364 862.795 84.5639ZM853.81 85.133C856.779 95.5702 859.98 112.9 859.98 139.088C859.98 163.351 857.611 179.926 855.707 193.245C854.958 198.482 854.267 203.316 853.81 207.982C853.352 203.316 852.661 198.483 851.912 193.245C850.008 179.926 847.639 163.351 847.639 139.088C847.639 112.899 850.84 95.5697 853.81 85.133ZM844.777 84.6056C844.792 84.5913 844.809 84.5782 844.824 84.5639C841.843 95.7355 838.823 113.393 838.823 139.088C838.823 163.977 841.242 180.897 843.186 194.492C844.225 201.76 845.147 208.217 845.45 214.37H844.615C843.606 207.097 840.092 199.968 836.11 191.915C829.66 178.869 821.633 162.634 821.633 139.088C821.633 111.77 834.219 94.3822 844.777 84.6056ZM816.466 187.83C805.856 174.606 793.829 159.618 793.829 141.414C793.829 114.766 809.446 93.0912 832.49 84.6491C822.458 96.2186 812.818 113.889 812.818 139.088C812.818 164.694 821.351 181.954 828.208 195.822C831.73 202.945 834.654 208.871 835.691 214.371H833.191C830.61 205.458 823.714 196.864 816.466 187.83ZM869.381 260.231H838.836L834.912 238.193H873.304L869.381 260.231ZM874.158 229.377H834.058V223.186H874.158V229.377ZM891.751 187.83C884.502 196.864 877.607 205.459 875.025 214.37H871.928C872.964 208.871 875.89 202.945 879.412 195.822C886.268 181.954 894.802 164.694 894.802 139.088C894.802 113.664 884.99 95.9034 874.862 84.3403C898.378 92.5533 914.387 114.434 914.387 141.414C914.388 159.618 902.361 174.607 891.751 187.83Z" fill="#F5F5F5"/>
<path d="M976.793 258.587C971.926 249.173 962.068 243.041 951.347 243.041C940.625 243.041 930.768 249.173 925.9 258.587C913.984 258.917 904.132 267.709 902.093 279.185H880.615C878.181 279.185 876.208 281.159 876.208 283.593C876.208 286.027 878.181 288 880.615 288H906.114C908.549 288 910.522 286.027 910.522 283.593C910.522 274.66 917.732 267.392 926.596 267.392C927.126 267.392 927.687 267.422 928.263 267.48C930.244 267.68 932.117 266.524 932.825 264.662C935.738 257.003 943.182 251.857 951.347 251.857C959.513 251.857 966.956 257.003 969.869 264.662C970.577 266.525 972.447 267.678 974.431 267.48C975.007 267.422 975.567 267.392 976.097 267.392C983.445 267.392 989.658 272.387 991.567 279.185H939.146C936.712 279.185 934.738 281.159 934.738 283.593C934.738 286.027 936.712 288 939.146 288H996.579C999.013 288 1000.99 286.027 1000.99 283.593C1000.99 270.033 990.197 258.959 976.793 258.587Z" fill="#F5F5F5"/>
<path d="M925.702 279.184H925.634C923.199 279.184 921.226 281.158 921.226 283.592C921.226 286.026 923.199 288 925.634 288H925.702C928.137 288 930.11 286.026 930.11 283.592C930.11 281.158 928.137 279.184 925.702 279.184Z" fill="#F5F5F5"/>
<path d="M866.579 279.184H866.51C864.076 279.184 862.103 281.158 862.103 283.592C862.103 286.026 864.076 288 866.51 288H866.579C869.013 288 870.987 286.026 870.987 283.592C870.987 281.158 869.013 279.184 866.579 279.184Z" fill="#F5F5F5"/>
<path d="M961.885 161.25C956.591 161.25 951.836 163.589 948.589 167.284C945.342 163.589 940.587 161.25 935.293 161.25C932.858 161.25 930.885 163.224 930.885 165.658C930.885 168.092 932.858 170.066 935.293 170.066C940.194 170.066 944.181 174.053 944.181 178.954C944.181 181.388 946.155 183.362 948.589 183.362C951.023 183.362 952.996 181.388 952.996 178.954C952.996 174.053 956.984 170.066 961.885 170.066C964.319 170.066 966.293 168.092 966.293 165.658C966.293 163.224 964.32 161.25 961.885 161.25Z" fill="#F5F5F5"/>
<path d="M991.326 195.952C986.032 195.952 981.277 198.291 978.03 201.986C974.783 198.291 970.028 195.952 964.734 195.952C962.299 195.952 960.326 197.925 960.326 200.36C960.326 202.794 962.299 204.767 964.734 204.767C969.635 204.767 973.622 208.755 973.622 213.656C973.622 216.09 975.596 218.064 978.03 218.064C980.464 218.064 982.438 216.09 982.438 213.656C982.438 208.755 986.425 204.767 991.326 204.767C993.76 204.767 995.734 202.794 995.734 200.36C995.734 197.925 993.761 195.952 991.326 195.952Z" fill="#F5F5F5"/>
</g>
</g>
<defs>
<clipPath id="clip0_273_148">
<rect width="1728" height="821" fill="white"/>
</clipPath>
<clipPath id="clip1_273_148">
<rect width="216" height="216" fill="white" transform="translate(785 72)"/>
</clipPath>
</defs>
</svg>
