<svg width="1619" height="512" viewBox="0 0 1619 512" fill="none" xmlns="http://www.w3.org/2000/svg">
<g clip-path="url(#clip0_269_112)">
<path d="M158.498 370.259C172.338 370.259 183.597 359 183.597 345.16C183.597 331.32 172.338 320.061 158.498 320.061C144.658 320.061 133.399 331.32 133.399 345.16C133.399 359 144.658 370.259 158.498 370.259ZM158.498 329.997C166.86 329.997 173.662 336.8 173.662 345.161C173.662 353.522 166.859 360.325 158.498 360.325C150.137 360.325 143.335 353.522 143.335 345.161C143.335 336.799 150.137 329.997 158.498 329.997Z" fill="#F1F1F1"/>
<path d="M184.058 292.63C187.057 292.632 189.49 290.197 189.489 287.2C189.489 284.198 187.057 281.77 184.058 281.77C181.06 281.768 178.628 284.198 178.628 287.201C178.628 290.199 181.059 292.63 184.058 292.63Z" fill="#F1F1F1"/>
<path d="M45.2735 458.876C42.2756 458.875 39.8436 461.305 39.8436 464.308C39.8424 467.305 42.2738 469.736 45.2729 469.736C48.272 469.739 50.7046 467.304 50.704 464.307C50.704 461.305 48.272 458.876 45.2735 458.876Z" fill="#F1F1F1"/>
<path d="M218.97 393.785C221.968 393.786 224.401 391.352 224.401 388.356C224.4 385.353 221.968 382.925 218.97 382.924C215.972 382.923 213.54 385.353 213.54 388.356C213.539 391.354 215.971 393.785 218.97 393.785Z" fill="#F1F1F1"/>
<path d="M92.715 384.775C92.7144 381.773 90.2824 379.345 87.2839 379.345C84.286 379.344 81.854 381.773 81.854 384.777C81.8528 387.774 84.2841 390.206 87.2833 390.206C90.283 390.207 92.7156 387.772 92.715 384.775Z" fill="#F1F1F1"/>
<path d="M281.067 442.981C272.302 442.981 265.171 450.112 265.171 458.877C265.171 467.641 272.302 474.772 281.067 474.772C289.832 474.772 296.963 467.641 296.963 458.877C296.963 450.112 289.832 442.981 281.067 442.981ZM281.067 464.838C277.781 464.838 275.106 462.164 275.106 458.877C275.106 455.59 277.781 452.915 281.067 452.915C284.353 452.915 287.028 455.59 287.028 458.877C287.028 462.163 284.354 464.838 281.067 464.838Z" fill="#F1F1F1"/>
<path d="M258.45 409.07C255.452 409.069 253.02 411.499 253.02 414.502C253.019 417.499 255.45 419.931 258.449 419.931C261.448 419.933 263.881 417.498 263.881 414.501C263.881 411.499 261.448 409.07 258.45 409.07Z" fill="#F1F1F1"/>
<path d="M242.365 448.015C239.367 448.014 236.935 450.443 236.935 453.447C236.934 456.444 239.365 458.876 242.364 458.876C245.364 458.877 247.796 456.443 247.796 453.446C247.796 450.443 245.363 448.015 242.365 448.015Z" fill="#F1F1F1"/>
<path d="M298.465 427.749C298.571 426.482 298.624 425.21 298.624 423.942C298.624 404.408 285.974 387.161 267.856 381.008C280.881 375.974 292.494 367.254 300.964 356.042C310.893 342.9 316.142 327.246 316.142 310.771C316.142 298.37 306.052 288.28 293.651 288.28C281.25 288.28 271.161 298.37 271.161 310.771C271.161 325.334 261 337.463 247.236 340.364C246.185 323.783 236.02 308.977 220.97 302.03C220.532 277.41 200.368 257.514 175.645 257.514H141.354C116.63 257.514 96.4664 277.41 96.0281 302.03C80.9793 308.977 70.8142 323.783 69.7617 340.365C55.9963 337.466 45.8337 325.336 45.8337 310.771C45.8337 298.37 35.7442 288.28 23.3428 288.28C10.9415 288.28 0.851938 298.37 0.851938 310.771C0.851938 327.245 6.10039 342.9 16.0296 356.043C24.5006 367.256 36.1145 375.975 49.1412 381.009C31.0245 387.164 18.3755 404.41 18.3755 423.943C18.3755 425.211 18.4293 426.483 18.5346 427.75C6.87184 436.284 0 449.726 0 464.307C0 489.302 20.3363 509.638 45.3322 509.638H271.668C296.664 509.638 317 489.302 317 464.307C317 449.726 310.128 436.284 298.465 427.749ZM269.821 338.664C277.092 331.127 281.097 321.221 281.097 310.771C281.097 303.848 286.729 298.216 293.653 298.216C300.577 298.216 306.209 303.848 306.209 310.771C306.209 325.067 301.655 338.649 293.04 350.054C285.799 359.638 275.922 367.123 264.837 371.524C262.531 363.064 257.829 355.475 251.185 349.626C258.216 347.769 264.649 344.024 269.821 338.664ZM23.957 350.053C15.3411 338.649 10.7879 325.066 10.7879 310.77C10.7879 303.847 16.4202 298.214 23.3441 298.214C30.2679 298.214 35.9002 303.846 35.9002 310.77C35.9002 321.22 39.9049 331.126 47.176 338.662C52.3496 344.025 58.7818 347.769 65.8177 349.626C59.1737 355.475 54.4714 363.063 52.1663 371.525C41.0787 367.123 31.1985 359.638 23.957 350.053ZM271.668 499.703H45.3322C25.8145 499.703 9.93535 483.824 9.93535 464.307C9.93535 452.091 16.1175 440.895 26.4732 434.358C28.1461 433.302 29.0334 431.354 28.7306 429.399C28.4532 427.602 28.3121 425.766 28.3121 423.942C28.3121 407.216 40.1822 392.634 56.5368 389.271C58.8828 388.788 60.5507 386.7 60.503 384.306L60.4919 383.91C60.4882 383.799 60.4832 383.688 60.4832 383.576C60.4832 371.061 66.8901 359.723 77.6217 353.246C79.3299 352.214 80.2555 350.261 79.9719 348.287C79.7274 346.584 79.6029 344.877 79.6029 343.211C79.6029 328.431 88.9197 315.074 102.787 309.976C104.845 309.219 106.164 307.202 106.031 305.013C105.981 304.198 105.957 303.488 105.957 302.845C105.957 283.327 121.837 267.449 141.354 267.449H175.646C195.164 267.449 211.043 283.328 211.043 302.845C211.043 303.492 211.019 304.202 210.97 305.013C210.837 307.203 212.156 309.219 214.214 309.976C228.081 315.074 237.398 328.43 237.398 343.211C237.398 344.876 237.274 346.584 237.029 348.288C236.746 350.262 237.671 352.215 239.38 353.246C250.111 359.723 256.518 371.061 256.518 383.576C256.518 383.688 256.514 383.8 256.509 383.91L256.498 384.306C256.451 386.7 258.118 388.789 260.464 389.271C276.819 392.634 288.689 407.216 288.689 423.942C288.689 425.766 288.548 427.601 288.271 429.399C287.968 431.354 288.855 433.302 290.528 434.358C300.884 440.894 307.066 452.09 307.066 464.307C307.065 483.825 291.186 499.703 271.668 499.703Z" fill="#F1F1F1"/>
<path d="M242.366 372.491C242.366 369.489 239.934 367.061 236.935 367.059C233.937 367.058 231.505 369.489 231.505 372.491C231.504 375.49 233.936 377.92 236.935 377.92C239.933 377.922 242.366 375.486 242.366 372.491Z" fill="#F1F1F1"/>
<path d="M216.01 477.369C213.013 477.368 210.58 479.799 210.581 482.801C210.58 485.799 213.011 488.23 216.01 488.23C219.009 488.231 221.442 485.797 221.441 482.801C221.441 479.798 219.009 477.37 216.01 477.369Z" fill="#F1F1F1"/>
<path d="M158.498 393.322C185.055 393.322 206.66 371.716 206.66 345.16C206.66 318.603 185.054 296.997 158.498 296.997C131.942 296.997 110.336 318.603 110.336 345.16C110.335 371.716 131.941 393.322 158.498 393.322ZM158.498 306.933C179.577 306.933 196.726 324.082 196.726 345.161C196.726 366.239 179.577 383.387 158.498 383.387C137.42 383.387 120.271 366.239 120.271 345.161C120.27 324.082 137.42 306.933 158.498 306.933Z" fill="#F1F1F1"/>
<path d="M218.954 404.103H200.412C197.669 404.103 195.445 406.326 195.445 409.07V424.946C195.445 429.336 191.873 432.909 187.481 432.909C183.09 432.909 179.518 429.337 179.518 424.946V409.07C179.518 406.326 177.294 404.103 174.551 404.103H136.611C133.867 404.103 131.643 406.326 131.643 409.07C131.643 413.462 128.072 417.034 123.68 417.034C119.289 417.034 115.716 413.462 115.716 409.07C115.716 406.326 113.492 404.103 110.749 404.103H98.0396C93.6704 404.103 90.319 405.348 88.0777 407.803C86.1614 409.902 85.2581 412.726 85.5342 415.753C87.1762 433.886 95.4937 450.681 108.955 463.044C122.501 475.484 140.096 482.336 158.499 482.336C176.902 482.336 194.497 475.484 208.042 463.044C221.504 450.681 229.822 433.886 231.463 415.752C231.737 412.723 230.834 409.899 228.917 407.801C226.674 405.347 223.322 404.103 218.954 404.103ZM221.567 414.856C220.149 430.524 212.958 445.038 201.32 455.727C189.612 466.48 174.404 472.401 158.497 472.401C142.589 472.401 127.381 466.48 115.673 455.727C104.035 445.038 96.8447 430.524 95.4256 414.854C95.4102 414.689 95.4256 414.554 95.4417 414.483C95.5959 414.385 96.2677 414.038 98.0372 414.038H106.48C108.637 421.498 115.53 426.969 123.677 426.969C131.824 426.969 138.716 421.498 140.874 414.038H169.581V424.946C169.581 434.814 177.61 442.843 187.479 442.843C197.349 442.843 205.377 434.814 205.377 424.946V414.038H218.952C220.725 414.038 221.395 414.386 221.55 414.484C221.567 414.555 221.583 414.69 221.567 414.856Z" fill="#F1F1F1"/>
<path d="M708.894 334.729C705.709 337.906 705.709 343.051 708.886 346.244C712.038 349.429 717.207 349.462 720.417 346.302C722.793 343.966 727.8 340.503 731.001 340.503C734.202 340.503 739.208 343.966 741.561 346.277C743.153 347.869 745.244 348.67 747.335 348.67C749.426 348.67 751.516 347.869 753.108 346.277C756.302 343.084 756.302 337.922 753.108 334.729C752.031 333.652 742.231 324.169 731.001 324.169C719.771 324.169 709.972 333.652 708.894 334.729Z" fill="#F1F1F1"/>
<path d="M676.227 293.897C673.042 297.073 673.042 302.218 676.218 305.412C679.371 308.597 684.54 308.629 687.75 305.469C690.126 303.133 695.132 299.67 698.334 299.67C701.535 299.67 706.541 303.133 708.893 305.444C710.486 307.037 712.577 307.837 714.667 307.837C716.758 307.837 718.849 307.037 720.441 305.444C723.635 302.251 723.635 297.089 720.441 293.897C719.363 292.819 709.563 283.337 698.334 283.337C687.104 283.337 677.306 292.818 676.227 293.897Z" fill="#F1F1F1"/>
<path d="M731.001 242.503C719.772 242.503 709.972 251.984 708.893 253.063C705.708 256.239 705.708 261.384 708.885 264.578C712.037 267.763 717.206 267.795 720.416 264.635C722.792 262.3 727.799 258.837 731 258.837C734.201 258.837 739.207 262.299 741.56 264.61C743.152 266.203 745.243 267.003 747.334 267.003C749.425 267.003 751.515 266.203 753.107 264.61C756.301 261.417 756.301 256.256 753.107 253.063C752.031 251.985 742.231 242.503 731.001 242.503Z" fill="#F1F1F1"/>
<path d="M608.41 227.379C609.08 222.92 606.002 218.763 601.542 218.094C597.018 217.424 592.934 220.511 592.257 224.962C578.398 317.303 570.983 409.84 610.158 461.192C611.759 463.307 614.192 464.41 616.659 464.41C618.383 464.41 620.13 463.862 621.6 462.736C625.194 460 625.879 454.871 623.144 451.286C587.561 404.637 595.728 311.92 608.41 227.379Z" fill="#F1F1F1"/>
<path d="M763.668 283.337C752.439 283.337 742.639 292.818 741.561 293.897C738.376 297.073 738.376 302.218 741.553 305.412C744.706 308.597 749.875 308.629 753.085 305.469C755.461 303.133 760.467 299.67 763.668 299.67C766.87 299.67 771.876 303.133 774.228 305.444C775.821 307.037 777.912 307.837 780.002 307.837C782.093 307.837 784.183 307.037 785.776 305.444C788.969 302.251 788.969 297.089 785.776 293.897C784.697 292.818 774.897 283.337 763.668 283.337Z" fill="#F1F1F1"/>
<path d="M788.169 414.004C765.653 414.004 747.335 435.98 747.335 463.004C747.335 467.291 747.85 471.432 748.707 475.401C744.73 477.23 738.572 479.338 731.002 479.338C723.284 479.338 717.134 477.116 713.321 475.27C714.17 471.343 714.668 467.25 714.668 463.004C714.668 435.98 696.351 414.004 673.834 414.004C651.319 414.004 633 435.98 633 463.004C633 490.028 651.318 512.004 673.834 512.004C687.832 512.004 700.197 503.503 707.555 490.591C713.132 493.115 721.161 495.671 731.001 495.671C740.736 495.671 748.837 493.164 754.512 490.69C761.879 503.544 774.21 512.005 788.168 512.005C810.683 512.005 829.001 490.029 829.001 463.005C829.001 435.981 810.684 414.004 788.169 414.004ZM673.834 495.671C660.327 495.671 649.334 481.02 649.334 463.005C649.334 444.989 660.327 430.338 673.834 430.338C687.342 430.338 698.334 444.99 698.334 463.005C698.334 481.02 687.342 495.671 673.834 495.671ZM788.169 495.671C778.597 495.671 770.373 488.24 766.347 477.541C766.282 477.255 766.102 476.994 766.005 476.716C764.543 472.535 763.668 467.921 763.668 463.005C763.668 444.989 774.661 430.338 788.169 430.338C801.676 430.338 812.669 444.99 812.669 463.005C812.669 481.02 801.676 495.671 788.169 495.671Z" fill="#F1F1F1"/>
<path d="M774.22 346.244C777.372 349.429 782.541 349.462 785.751 346.302C788.127 343.966 793.134 340.503 796.335 340.503C799.536 340.503 804.542 343.966 806.895 346.277C808.487 347.869 810.578 348.67 812.669 348.67C814.76 348.67 816.85 347.869 818.442 346.277C821.636 343.084 821.636 337.922 818.442 334.729C817.365 333.652 807.565 324.169 796.335 324.169C785.105 324.169 775.306 333.651 774.227 334.729C771.042 337.907 771.042 343.052 774.22 346.244Z" fill="#F1F1F1"/>
<path d="M796.335 124.086C796.335 117.332 790.839 111.836 784.085 111.836C777.331 111.836 771.835 117.332 771.835 124.086C771.835 130.84 777.331 136.336 784.085 136.336C790.839 136.336 796.335 130.84 796.335 124.086Z" fill="#F1F1F1"/>
<path d="M860.852 218.044C856.368 218.493 853.093 222.495 853.543 226.987C863.13 322.807 868.545 405.74 837.61 450.174C835.021 453.874 835.944 458.969 839.644 461.542C841.065 462.53 842.69 463.004 844.299 463.004C846.88 463.004 849.419 461.788 851.004 459.509C885.133 410.492 879.71 324.465 869.795 225.353C869.345 220.87 865.409 217.635 860.852 218.044Z" fill="#F1F1F1"/>
<path d="M829.68 93.3304C836.254 59.6342 820.664 27.9065 819.978 26.5188C818.998 24.5751 817.299 23.1051 815.249 22.4189C813.175 21.7327 810.961 21.8963 809.018 22.8601C808.307 23.219 793.125 31.0188 783.44 52.5215C774.334 49.9002 757.461 46.5027 731.001 46.5027C704.541 46.5027 687.668 49.9002 678.562 52.5215C668.877 31.0178 653.695 23.219 652.984 22.8591C651.057 21.904 648.827 21.7403 646.753 22.4179C644.703 23.1041 643.004 24.5741 642.024 26.5179C641.338 27.9065 625.748 59.6342 632.322 93.3295C616.161 112.808 535 214.475 535 291.503C535 375.13 560.26 394.379 563.134 396.298C566.818 398.741 571.644 397.761 574.208 394.175C576.764 390.581 575.914 385.535 572.411 382.856C572.199 382.701 551.333 365.893 551.333 291.503C551.333 213.821 646.41 101.937 647.373 100.818C649.088 98.8095 649.733 96.0896 649.088 93.5171C644.262 74.2031 649.056 54.4557 652.902 43.2105C657.206 47.5392 662.482 54.6193 666.091 65.4156C666.835 67.6618 668.525 69.4744 670.705 70.3807C672.901 71.2794 675.36 71.1971 677.483 70.1443C677.631 70.063 693.147 62.8355 731 62.8355C768.763 62.8355 784.427 70.1041 784.517 70.1443C786.64 71.198 789.098 71.2794 791.295 70.3807C793.475 69.4744 795.166 67.6608 795.909 65.4156C799.527 54.5944 804.819 47.5143 809.114 43.1856C812.969 54.3906 817.771 74.0883 812.912 93.5171C812.267 96.0896 812.912 98.8095 814.635 100.818C815.591 101.937 910.667 213.755 910.667 291.503C910.667 364.848 890.39 382.211 889.613 382.84C886.012 385.387 885.081 390.345 887.539 394.036C889.107 396.396 891.704 397.67 894.342 397.67C895.893 397.67 897.47 397.229 898.866 396.297C901.741 394.379 927 375.13 927 291.502C927.002 214.475 845.841 112.808 829.68 93.3304Z" fill="#F1F1F1"/>
<path d="M643.56 334.729C640.375 337.906 640.375 343.051 643.552 346.244C646.704 349.429 651.866 349.462 655.083 346.302C657.459 343.966 662.466 340.503 665.667 340.503C668.868 340.503 673.874 343.966 676.227 346.277C677.819 347.869 679.91 348.67 682.001 348.67C684.091 348.67 686.182 347.869 687.774 346.277C690.968 343.084 690.968 337.922 687.774 334.729C686.697 333.652 676.897 324.169 665.667 324.169C654.437 324.169 644.638 333.652 643.56 334.729Z" fill="#F1F1F1"/>
<path d="M731.001 152.67C743.594 152.67 755.501 140.763 755.501 128.17C755.501 119.219 746.346 113.878 731.001 113.878C715.656 113.878 706.501 119.22 706.501 128.17C706.501 140.763 718.408 152.67 731.001 152.67ZM738.408 130.979C736.971 133.796 733.753 136.336 731.001 136.336C728.249 136.336 725.031 133.796 723.594 130.979C726.975 130.179 735.027 130.179 738.408 130.979Z" fill="#F1F1F1"/>
<path d="M731.001 201.67C663.454 201.67 608.5 260.29 608.5 332.337C608.5 360.782 616.92 387.83 632.853 410.541C634.446 412.811 636.969 414.02 639.55 414.02C641.167 414.02 642.8 413.539 644.229 412.542C647.921 409.945 648.819 404.857 646.222 401.166C632.232 381.215 624.833 357.408 624.833 332.337C624.833 269.29 672.461 218.003 731 218.003C789.539 218.003 837.167 269.289 837.167 332.337C837.167 357.417 829.776 381.215 815.794 401.157C813.197 404.849 814.096 409.936 817.787 412.534C821.487 415.122 826.575 414.224 829.163 410.532C845.088 387.829 853.5 360.789 853.5 332.336C853.502 260.29 798.548 201.67 731.001 201.67Z" fill="#F1F1F1"/>
<path d="M690.168 124.086C690.168 117.332 684.672 111.836 677.918 111.836C671.164 111.836 665.668 117.332 665.668 124.086C665.668 130.84 671.164 136.336 677.918 136.336C684.672 136.336 690.168 130.84 690.168 124.086Z" fill="#F1F1F1"/>
<path d="M708.894 191.11C710.487 192.702 712.578 193.503 714.668 193.503C716.759 193.503 718.849 192.702 720.442 191.11C725.097 186.455 735.803 185.352 739.193 185.336C743.693 185.328 747.336 181.67 747.336 177.17C747.336 172.662 743.686 169.003 739.169 169.003C737.152 169.003 719.16 169.297 708.895 179.563C705.701 182.756 705.701 187.917 708.894 191.11Z" fill="#F1F1F1"/>
<g clip-path="url(#clip1_269_112)">
<path d="M1446.22 462.212C1446.22 472.643 1454.71 481.128 1465.14 481.128C1475.57 481.128 1484.05 472.643 1484.05 462.212C1484.05 451.782 1475.57 443.297 1465.14 443.297C1454.71 443.297 1446.22 451.782 1446.22 462.212ZM1477.75 462.212C1477.75 469.168 1472.09 474.823 1465.14 474.823C1458.18 474.823 1452.53 469.167 1452.53 462.212C1452.53 455.258 1458.18 449.602 1465.14 449.602C1472.09 449.602 1477.75 455.258 1477.75 462.212ZM1562.86 443.297C1552.43 443.297 1543.95 451.782 1543.95 462.212C1543.95 472.643 1552.43 481.128 1562.86 481.128C1573.29 481.128 1581.78 472.643 1581.78 462.212C1581.78 451.782 1573.29 443.297 1562.86 443.297ZM1562.86 474.823C1555.91 474.823 1550.25 469.167 1550.25 462.212C1550.25 455.258 1555.91 449.602 1562.86 449.602C1569.82 449.602 1575.47 455.258 1575.47 462.212C1575.47 469.168 1569.82 474.823 1562.86 474.823ZM1594.15 431.115C1594.12 431.081 1594.11 431.036 1594.07 431.004C1594.04 430.972 1594 430.962 1593.96 430.93C1585.98 422.992 1574.99 418.077 1562.86 418.077C1561.56 418.077 1560.28 418.161 1559 418.272L1558.56 414.924H1581.75C1590.46 414.924 1597.54 407.853 1597.54 399.162V396.009C1597.54 387.318 1590.46 380.246 1581.75 380.246H1569.17V361.331C1569.17 359.589 1567.76 358.178 1566.02 358.178H1553.41C1551.66 358.178 1550.25 359.589 1550.25 361.331V380.246H1533.98L1527.73 375.216L1521.72 357.18C1521.29 355.893 1520.09 355.025 1518.73 355.025H1465.14C1463.39 355.025 1461.98 356.436 1461.98 358.178V377.093V380.245H1453.26L1449.88 369.818C1449.46 368.515 1448.25 367.635 1446.89 367.635H1430.84C1429.09 367.635 1427.68 369.046 1427.68 370.788C1427.68 372.53 1429.09 373.94 1430.84 373.94H1444.59L1446.63 380.245H1443.07C1441.33 380.245 1439.92 381.656 1439.92 383.398V399.161C1439.92 407.852 1447 414.923 1455.71 414.923H1468.42L1467.77 418.209C1466.89 418.157 1466.02 418.076 1465.14 418.076C1453.01 418.076 1442.02 422.992 1434.04 430.929C1434 430.96 1433.96 430.971 1433.93 431.003C1433.89 431.036 1433.88 431.081 1433.85 431.114C1425.92 439.1 1421 450.091 1421 462.212C1421 474.333 1425.92 485.325 1433.85 493.31C1433.88 493.343 1433.89 493.388 1433.93 493.421C1433.96 493.453 1434 493.463 1434.04 493.495C1442.02 501.432 1453.01 506.348 1465.14 506.348C1477.26 506.348 1488.25 501.432 1496.23 493.495C1496.27 493.464 1496.31 493.453 1496.34 493.421C1496.38 493.388 1496.39 493.343 1496.42 493.31C1504.36 485.325 1509.27 474.333 1509.27 462.212C1509.27 450.091 1504.36 439.1 1496.42 431.115C1496.39 431.081 1496.38 431.036 1496.34 431.004C1496.31 430.972 1496.27 430.962 1496.23 430.93C1490.26 424.99 1482.6 420.742 1474.04 418.981L1474.84 414.924H1552.2L1552.78 419.285C1544.7 421.183 1537.46 425.268 1531.77 430.93C1531.74 430.961 1531.69 430.972 1531.66 431.004C1531.63 431.036 1531.62 431.081 1531.58 431.115C1523.65 439.099 1518.73 450.09 1518.73 462.212C1518.73 474.334 1523.65 485.325 1531.58 493.31C1531.61 493.343 1531.62 493.388 1531.66 493.421C1531.69 493.453 1531.73 493.463 1531.77 493.495C1539.75 501.432 1550.74 506.348 1562.87 506.348C1574.99 506.348 1585.98 501.432 1593.96 493.495C1594 493.464 1594.04 493.453 1594.07 493.421C1594.11 493.388 1594.12 493.343 1594.15 493.31C1602.08 485.326 1607 474.333 1607 462.212C1607 450.091 1602.08 439.1 1594.15 431.115ZM1556.56 364.484H1562.86V380.246H1556.56V364.484ZM1468.29 361.331H1516.46L1520.66 373.941H1468.29V361.331ZM1489.54 433.352L1487.43 435.463C1486.2 436.693 1486.2 438.688 1487.43 439.92C1488.04 440.536 1488.85 440.844 1489.66 440.844C1490.46 440.844 1491.27 440.536 1491.89 439.92L1494 437.81C1498.94 443.649 1502.14 450.997 1502.81 459.06H1499.81C1498.07 459.06 1496.66 460.47 1496.66 462.212C1496.66 463.954 1498.07 465.365 1499.81 465.365H1502.81C1502.14 473.428 1498.94 480.776 1494 486.615L1491.89 484.504C1490.65 483.273 1488.66 483.273 1487.43 484.504C1486.2 485.736 1486.2 487.731 1487.43 488.962L1489.54 491.073C1483.7 496.018 1476.35 499.212 1468.29 499.883V496.889C1468.29 495.147 1466.88 493.737 1465.14 493.737C1463.39 493.737 1461.98 495.147 1461.98 496.889V499.883C1453.92 499.212 1446.57 496.018 1440.73 491.073L1442.84 488.962C1444.08 487.731 1444.08 485.736 1442.84 484.504C1441.61 483.273 1439.62 483.273 1438.39 484.504L1436.28 486.615C1431.33 480.775 1428.14 473.428 1427.47 465.365H1430.46C1432.2 465.365 1433.61 463.954 1433.61 462.212C1433.61 460.47 1432.2 459.06 1430.46 459.06H1427.46C1428.13 450.997 1431.33 443.648 1436.27 437.81L1438.38 439.92C1439 440.536 1439.81 440.844 1440.61 440.844C1441.42 440.844 1442.23 440.536 1442.84 439.92C1444.07 438.689 1444.07 436.694 1442.84 435.463L1440.73 433.352C1446.57 428.407 1453.92 425.212 1461.98 424.542V427.535C1461.98 429.277 1463.39 430.688 1465.13 430.688C1466.88 430.688 1468.29 429.277 1468.29 427.535V424.542C1476.35 425.212 1483.7 428.407 1489.54 433.352ZM1455.71 408.619C1450.48 408.619 1446.22 404.377 1446.22 399.162V386.551H1465.14C1466.88 386.551 1468.29 385.141 1468.29 383.399V380.246H1523.92L1530.89 385.856C1531.45 386.305 1532.15 386.551 1532.87 386.551H1553.41H1566.02H1581.75C1585.87 386.551 1589.34 389.195 1590.65 392.856H1578.63V399.162H1591.24C1591.24 404.377 1586.98 408.619 1581.75 408.619H1455.71ZM1591.73 486.616L1589.62 484.505C1588.38 483.274 1586.39 483.274 1585.16 484.505C1583.93 485.737 1583.93 487.732 1585.16 488.963L1587.27 491.073C1581.43 496.018 1574.08 499.213 1566.02 499.883V496.89C1566.02 495.148 1564.61 493.738 1562.87 493.738C1561.12 493.738 1559.71 495.148 1559.71 496.89V499.883C1551.65 499.213 1544.3 496.018 1538.46 491.073L1540.57 488.963C1541.8 487.732 1541.8 485.737 1540.57 484.505C1539.34 483.274 1537.35 483.274 1536.12 484.505L1534.01 486.616C1529.06 480.776 1525.87 473.429 1525.2 465.366H1528.19C1529.93 465.366 1531.34 463.955 1531.34 462.213C1531.34 460.471 1529.93 459.061 1528.19 459.061H1525.19C1525.86 450.997 1529.06 443.649 1534 437.811L1536.11 439.921C1536.73 440.537 1537.54 440.844 1538.34 440.844C1539.15 440.844 1539.96 440.536 1540.57 439.921C1541.8 438.69 1541.8 436.695 1540.57 435.464L1538.46 433.353C1543.37 429.194 1549.35 426.276 1555.92 425.05C1556.06 425.067 1556.18 425.122 1556.32 425.122C1556.46 425.122 1556.6 425.113 1556.74 425.094C1557.06 425.051 1557.34 424.92 1557.62 424.791C1558.31 424.694 1559.01 424.602 1559.71 424.543V427.536C1559.71 429.278 1561.12 430.689 1562.87 430.689C1564.61 430.689 1566.02 429.278 1566.02 427.536V424.543C1574.08 425.213 1581.43 428.408 1587.27 433.353L1585.16 435.464C1583.93 436.695 1583.93 438.69 1585.16 439.921C1585.77 440.537 1586.58 440.844 1587.39 440.844C1588.19 440.844 1589 440.536 1589.62 439.921L1591.73 437.811C1596.67 443.65 1599.87 450.997 1600.54 459.061H1597.54C1595.8 459.061 1594.39 460.471 1594.39 462.213C1594.39 463.955 1595.8 465.366 1597.54 465.366H1600.54C1599.87 473.429 1596.67 480.777 1591.73 486.616ZM1575.47 341.11L1579.93 345.567L1572.32 353.178L1567.86 348.72L1575.47 341.11ZM1550.25 331.652L1557.86 339.262L1553.41 343.72L1545.8 336.11L1550.25 331.652Z" fill="#F1F1F1"/>
</g>
<path d="M1244.55 366.968C1226.74 348.982 1197.72 345.855 1174.08 349.156C1161.83 350.807 1133.51 359.756 1132.47 375.395C1130.82 378.958 1131.77 383.041 1135.51 385.3C1135.94 385.561 1136.64 385.561 1136.98 385.3C1138.46 384.258 1139.76 383.128 1140.81 381.912C1141.59 383.91 1143.07 385.474 1145.76 385.735C1149.15 386.082 1152.97 383.389 1154.71 380.261C1155.23 385.735 1162.09 386.777 1166.18 383.041C1168.18 387.733 1174.87 387.907 1178.08 383.736C1178.86 388.602 1184.68 390.427 1189.2 387.994C1189.38 390.166 1190.42 392.164 1192.94 393.207C1195.46 394.249 1198.24 394.163 1200.76 393.207C1200.41 395.031 1200.85 396.943 1202.5 398.507C1204.67 400.592 1207.36 400.592 1209.79 399.549C1209.36 402.33 1209.53 405.11 1211.18 407.717C1212.49 409.889 1214.66 410.584 1216.83 410.497C1215.44 412.322 1214.92 414.581 1215.79 416.926C1216.74 419.533 1218.83 420.489 1221.18 420.576C1219.87 422.574 1219 424.833 1219.18 427.092C1219.18 427.526 1219.35 427.961 1219.44 428.308C1218.22 428.482 1217.18 428.917 1216.14 429.612C1215.7 429.177 1215.18 428.917 1214.4 429.003C1198.85 431.436 1191.2 417.187 1178.43 412.843C1169.74 409.889 1160.44 409.193 1151.32 410.584C1135.25 413.364 1115 420.836 1114.65 440.037C1114.39 450.985 1131.51 449.943 1138.03 448.813C1148.97 446.988 1159.23 442.036 1170.43 441.514C1182.95 440.906 1194.76 446.902 1207.27 447.944C1207.19 448.031 1207.01 448.118 1206.93 448.205C1205.45 449.421 1205.02 450.898 1205.1 452.375C1202.58 451.941 1200.06 452.462 1197.98 454.461C1197.63 454.721 1197.37 455.069 1197.2 455.416C1195.63 453.852 1193.37 453.157 1190.85 454.547C1187.9 456.111 1186.77 458.718 1186.68 461.498C1184.86 460.542 1182.86 460.368 1180.6 461.498C1179.3 462.193 1178.52 463.323 1177.99 464.626C1176.34 462.975 1174.08 462.019 1171.74 462.454C1169.31 462.975 1167.92 464.452 1167.13 466.277C1165.74 465.061 1163.92 464.366 1161.4 464.887C1159.66 465.234 1158.27 466.364 1157.49 467.667C1156.71 465.669 1155.32 464.278 1152.62 464.626C1149.58 465.06 1147.76 467.319 1146.8 469.926C1144.89 466.451 1141.68 463.844 1137.16 464.713C1131.77 465.756 1130.47 471.751 1134.99 474.879C1135.33 475.139 1135.59 475.052 1135.94 474.966C1158.18 487.564 1190.59 495.818 1212.75 480.005C1212.75 490.518 1213.36 500.857 1220.48 509.285C1221.7 510.762 1223.69 509.719 1224.3 508.242C1226.48 502.942 1233.17 482.09 1239.68 495.731C1241.33 499.207 1243.5 503.812 1247.68 504.941C1254.71 506.853 1257.32 493.212 1258.71 486.521C1258.8 486.435 1258.88 486.348 1258.97 486.174C1275.57 450.464 1273.31 395.987 1244.55 366.968ZM1136.64 471.142C1136.29 470.969 1135.85 471.142 1135.59 471.316C1135.07 469.318 1135.51 467.754 1138.55 467.667C1142.11 467.58 1144.2 470.534 1145.24 473.662C1142.11 473.141 1139.16 472.359 1136.64 471.142ZM1147.76 382.607C1143.59 384.258 1142.63 379.913 1143.33 376.699C1146.54 376.786 1149.84 376.959 1153.32 377.22C1151.58 379.305 1150.54 381.564 1147.76 382.607ZM1165.74 378.697C1163.74 384.605 1155.4 384.518 1156.62 377.481C1159.66 377.741 1162.79 378.089 1165.92 378.523C1165.74 378.61 1165.74 378.61 1165.74 378.697ZM1172.26 384.084C1168.96 384.953 1168.35 381.477 1168.61 379.131C1168.61 379.045 1168.61 378.958 1168.61 378.958C1171.39 379.392 1174.08 379.913 1176.86 380.435C1175.56 382.086 1174.52 383.476 1172.26 384.084ZM1180.51 381.217C1183.55 381.912 1186.51 382.781 1189.46 383.736C1185.9 387.82 1180.17 386.864 1180.51 381.217ZM1196.67 390.948C1192.68 391.209 1191.46 387.994 1192.76 384.866C1195.98 386.082 1199.02 387.472 1201.97 389.036C1200.32 390.079 1198.76 390.861 1196.67 390.948ZM1204.93 396.595C1202.23 395.292 1203.63 392.512 1204.84 390.687C1206.93 391.99 1208.93 393.381 1210.84 394.858C1209.19 396.422 1207.27 397.638 1204.93 396.595ZM1213.18 405.197C1211.97 403.025 1212.31 399.463 1213.62 397.204C1216.31 399.723 1218.66 402.59 1220.65 405.718C1220.57 405.718 1220.48 405.718 1220.39 405.805C1217.7 407.282 1215.01 408.499 1213.18 405.197ZM1218.83 415.797C1217.18 413.364 1220.22 410.931 1221.87 409.715C1222.31 409.454 1222.39 408.933 1222.31 408.412C1223.61 410.758 1224.65 413.364 1225.43 416.145C1225.35 416.145 1225.26 416.145 1225.17 416.231C1223.17 417.274 1220.39 418.143 1218.83 415.797ZM1226.39 419.967C1226.65 421.531 1226.91 423.095 1227.08 424.746C1227.17 425.876 1227.17 427.092 1227.17 428.222C1224.74 428.308 1221.87 428.656 1222.65 425.267C1223.17 423.182 1224.74 421.358 1226.39 419.967ZM1217.96 432.653C1220.13 430.654 1223.7 431.871 1225.87 433.087C1226.04 433.174 1226.3 433.174 1226.48 433.087C1225.87 435.52 1225 437.953 1223.7 440.298C1223.61 439.951 1223.35 439.603 1222.91 439.429C1220.65 438.387 1214.83 435.607 1217.96 432.653ZM1222.13 442.818C1221 444.643 1219.61 446.38 1218.13 448.031C1216.57 447.51 1215.09 446.902 1215.44 444.99C1215.96 442.297 1219.35 442.21 1221.44 442.818C1221.7 442.818 1221.96 442.818 1222.13 442.818ZM1160.1 438.822C1152.8 440.125 1114.65 455.677 1119.17 435.085C1124.21 412.061 1164.18 409.976 1180.77 418.317C1192.42 424.138 1200.15 434.303 1213.7 433.174C1213.1 435.433 1214.4 437.605 1216.31 439.343C1214.31 440.125 1212.75 441.602 1212.05 443.948C1211.79 444.817 1211.79 445.599 1211.97 446.381C1194.07 444.122 1178.25 435.607 1160.1 438.822ZM1214.4 450.203C1214.75 450.464 1215.01 450.638 1215.35 450.812C1213.79 452.289 1212.14 453.679 1210.4 455.069C1208.93 453.853 1207.27 451.941 1209.36 450.377C1210.84 449.248 1212.75 449.508 1214.4 450.203ZM1200.41 456.894C1202.41 454.721 1205.45 455.677 1207.45 457.241C1205.45 458.631 1203.45 459.935 1201.28 461.151C1199.98 459.935 1198.85 458.631 1200.41 456.894ZM1191.11 457.589C1193.02 455.59 1194.85 456.285 1196.24 457.849C1196.07 459.674 1196.67 461.585 1197.89 462.976C1195.63 464.105 1193.29 465.235 1190.94 466.19C1189.2 463.41 1188.68 460.108 1191.11 457.589ZM1181.56 464.626C1183.9 461.933 1186.77 465.408 1187.99 467.407C1185.81 468.276 1183.55 469.057 1181.3 469.753C1180.77 468.015 1180.08 466.277 1181.56 464.626ZM1172.61 465.061C1174.61 464.887 1176.26 466.103 1177.56 467.58C1177.65 468.623 1177.91 469.752 1178.43 470.621C1175.39 471.49 1172.35 472.185 1169.31 472.793C1169.31 471.838 1169.31 470.882 1169.04 470.013C1169.22 467.58 1170 465.321 1172.61 465.061ZM1161.66 468.015C1164.44 466.885 1165.83 468.797 1166.18 471.056C1166.18 471.751 1166.18 472.446 1166.26 473.141C1166.26 473.228 1166.26 473.228 1166.26 473.315C1164.27 473.662 1162.35 473.836 1160.44 474.01C1159.66 471.751 1158.62 469.318 1161.66 468.015ZM1151.93 467.233C1155.93 464.8 1156.62 471.751 1156.62 474.01C1156.62 474.097 1156.71 474.184 1156.71 474.271C1153.93 474.357 1151.23 474.271 1148.63 474.097C1148.63 471.403 1149.5 468.71 1151.93 467.233ZM1256.1 481.221C1255.58 481.482 1255.15 481.916 1254.97 482.611C1253.76 486.347 1252.8 490.17 1251.76 493.906C1249.33 502.856 1240.55 486.434 1239.6 485.044C1237.77 482.264 1234.73 483.306 1232.3 484.088C1227.34 485.739 1225 491.3 1223.35 495.731C1221.26 501.205 1222.83 510.241 1218.57 496.426C1216.57 489.996 1217.18 482.09 1217.18 475.4C1217.18 473.401 1214.75 472.532 1213.36 473.836C1195.98 489.649 1171.82 485.305 1150.8 477.919C1163.22 478.875 1177.56 474.096 1187.72 470.708C1192.42 469.144 1197.02 467.233 1201.45 464.887C1202.06 464.887 1202.58 464.626 1202.84 464.192C1209.01 460.803 1214.75 456.72 1219.53 451.767C1219.79 451.767 1220.05 451.767 1220.31 451.68C1221.35 451.506 1221.52 450.637 1221.26 449.855C1225.26 445.25 1228.47 439.95 1230.56 433.955C1237.34 414.232 1220.39 395.118 1205.19 385.56C1185.81 373.483 1160.44 371.833 1138.29 371.746C1135.16 371.746 1135.16 376.611 1138.29 376.611C1138.9 376.611 1139.42 376.611 1140.02 376.611C1139.33 378.957 1137.94 380.521 1136.12 382.085C1134.64 380.869 1134.12 379.392 1134.29 377.741C1134.29 377.654 1134.38 377.654 1134.38 377.654C1134.46 377.133 1134.55 376.698 1134.64 376.177C1134.9 375.395 1135.25 374.613 1135.59 373.918C1135.77 373.657 1135.68 373.397 1135.59 373.136C1142.89 356.454 1178.17 352.37 1191.55 352.283C1214.92 352.023 1237.86 362.536 1250.72 382.085C1269.92 411.192 1264.53 449.508 1256.1 481.221Z" fill="#F1F1F1"/>
<path d="M1187.29 360.017C1185.12 361.668 1185.73 364.795 1185.99 367.141C1186.16 369.053 1188.85 369.053 1189.03 367.141C1189.12 366.099 1189.2 365.056 1189.46 364.014C1189.64 363.145 1190.07 362.45 1189.98 361.581C1189.81 360.364 1188.51 359.148 1187.29 360.017Z" fill="#F1F1F1"/>
<path d="M1202.5 363.927C1202.06 362.71 1200.06 362.102 1199.45 363.492C1199.02 364.361 1199.02 365.143 1198.85 366.099C1198.67 367.054 1198.32 367.923 1197.98 368.879C1197.37 370.617 1199.89 371.486 1200.84 370.095C1201.89 368.358 1203.28 365.925 1202.5 363.927Z" fill="#F1F1F1"/>
<path d="M1208.32 435.346C1186.16 431.349 1164.7 412.495 1143.41 428.83C1142.46 429.612 1143.33 431.263 1144.46 430.567C1167.48 415.449 1185.03 436.736 1207.88 438.213C1209.53 438.3 1209.88 435.607 1208.32 435.346Z" fill="#F1F1F1"/>
</g>
<defs>
<clipPath id="clip0_269_112">
<rect width="1619" height="512" fill="white"/>
</clipPath>
<clipPath id="clip1_269_112">
<rect width="186" height="186" fill="white" transform="translate(1421 326)"/>
</clipPath>
</defs>
</svg>
