<svg width="1619" height="512" viewBox="0 0 1619 512" fill="none" xmlns="http://www.w3.org/2000/svg">
<g clip-path="url(#clip0_273_196)">
<g clip-path="url(#clip1_273_196)">
<path d="M355.382 369.294C349.703 354.083 332.179 341.217 303.3 331.056C289.925 326.351 277.291 323.328 270.171 321.801C263.588 307.48 253.371 295.198 240.34 286.037C225.255 275.431 207.502 269.825 189 269.825C170.498 269.825 152.744 275.431 137.66 286.037C124.628 295.198 114.411 307.48 107.828 321.803C100.709 323.329 88.074 326.352 74.7003 331.057C45.8207 341.218 28.2975 354.083 22.6183 369.295C20.4566 375.087 19.3843 384.156 26.5539 394.476C39.3363 412.877 72.2617 424.869 90.7509 430.38C92.339 430.852 93.9448 431.308 95.5546 431.76L81.6067 480.633L102.678 486.639L116.855 436.961C136.856 441.165 157.744 443.718 178.045 444.401V501.175H199.956V444.4C220.257 443.716 241.146 441.163 261.147 436.959L275.324 486.638L296.395 480.632L282.447 431.759C284.057 431.308 285.662 430.852 287.251 430.378C305.74 424.867 338.666 412.876 351.448 394.475C358.616 384.156 357.545 375.086 355.382 369.294ZM189 291.723C214.936 291.723 238.686 306.874 249.804 329.965C247.956 331.91 245.046 334.449 240.683 337.022C232.076 342.097 216.123 348.149 189.001 348.149C161.879 348.149 145.925 342.099 137.318 337.023C132.954 334.45 130.045 331.911 128.197 329.965C139.313 306.874 163.064 291.723 189 291.723ZM333.448 381.988C325.844 392.933 301.363 403.322 280.987 409.395C252.622 417.849 219.094 422.699 188.999 422.699C123.576 422.699 57.6293 400.816 44.5509 381.989C42.4141 378.912 42.9267 377.536 43.1465 376.949C46.2945 368.517 60.3547 359.352 81.7209 351.802C93.1304 347.771 104.19 345.037 110.939 343.543C113.767 346.773 117.927 350.657 123.881 354.467C140.028 364.804 161.937 370.045 188.999 370.045C216.062 370.045 237.971 364.803 254.118 354.466C260.071 350.655 264.232 346.771 267.059 343.542C273.81 345.036 284.868 347.77 296.277 351.802C317.643 359.352 331.704 368.517 334.852 376.949C335.073 377.536 335.586 378.911 333.448 381.988Z" fill="#F1F1F1"/>
<path d="M105.752 390.983C111.646 390.983 116.424 386.208 116.424 380.318C116.424 374.428 111.646 369.653 105.752 369.653C99.8582 369.653 95.0802 374.428 95.0802 380.318C95.0802 386.208 99.8582 390.983 105.752 390.983Z" fill="#F1F1F1"/>
<path d="M272.247 390.983C278.141 390.983 282.919 386.208 282.919 380.318C282.919 374.428 278.141 369.653 272.247 369.653C266.353 369.653 261.575 374.428 261.575 380.318C261.575 386.208 266.353 390.983 272.247 390.983Z" fill="#F1F1F1"/>
<path d="M189 408.048C194.894 408.048 199.672 403.273 199.672 397.383C199.672 391.493 194.894 386.718 189 386.718C183.106 386.718 178.328 391.493 178.328 397.383C178.328 403.273 183.106 408.048 189 408.048Z" fill="#F1F1F1"/>
</g>
<g clip-path="url(#clip2_273_196)">
<path d="M788.575 282.993C793.097 278.059 793.374 269.343 793.605 262.334C793.651 260.905 793.697 259.568 793.743 258.415C794.159 252.236 794.159 245.964 794.159 239.924C794.159 233.975 794.205 227.842 794.574 221.848C794.897 216.683 795.358 209.628 791.482 204.048C785.991 196.071 778.239 195.379 770.072 195.379L662.142 195.333C661.727 195.333 661.266 195.333 660.85 195.333C655.636 195.287 649.73 195.287 645.023 198.884C638.978 203.541 636.579 219.911 636.81 255.464C636.81 256.847 636.81 258.046 636.81 258.968C636.81 259.614 636.81 260.398 636.764 261.181C636.625 267.96 636.441 278.197 642.024 284.007C646.731 288.941 661.035 289.495 667.264 289.495C667.864 289.495 668.372 289.495 668.787 289.495C683.461 289.264 697.304 289.264 710.639 289.264C729.65 289.264 747.6 289.264 765.088 288.572C766.934 288.48 768.641 288.48 770.256 288.434C778.101 288.296 783.822 288.157 788.575 282.993ZM764.811 281.655C747.462 282.301 729.558 282.301 710.593 282.347C697.211 282.347 683.322 282.347 668.603 282.578C658.589 282.716 648.853 281.24 646.961 279.211C643.362 275.43 643.547 266.577 643.639 261.274C643.639 260.398 643.685 259.614 643.685 258.922C643.685 258 643.685 256.801 643.685 255.371C643.639 248.316 643.593 236.511 644.423 225.629C645.762 207.829 648.669 204.74 649.222 204.325C651.714 202.388 655.544 202.204 659.374 202.204C659.835 202.204 660.297 202.204 660.758 202.204C661.22 202.204 661.681 202.204 662.096 202.204L770.026 202.25C778.055 202.25 782.438 203.08 785.714 207.922C788.021 211.288 787.929 216.037 787.606 221.386C787.191 227.565 787.191 233.837 787.191 239.878C787.191 245.826 787.145 251.959 786.776 257.954C786.683 259.245 786.637 260.628 786.591 262.104C786.406 267.683 786.176 275.292 783.407 278.289C780.777 281.148 777.593 281.333 770.026 281.471C768.503 281.517 766.749 281.563 764.811 281.655ZM732.742 257.585C731.127 262.749 727.666 267.176 723.282 269.712C720.468 271.326 717.284 272.156 714.146 272.156C711.839 272.156 709.578 271.695 707.501 270.819C702.149 268.467 698.457 263.118 698.273 257.539C698.227 255.648 699.749 254.034 701.641 253.988C703.533 253.942 705.148 255.464 705.194 257.354C705.286 260.305 707.363 263.21 710.27 264.502C713.177 265.747 716.822 265.47 719.775 263.764C722.683 262.104 724.944 259.106 726.097 255.556C726.651 253.711 728.635 252.743 730.435 253.296C732.326 253.85 733.342 255.786 732.742 257.585ZM691.213 228.949C691.49 230.194 691.028 231.485 690.013 232.315L675.201 244.535C674.555 245.088 673.771 245.319 672.986 245.319C671.971 245.319 671.002 244.904 670.31 244.074C669.11 242.598 669.295 240.431 670.771 239.186L680.554 231.116L669.202 227.842C667.357 227.289 666.295 225.398 666.849 223.554C667.403 221.709 669.295 220.649 671.14 221.202L688.813 226.32C690.013 226.689 690.982 227.704 691.213 228.949ZM763.196 222.401C763.796 224.199 762.781 226.182 760.982 226.782L748.246 230.932L757.567 238.31C759.09 239.509 759.32 241.676 758.121 243.152C757.428 244.028 756.413 244.489 755.398 244.489C754.66 244.489 753.875 244.258 753.276 243.751L738.833 232.361C737.818 231.577 737.356 230.286 737.587 229.041C737.818 227.796 738.694 226.735 739.94 226.367L758.859 220.234C760.658 219.588 762.597 220.602 763.196 222.401ZM656.605 335.699C656.421 332.61 656.19 329.105 654.621 325.831C652.637 321.589 648.761 318.914 644.746 319.099C641.055 319.237 636.487 322.188 635.102 328.229C634.18 332.333 635.102 360.692 636.025 369.776C636.348 372.774 636.81 375.909 638.332 378.768C640.317 382.457 643.777 384.809 647.33 384.901C647.423 384.901 647.515 384.901 647.561 384.901C651.852 384.901 656.005 381.627 657.667 376.832C659.005 373.004 658.728 368.946 658.497 365.672L656.605 335.699ZM651.206 374.572C650.514 376.555 648.945 378.077 647.607 377.984C646.546 377.938 645.254 376.924 644.47 375.494C643.547 373.834 643.178 371.713 642.947 369.085C641.886 358.709 641.332 332.794 641.886 329.751C642.347 327.768 643.777 326.062 645.069 326.016C646.177 325.97 647.607 327.168 648.392 328.782C649.361 330.857 649.545 333.578 649.73 336.16L651.714 366.087C651.852 369.039 652.083 372.082 651.206 374.572ZM682.953 324.909C681.292 322.096 678.616 320.067 675.801 319.422C673.586 318.914 671.325 319.283 669.479 320.528C667.218 322.004 665.603 324.725 664.957 328.045C664.45 330.627 664.496 333.209 664.588 335.515C664.68 337.959 664.634 340.172 664.634 342.293C664.634 346.121 664.588 349.717 665.003 354.098C665.142 355.62 665.234 357.464 665.28 359.355C665.511 365.073 665.788 371.575 667.864 376.186C669.664 380.106 673.032 382.55 676.493 382.55C677.001 382.55 677.462 382.503 677.97 382.411C680.877 381.812 683.415 379.322 684.753 375.817C685.722 373.235 685.999 370.514 686.137 367.932C686.829 357.879 686.783 347.642 686.045 337.59C685.768 333.532 685.26 328.829 682.953 324.909ZM679.308 367.563C679.169 369.73 678.985 371.805 678.339 373.465C677.785 374.895 677.001 375.633 676.585 375.725C676.17 375.817 674.97 375.079 674.232 373.419C672.709 370.007 672.479 364.243 672.248 359.171C672.156 357.142 672.109 355.251 671.925 353.545C671.556 349.487 671.556 346.028 671.602 342.386C671.602 340.172 671.602 337.913 671.556 335.377C671.51 333.348 671.417 331.272 671.786 329.474C672.063 327.998 672.709 326.753 673.401 326.338C673.54 326.246 673.678 326.154 673.955 326.154C674.047 326.154 674.186 326.154 674.324 326.2C675.293 326.431 676.355 327.307 677.047 328.46C678.569 331.088 678.985 334.685 679.215 338.189C679.908 347.919 679.954 357.787 679.308 367.563ZM712.208 323.664C710.455 320.252 707.317 318.038 704.041 317.9C699.98 317.715 696.058 320.713 694.443 325.186C693.243 328.598 693.474 332.241 693.658 335.146C693.981 339.988 694.166 344.415 694.351 348.657C694.674 355.62 694.95 362.214 695.735 370.145C695.919 371.898 696.704 377.8 700.026 380.382C701.826 381.766 703.994 382.503 706.163 382.503C706.625 382.503 707.086 382.457 707.548 382.411C709.855 382.088 711.793 380.89 713.039 379.091C715.161 376.048 715.623 372.82 715.853 369.776C716.915 356.865 715.761 343.815 714.331 331.688C713.915 329.013 713.5 326.246 712.208 323.664ZM708.886 369.177C708.655 371.944 708.332 373.604 707.317 375.125C707.086 375.448 706.671 375.54 706.44 375.587C705.702 375.679 704.917 375.448 704.225 374.941C703.718 374.48 702.841 372.22 702.564 369.5C701.826 361.753 701.549 355.297 701.226 348.38C701.041 344.092 700.857 339.665 700.534 334.731C700.349 332.195 700.211 329.612 700.949 327.491C701.457 326.016 702.749 324.771 703.671 324.817C704.456 324.863 705.425 325.693 706.025 326.846C706.809 328.367 707.086 330.35 707.363 332.471C708.747 344.23 709.901 356.865 708.886 369.177ZM744.139 341.233C744.924 341.371 745.708 341.417 746.492 341.417C750.138 341.417 753.691 340.034 756.136 337.498C759.459 334.085 760.52 328.967 758.72 324.725C757.059 320.851 753.783 318.038 749.723 317.116C745.523 316.148 741.001 317.254 737.679 320.113C734.68 322.696 733.019 326.615 733.388 330.35C733.895 335.699 738.417 340.264 744.139 341.233ZM742.201 325.416C743.493 324.309 745.062 323.71 746.677 323.71C747.185 323.71 747.646 323.756 748.154 323.894C750.092 324.356 751.568 325.601 752.353 327.491C753.045 329.105 752.537 331.319 751.199 332.702C749.815 334.131 747.462 334.823 745.293 334.408C742.709 333.947 740.494 331.918 740.263 329.705C740.125 328.229 740.909 326.569 742.201 325.416ZM781.423 340.495C781.884 340.495 782.346 340.449 782.853 340.403C786.545 340.034 789.821 338.235 791.805 335.515C794.851 331.365 794.528 325.186 791.113 321.128C787.837 317.254 782.069 315.225 777.039 316.101C772.979 316.839 769.841 319.468 768.457 323.249C766.934 327.491 767.949 332.471 771.041 335.93C773.533 338.835 777.455 340.495 781.423 340.495ZM774.871 325.647C775.424 324.125 776.486 323.249 778.193 322.926C780.823 322.465 784.053 323.618 785.76 325.601C787.145 327.215 787.329 329.843 786.176 331.411C785.345 332.518 783.822 333.301 782.115 333.486C779.854 333.716 777.501 332.84 776.117 331.319C774.732 329.843 774.225 327.491 774.871 325.647ZM750.184 354.098C744.601 353.222 741.509 355.205 739.248 357.28C736.71 359.586 735.095 363.321 735.233 366.502C735.372 369.776 736.802 372.774 739.386 375.172C741.278 376.924 743.955 378.353 746.4 378.953C747.185 379.137 748.015 379.229 748.846 379.229C752.768 379.229 756.736 377.108 758.905 373.696C761.351 369.823 761.397 364.612 759.043 360.508C756.967 356.865 753.922 354.652 750.184 354.098ZM752.999 370.053C751.984 371.713 749.769 372.682 748.015 372.266C746.723 371.944 745.154 371.068 744.093 370.145C742.847 368.992 742.201 367.701 742.155 366.226C742.109 365.027 742.893 363.321 743.908 362.398C745.016 361.384 745.985 360.831 747.6 360.831C748.061 360.831 748.523 360.877 749.123 360.969C750.738 361.2 751.984 362.214 752.999 363.966C754.06 365.811 754.06 368.347 752.999 370.053ZM784.284 351.931C779.254 351.101 774.363 352.853 771.594 356.496C768.78 360.139 768.272 365.304 770.302 369.592C771.871 372.958 774.963 375.633 778.516 376.739C779.762 377.108 781.054 377.293 782.392 377.293C785.853 377.293 789.221 375.955 791.713 373.558C795.174 370.145 796.42 364.842 794.897 360.323C793.328 355.943 789.314 352.761 784.284 351.931ZM786.776 368.624C785.207 370.145 782.623 370.791 780.5 370.099C778.793 369.592 777.27 368.255 776.532 366.641C775.609 364.704 775.84 362.26 777.039 360.692C778.193 359.171 780.085 358.617 781.792 358.617C782.254 358.617 782.715 358.663 783.13 358.709C785.114 359.032 787.468 360.185 788.252 362.491C788.944 364.566 788.344 367.056 786.776 368.624ZM892.536 180.023C888.752 179.885 885.292 181.222 883.077 183.759C879.062 188.324 879.847 194.503 880.493 199.437L880.539 199.621C880.631 200.175 880.677 200.728 880.77 201.281C881.277 204.924 881.785 208.383 880.262 210.688C878.601 213.224 873.525 215.761 866.281 215.253C862.728 215.023 858.113 213.501 856.729 209.997C855.852 207.737 856.867 204.924 858.067 201.65C859.498 197.777 861.113 193.35 859.544 188.739C858.159 184.589 854.099 181.545 849.761 181.315C845.147 181.038 841.502 184.865 839.61 188.508C835.457 196.716 833.657 205.016 834.442 212.625C835.411 221.894 840.348 230.009 847.593 234.252C847.869 234.436 848.146 234.575 848.423 234.713C848.377 239.324 848.192 244.443 847.593 249.192C846.762 256.155 845.147 261.458 842.609 265.793C842.378 266.162 842.148 266.531 841.917 266.946C838.825 271.741 835.088 275.384 830.796 277.828C827.382 279.765 823.506 280.964 819.261 281.425C819.214 263.395 819.214 245.227 819.353 227.519C819.584 202.665 815.108 185.096 806.064 175.274C795.128 163.377 778.147 159.135 765.78 157.659C740.725 154.662 718.576 154.016 693.935 155.63C681.569 156.414 667.08 157.889 653.514 162.777C643.27 166.466 629.15 173.798 620.106 187.724C610.831 202.019 609.262 219.127 608.432 236.88C607.739 251.498 607.278 266.899 607.093 282.624C595.696 282.854 584.068 285.852 573.317 291.293H573.27C562.842 296.596 553.336 304.204 545.769 313.243C543.693 315.686 541.801 318.315 540.139 320.989C540.139 320.989 540.139 320.989 540.139 321.036C533.449 331.78 529.757 344.507 528.834 359.908C528.419 366.964 528.557 374.757 529.25 383.61C528.834 383.933 528.373 384.302 527.958 384.625C522.097 389.651 518.821 397.813 519.006 406.943C519.144 414.644 520.759 424.743 524.774 430.092C526.896 432.904 530.588 434.703 534.556 434.795C534.741 434.795 534.879 434.795 535.064 434.795C538.663 434.795 541.939 433.412 544.016 431.014C548.03 426.403 547.199 420.27 546.507 415.289L546.461 415.105C546.369 414.552 546.323 413.998 546.23 413.445C545.677 409.802 545.215 406.344 546.692 404.038C548.353 401.502 553.429 398.966 560.627 399.381C564.18 399.611 568.794 401.087 570.225 404.591C571.148 406.851 570.086 409.664 568.933 412.938C567.502 416.857 565.934 421.238 567.502 425.849C568.933 429.953 572.947 432.997 577.331 433.227C581.991 433.458 585.591 429.63 587.436 425.988C591.589 417.78 593.343 409.433 592.512 401.871C591.497 392.602 586.56 384.532 579.315 380.29C579.038 380.106 578.761 379.967 578.485 379.829C578.531 375.218 578.669 370.099 579.223 365.35C580.053 358.387 581.622 353.084 584.114 348.703C584.345 348.334 584.576 347.965 584.806 347.55C587.898 342.755 591.635 339.065 595.881 336.622C599.295 334.685 603.125 333.44 607.37 332.979C607.786 352.115 608.524 370.837 609.631 388.314C610.139 396.568 617.06 403.07 625.412 403.07C626.52 403.07 627.673 403.07 628.781 403.07C619.598 425.065 616.322 450.981 618.537 483.905C611.016 490.13 607.047 498.753 608.339 507.238C608.57 508.898 610 510.143 611.708 510.189C623.982 510.42 636.81 510.42 649.268 510.42C661.681 510.42 674.509 510.42 686.691 510.65H686.737C688.49 510.65 689.967 509.313 690.198 507.561C691.074 499.306 687.06 490.96 679.723 484.735C679.215 451.119 679.677 432.766 691.305 402.609C705.517 402.378 719.822 402.101 734.034 401.64C738.048 408.649 741.14 415.474 743.585 422.299C743.632 422.437 743.678 422.575 743.724 422.714C750.599 442.173 751.799 461.725 751.015 485.611C743.816 491.79 740.032 500.229 741.324 508.529C741.555 510.189 742.986 511.434 744.693 511.48C756.967 511.711 769.795 511.711 782.254 511.711C794.666 511.711 807.494 511.711 819.676 511.941H819.722C821.475 511.941 822.952 510.604 823.183 508.852C824.059 500.69 820.091 492.39 812.847 486.164C813.908 457.252 813.354 437.7 805.464 415.105C805.418 414.828 805.325 414.552 805.187 414.275C803.387 409.249 801.219 404.038 798.634 398.505C800.711 398.366 802.741 398.228 804.818 398.09C812.939 397.49 819.353 390.619 819.445 382.503C819.584 365.857 819.584 348.795 819.584 331.872C830.935 331.641 842.517 328.736 853.268 323.295C853.268 323.295 853.314 323.295 853.314 323.249C863.743 317.992 873.294 310.43 880.908 301.392C882.984 298.948 884.876 296.319 886.538 293.645C886.538 293.645 886.538 293.645 886.538 293.599C893.274 282.854 897.012 270.173 898.027 254.772C898.489 247.717 898.35 239.924 897.704 231.07C898.12 230.747 898.581 230.424 898.996 230.056C904.856 225.029 908.179 216.913 908.04 207.783C907.948 200.082 906.379 189.984 902.365 184.635C900.15 181.96 896.504 180.162 892.536 180.023ZM544.246 327.722L576.547 348.334C574.793 352.069 573.593 356.265 572.763 361.246C560.489 359.862 548.215 358.433 535.94 357.049C537.002 345.706 539.724 336.068 544.246 327.722ZM535.571 364.012C547.707 365.396 559.843 366.779 571.978 368.162C571.748 371.206 571.609 374.249 571.563 377.201C565.98 375.587 559.52 375.079 552.275 375.725C547.569 376.14 541.57 377.201 535.894 379.783C535.525 374.019 535.433 368.808 535.571 364.012ZM585.637 402.793C586.329 409.064 584.806 416.073 581.299 423.082C580.284 425.065 578.761 426.587 577.746 426.541C576.177 426.449 574.609 425.296 574.101 423.82C573.317 421.515 574.378 418.61 575.485 415.52C576.962 411.508 578.623 406.943 576.731 402.24C574.147 395.738 566.995 393.063 561.135 392.694C554.444 392.279 545.123 394.078 540.97 400.441C538.017 404.914 538.801 410.079 539.447 414.644C539.54 415.151 539.586 415.704 539.678 416.212L539.724 416.396C540.232 420.316 540.785 424.42 538.847 426.633C538.017 427.555 536.54 428.109 534.833 428.017C532.941 427.97 531.234 427.186 530.357 426.034C527.911 422.806 526.158 415.105 525.973 406.943C525.835 399.98 528.281 393.617 532.526 389.974C533.264 389.328 534.002 388.775 534.787 388.268C540.462 384.486 547.615 383.103 552.875 382.642C554.721 382.457 556.52 382.411 558.228 382.411C564.18 382.411 569.302 383.38 573.593 385.362C573.593 385.362 573.64 385.362 573.64 385.409C574.378 385.777 575.116 386.146 575.808 386.515C581.115 389.513 584.852 395.784 585.637 402.793ZM580.053 342.386L547.892 321.866C548.907 320.436 549.968 319.053 551.075 317.715C557.305 310.291 564.918 303.928 573.317 299.132C577.654 307.986 581.991 316.885 586.329 325.739L589.651 332.564C586.098 335.1 582.868 338.374 580.053 342.386ZM595.696 329.151L592.558 322.696C588.221 313.796 583.837 304.896 579.5 295.996C588.405 291.939 597.819 289.725 607.047 289.495C606.955 301.714 607.001 314.026 607.186 326.246C603.125 326.615 599.249 327.583 595.696 329.151ZM630.534 418.978C646.177 419.532 661.866 421.1 677.277 423.682C675.016 432.812 673.817 441.435 673.171 450.566C657.159 450.012 641.055 450.519 625.135 452.087C625.874 439.96 627.673 429.031 630.534 418.978ZM624.859 459.05C640.732 457.482 656.882 456.929 672.848 457.482C672.571 464.445 672.571 471.87 672.709 480.216C671.786 479.755 670.864 479.294 669.941 478.879C657.159 473.207 640.086 473.115 627.535 478.648C626.751 478.971 625.966 479.34 625.228 479.755C624.812 472.469 624.674 465.598 624.859 459.05ZM683.276 503.872C674.186 503.733 664.819 503.733 655.59 503.733C653.467 503.733 651.345 503.733 649.222 503.733C637.917 503.733 626.243 503.733 615.03 503.595C615.307 498.108 618.583 492.712 623.982 488.654C624.074 488.562 624.213 488.516 624.305 488.424C626.105 487.133 628.089 485.98 630.304 485.012C641.193 480.216 656.005 480.308 667.126 485.242C669.664 486.349 671.971 487.732 674.001 489.254C674.14 489.346 674.232 489.438 674.37 489.531C679.446 493.496 682.722 498.661 683.276 503.872ZM679.123 416.95C663.85 414.367 648.253 412.753 632.749 412.108C633.81 409.064 635.01 406.113 636.302 403.208C651.945 403.162 667.864 403.07 683.83 402.885C681.984 407.865 680.415 412.523 679.123 416.95ZM749.261 417.826C747.231 412.477 744.739 407.081 741.786 401.594C758.397 400.995 774.917 400.257 791.159 399.196C793.513 404.038 795.497 408.603 797.204 412.984L749.261 417.826ZM807.356 490.776C812.477 494.787 815.708 499.906 816.261 505.117C807.171 504.978 797.804 504.978 788.575 504.978C786.453 504.978 784.33 504.978 782.207 504.978C770.902 504.978 759.228 504.978 748.015 504.84C748.292 499.537 751.338 494.326 756.413 490.361C756.506 490.315 756.598 490.222 756.69 490.13C758.628 488.654 760.843 487.317 763.289 486.257C774.179 481.461 788.991 481.553 800.111 486.487C802.649 487.594 804.956 488.977 807.033 490.545C807.079 490.591 807.217 490.683 807.356 490.776ZM806.064 481.691C805.048 481.138 803.987 480.631 802.88 480.124C790.098 474.452 773.025 474.36 760.474 479.893C759.643 480.262 758.859 480.631 758.074 481.046C758.259 473.161 758.167 465.69 757.659 458.543C773.809 457.805 790.098 458.22 806.202 459.696C806.387 466.428 806.294 473.668 806.064 481.691ZM799.65 419.716C803.341 430.829 805.141 441.205 805.879 452.733C789.683 451.303 773.302 450.934 757.105 451.672C756.136 442.358 754.383 433.412 751.614 424.558L799.65 419.716ZM812.431 382.596C812.385 387.161 808.786 391.034 804.218 391.357C781.884 393.017 758.951 394.124 735.88 394.862C735.833 394.862 735.833 394.862 735.787 394.862C698.78 396.061 661.358 396.291 625.366 396.337C620.706 396.337 616.83 392.694 616.507 388.037C613.507 341.187 613.092 284.791 615.399 237.157C616.23 220.372 617.614 204.279 625.966 191.459C633.949 179.147 646.684 172.599 655.959 169.279C668.741 164.668 682.584 163.285 694.443 162.501C702.979 161.947 711.239 161.671 719.406 161.671C734.403 161.671 749.123 162.593 765.042 164.53C776.255 165.867 791.575 169.648 801.08 179.977C808.878 188.462 812.754 204.463 812.524 227.473C812.293 253.02 812.385 279.488 812.477 305.127C812.524 312.689 812.524 320.344 812.57 328.045C812.524 328.183 812.524 328.367 812.524 328.506C812.524 328.736 812.524 329.013 812.57 329.244C812.616 347.043 812.616 365.073 812.431 382.596ZM819.491 325.093C819.491 318.361 819.445 311.675 819.445 305.034C819.445 299.501 819.399 293.921 819.399 288.342C823.552 287.973 827.428 287.004 831.027 285.483L834.442 292.538C838.641 301.253 842.886 310.015 847.131 318.73C838.133 322.742 828.72 324.909 819.491 325.093ZM875.555 297.103C869.28 304.527 861.62 310.845 853.222 315.594C849.023 306.925 844.824 298.21 840.625 289.495L837.026 282.07C840.625 279.534 843.855 276.26 846.67 272.295L878.739 292.953C877.724 294.382 876.663 295.766 875.555 297.103ZM882.431 287.097L850.177 266.346C851.93 262.611 853.176 258.415 854.006 253.435C866.281 254.864 878.555 256.34 890.829 257.769C889.768 269.159 886.999 278.796 882.431 287.097ZM891.244 250.898C879.108 249.469 866.973 248.039 854.837 246.61C855.114 243.567 855.206 240.523 855.298 237.572C859.359 238.771 863.927 239.37 868.911 239.37C870.757 239.37 872.648 239.278 874.586 239.14C879.293 238.725 885.292 237.71 890.967 235.174C891.336 240.846 891.429 246.057 891.244 250.898ZM894.428 224.983C893.69 225.583 892.951 226.182 892.121 226.689C886.445 230.424 879.293 231.808 873.987 232.223C865.773 232.915 858.898 231.992 853.407 229.502C853.36 229.456 853.268 229.456 853.222 229.41C852.484 229.041 851.745 228.672 851.099 228.303C845.839 225.214 842.102 218.896 841.317 211.887C840.671 205.616 842.194 198.653 845.747 191.644C846.762 189.661 848.331 188.139 849.346 188.232C850.915 188.324 852.484 189.523 852.991 190.998C853.776 193.304 852.714 196.209 851.561 199.299C850.084 203.31 848.423 207.875 850.269 212.579C852.853 219.081 859.959 221.801 865.819 222.17C872.51 222.631 881.831 220.879 886.03 214.516C888.983 210.043 888.245 204.878 887.599 200.313C887.507 199.806 887.46 199.252 887.368 198.745L887.322 198.561C886.814 194.641 886.261 190.537 888.245 188.324C889.075 187.401 890.552 186.848 892.259 186.94C894.151 187.033 895.858 187.77 896.735 188.969C899.181 192.243 900.934 199.898 901.027 208.06C901.165 215.023 898.673 221.34 894.428 224.983Z" fill="#F1F1F1"/>
</g>
<path d="M1615.01 309.026C1607.07 301.09 1593.05 307.001 1588.44 308.943C1579.22 312.83 1568.01 319.491 1555.1 328.75C1542.9 322.88 1529.44 319.778 1515.5 319.778C1491.07 319.778 1468.1 329.291 1450.83 346.565C1422.5 374.893 1416.68 417.332 1433.36 451.463C1412.9 480.743 1407.21 499.273 1415.99 508.049C1418.65 510.711 1422.23 512.043 1426.7 512.043C1430 512.043 1433.79 511.317 1438.03 509.863C1445.68 507.247 1455.12 502.267 1466.1 495.059C1467.86 493.902 1469.66 492.691 1471.47 491.438C1484.81 498.783 1499.85 502.692 1515.5 502.692C1539.93 502.692 1562.89 493.178 1580.17 475.904C1609.36 446.708 1614.65 402.522 1596.03 367.891C1601.87 359.678 1606.73 352.029 1610.45 345.153C1620.06 327.388 1621.55 315.571 1615.01 309.026ZM1425.57 498.435C1424.84 496.122 1426.51 486.04 1440.98 464.26C1443.89 468.344 1447.17 472.244 1450.83 475.905C1453.51 478.588 1456.33 481.084 1459.27 483.386C1434.86 499.531 1426.83 498.722 1425.57 498.435ZM1470.95 475.23C1467.21 472.614 1463.67 469.653 1460.37 466.357C1429.98 435.962 1429.98 386.507 1460.37 356.113C1475.1 341.39 1494.67 333.281 1515.5 333.281C1536.32 333.281 1555.9 341.389 1570.62 356.113C1574.08 359.576 1577.14 363.288 1579.82 367.19C1575.84 372.48 1571.49 377.982 1566.79 383.635C1563.69 382.212 1560.25 381.412 1556.62 381.412C1543.13 381.412 1532.15 392.388 1532.15 405.878C1532.15 410.373 1533.38 414.585 1535.5 418.209C1533.8 419.948 1532.08 421.686 1530.36 423.405C1510.13 443.643 1489.4 461.697 1470.95 475.23ZM1567.58 405.879C1567.58 411.923 1562.66 416.842 1556.62 416.842C1550.57 416.842 1545.66 411.924 1545.66 405.879C1545.66 399.833 1550.57 394.916 1556.62 394.916C1562.66 394.916 1567.58 399.834 1567.58 405.879ZM1570.62 466.357C1555.89 481.08 1536.32 489.189 1515.5 489.189C1504.39 489.189 1493.64 486.882 1483.79 482.497C1501.51 469.061 1520.87 451.994 1539.91 432.953C1541.7 431.162 1543.49 429.352 1545.26 427.539C1548.66 429.328 1552.52 430.345 1556.62 430.345C1570.11 430.345 1581.09 419.37 1581.09 405.879C1581.09 400.912 1579.59 396.288 1577.04 392.425C1580.53 388.227 1583.84 384.108 1586.96 380.087C1599.35 408.605 1593.9 443.073 1570.62 466.357ZM1597.34 340.955C1594.77 345.515 1591.67 350.434 1588.12 355.638C1585.7 352.484 1583.05 349.451 1580.17 346.565C1576.34 342.743 1572.24 339.303 1567.91 336.259C1576.96 330.047 1585.13 325.238 1591.82 322.204C1600.94 318.067 1604.55 318.435 1605.4 318.631C1605.65 319.724 1606.17 325.33 1597.34 340.955Z" fill="#F1F1F1"/>
<g clip-path="url(#clip3_273_196)">
<path d="M1154 346C1108.23 346 1071 383.233 1071 429C1071 474.767 1108.23 512 1154 512C1199.77 512 1237 474.767 1237 429C1237 383.233 1199.77 346 1154 346ZM1104.35 444.091H1207.38C1207.03 445.177 1206.82 446.321 1206.82 447.505V449.75C1206.82 473.673 1183.97 493.136 1155.89 493.136C1127.8 493.136 1104.95 473.673 1104.95 449.75V447.683C1104.95 446.43 1104.73 445.23 1104.35 444.091ZM1215.9 436.232C1215.49 436.33 1215.12 436.485 1214.73 436.621C1214.61 436.606 1214.5 436.545 1214.36 436.545H1097.41C1097.17 436.545 1096.96 436.64 1096.74 436.681C1096.31 436.553 1095.88 436.41 1095.44 436.33C1084.13 434.354 1079.58 424.19 1082.31 406.707C1082.39 405.858 1084.75 387.202 1119.57 387.202C1122 387.202 1124.58 387.292 1127.33 387.485C1127.46 387.496 1127.6 387.5 1127.74 387.492C1127.79 387.504 1132.67 387.342 1137.88 389.228C1148.28 392.993 1159.73 392.993 1170.12 389.228C1175.33 387.342 1180.21 387.5 1180.48 387.496C1223.4 386.595 1225.62 405.843 1225.73 406.941C1227.58 418.768 1227.37 433.448 1215.9 436.232ZM1154 353.545C1179.47 353.545 1201.99 366.267 1215.67 385.655C1207.9 382.113 1196.72 379.634 1180.57 379.958C1180.3 379.924 1174.22 379.721 1167.55 382.135C1158.81 385.304 1149.19 385.304 1140.45 382.135H1140.44C1134.43 379.962 1128.89 379.947 1127.67 379.951C1112.15 378.887 1101.19 380.894 1093.43 384.188C1107.2 365.641 1129.18 353.545 1154 353.545ZM1154 504.455C1114.12 504.455 1081.46 473.337 1078.81 434.123C1083.38 440.846 1090.12 443.065 1094.13 443.77C1096.03 444.098 1097.41 445.743 1097.41 447.683V449.75C1097.41 477.834 1123.64 500.682 1155.89 500.682C1188.13 500.682 1214.36 477.834 1214.36 449.75V447.505C1214.36 445.66 1215.73 444.038 1217.68 443.563C1221.22 442.703 1225.7 440.646 1229.1 435.983C1225.56 474.326 1193.25 504.455 1154 504.455Z" fill="#F1F1F1"/>
<path d="M1135.14 474.273H1172.86C1174.95 474.273 1176.64 472.586 1176.64 470.5C1176.64 468.414 1174.95 466.727 1172.86 466.727H1135.14C1133.05 466.727 1131.36 468.414 1131.36 470.5C1131.36 472.586 1133.05 474.273 1135.14 474.273Z" fill="#F1F1F1"/>
<path d="M1203.05 402.591H1104.95C1098.71 402.591 1093.64 407.669 1093.64 413.909C1093.64 420.149 1098.71 425.227 1104.95 425.227H1203.05C1209.29 425.227 1214.36 420.149 1214.36 413.909C1214.36 407.669 1209.29 402.591 1203.05 402.591ZM1203.05 417.682H1104.95C1102.87 417.682 1101.18 415.992 1101.18 413.909C1101.18 411.826 1102.87 410.136 1104.95 410.136H1203.05C1205.13 410.136 1206.82 411.826 1206.82 413.909C1206.82 415.992 1205.13 417.682 1203.05 417.682Z" fill="#F1F1F1"/>
</g>
</g>
<defs>
<clipPath id="clip0_273_196">
<rect width="1619" height="512" fill="white"/>
</clipPath>
<clipPath id="clip1_273_196">
<rect width="336" height="231" fill="white" transform="translate(21 270)"/>
</clipPath>
<clipPath id="clip2_273_196">
<rect width="389" height="372" fill="white" transform="translate(519 140)"/>
</clipPath>
<clipPath id="clip3_273_196">
<rect width="166" height="166" fill="white" transform="translate(1071 346)"/>
</clipPath>
</defs>
</svg>
