<svg width="1619" height="512" viewBox="0 0 1619 512" fill="none" xmlns="http://www.w3.org/2000/svg">
<g clip-path="url(#clip0_276_634)">
<path d="M767.549 454.549C766.107 454.549 764.916 453.382 764.916 451.941C764.916 450.499 766.057 449.333 767.493 449.333H767.549C768.986 449.333 770.158 450.499 770.158 451.941C770.158 453.382 768.986 454.549 767.549 454.549ZM785.806 438.898C784.365 438.898 783.173 437.732 783.173 436.29C783.173 434.849 784.314 433.682 785.75 433.682H785.806C787.243 433.682 788.415 434.849 788.415 436.29C788.415 436.982 788.14 437.645 787.651 438.134C787.161 438.624 786.498 438.898 785.806 438.898ZM785.806 412.816C784.365 412.816 783.173 411.649 783.173 410.208C783.173 408.766 784.314 407.6 785.75 407.6H785.806C787.243 407.6 788.415 408.766 788.415 410.208C788.415 411.649 787.243 412.816 785.806 412.816ZM797.096 432.378C795.653 432.378 794.462 431.212 794.462 429.77C794.462 428.328 795.603 427.162 797.04 427.162H797.096C797.787 427.162 798.451 427.437 798.94 427.926C799.429 428.415 799.703 429.078 799.704 429.77C799.704 430.461 799.429 431.125 798.94 431.614C798.451 432.103 797.787 432.378 797.096 432.378ZM774.507 419.337C773.066 419.337 771.874 418.17 771.874 416.729C771.874 415.287 773.015 414.121 774.451 414.121H774.507C775.199 414.121 775.862 414.396 776.351 414.885C776.84 415.374 777.115 416.037 777.116 416.729C777.115 417.42 776.84 418.084 776.351 418.573C775.862 419.062 775.199 419.336 774.507 419.337ZM797.096 419.337C795.653 419.337 794.462 418.17 794.462 416.729C794.462 415.287 795.603 414.121 797.04 414.121H797.096C797.787 414.121 798.451 414.396 798.94 414.885C799.429 415.374 799.703 416.037 799.704 416.729C799.703 417.42 799.429 418.083 798.94 418.572C798.451 419.061 797.787 419.336 797.096 419.337ZM774.507 432.378C773.066 432.378 771.874 431.212 771.874 429.77C771.874 428.328 773.015 427.162 774.451 427.162H774.507C775.199 427.162 775.862 427.437 776.351 427.926C776.84 428.415 777.115 429.078 777.116 429.77C777.115 430.461 776.84 431.125 776.351 431.614C775.862 432.103 775.199 432.378 774.507 432.378ZM663.06 501.497C662.717 501.498 662.378 501.43 662.062 501.299C661.745 501.168 661.457 500.976 661.215 500.734C660.973 500.492 660.781 500.204 660.65 499.888C660.519 499.571 660.452 499.232 660.452 498.889V331.962C660.452 330.52 661.618 329.353 663.06 329.353C664.502 329.353 665.668 330.52 665.668 331.962V498.889C665.668 499.232 665.601 499.571 665.47 499.888C665.339 500.204 665.147 500.492 664.905 500.734C664.662 500.976 664.375 501.168 664.058 501.299C663.742 501.43 663.403 501.498 663.06 501.497ZM908.237 501.497C907.895 501.498 907.556 501.43 907.239 501.299C906.923 501.168 906.635 500.976 906.393 500.734C906.151 500.492 905.958 500.204 905.827 499.888C905.696 499.571 905.629 499.232 905.629 498.889V331.962C905.629 331.619 905.696 331.28 905.827 330.963C905.958 330.647 906.15 330.359 906.393 330.117C906.635 329.874 906.923 329.682 907.239 329.551C907.556 329.42 907.895 329.353 908.237 329.353C908.58 329.353 908.919 329.42 909.236 329.551C909.553 329.682 909.84 329.874 910.083 330.117C910.325 330.359 910.517 330.647 910.648 330.963C910.779 331.28 910.846 331.619 910.846 331.962V498.889C910.846 499.232 910.779 499.571 910.648 499.888C910.517 500.204 910.325 500.492 910.082 500.734C909.84 500.976 909.553 501.168 909.236 501.299C908.919 501.43 908.58 501.498 908.237 501.497Z" fill="#F1F1F1"/>
<path d="M663.06 334.57C662.579 334.57 662.108 334.437 661.698 334.186C661.288 333.935 660.956 333.576 660.737 333.148C660.581 332.843 660.486 332.511 660.459 332.169C660.432 331.827 660.472 331.484 660.578 331.158C660.683 330.832 660.852 330.53 661.074 330.269C661.297 330.009 661.568 329.794 661.873 329.639L784.462 267.04C785.078 266.729 785.793 266.674 786.45 266.887C787.108 267.099 787.654 267.563 787.972 268.176C788.128 268.481 788.223 268.814 788.25 269.156C788.277 269.497 788.237 269.841 788.132 270.167C788.026 270.493 787.857 270.795 787.635 271.055C787.413 271.316 787.141 271.53 786.836 271.686L664.247 334.284C663.88 334.472 663.473 334.57 663.06 334.57Z" fill="#F1F1F1"/>
<path d="M908.238 334.57C907.825 334.569 907.418 334.472 907.051 334.284L784.462 271.686C784.157 271.53 783.885 271.316 783.663 271.055C783.44 270.794 783.272 270.492 783.166 270.166C783.061 269.84 783.021 269.497 783.048 269.155C783.075 268.814 783.17 268.481 783.326 268.176C783.642 267.561 784.189 267.097 784.847 266.884C785.504 266.671 786.219 266.727 786.836 267.04L909.425 329.638C909.731 329.794 910.002 330.009 910.224 330.269C910.447 330.53 910.615 330.832 910.721 331.158C910.826 331.484 910.867 331.827 910.839 332.169C910.812 332.51 910.717 332.843 910.561 333.148C910.342 333.576 910.009 333.935 909.599 334.186C909.189 334.437 908.718 334.569 908.238 334.57ZM642.194 337.178C641.719 337.178 641.254 337.049 640.847 336.804C640.44 336.559 640.108 336.207 639.886 335.787C639.564 335.175 639.497 334.46 639.702 333.8C639.906 333.139 640.365 332.586 640.976 332.263L784.431 256.622C785.044 256.302 785.758 256.238 786.418 256.442C787.078 256.646 787.631 257.103 787.956 257.712C788.279 258.325 788.345 259.04 788.141 259.701C787.936 260.362 787.478 260.915 786.866 261.238L643.411 336.878C643.036 337.075 642.618 337.178 642.194 337.178Z" fill="#F1F1F1"/>
<path d="M929.104 337.178C928.68 337.179 928.263 337.076 927.887 336.878L784.431 261.238C783.819 260.915 783.361 260.362 783.157 259.701C782.952 259.04 783.019 258.325 783.341 257.713C783.666 257.102 784.219 256.645 784.879 256.441C785.539 256.237 786.253 256.302 786.866 256.622L930.321 332.263C930.717 332.263 931.108 332.353 931.464 332.526C931.82 332.7 932.132 332.952 932.377 333.264C932.621 333.575 932.791 333.939 932.874 334.326C932.956 334.713 932.95 335.114 932.855 335.499C932.76 335.883 932.578 336.241 932.324 336.545C932.07 336.849 931.75 337.091 931.389 337.253C931.027 337.415 930.634 337.492 930.238 337.479C929.842 337.466 929.454 337.363 929.104 337.178ZM691.751 303.271C691.408 303.271 691.069 303.204 690.752 303.073C690.436 302.942 690.148 302.749 689.906 302.507C689.664 302.265 689.472 301.977 689.341 301.661C689.21 301.344 689.142 301.005 689.143 300.662V274.58C689.143 273.138 690.309 271.971 691.751 271.971C693.192 271.971 694.359 273.138 694.359 274.58V300.662C694.36 301.005 694.292 301.344 694.161 301.661C694.03 301.977 693.838 302.265 693.596 302.507C693.354 302.749 693.066 302.942 692.749 303.073C692.433 303.204 692.093 303.271 691.751 303.271ZM707.401 292.838C707.059 292.838 706.719 292.771 706.403 292.64C706.086 292.509 705.798 292.317 705.556 292.074C705.314 291.832 705.122 291.544 704.991 291.228C704.86 290.911 704.792 290.572 704.792 290.229V274.58C704.792 273.138 705.959 271.971 707.401 271.971C708.843 271.971 710.009 273.138 710.009 274.58V290.229C710.009 290.572 709.942 290.911 709.811 291.228C709.68 291.544 709.488 291.832 709.246 292.074C709.004 292.317 708.716 292.509 708.4 292.64C708.083 292.771 707.744 292.838 707.401 292.838Z" fill="#F1F1F1"/>
<path d="M707.401 277.188H691.751C690.31 277.188 689.143 276.021 689.143 274.579C689.143 273.138 690.31 271.971 691.751 271.971H707.401C708.843 271.971 710.009 273.138 710.009 274.579C710.009 276.021 708.843 277.188 707.401 277.188ZM923.887 511.931H647.41C645.969 511.931 644.802 510.764 644.802 509.323C644.802 507.881 645.969 506.715 647.41 506.715H923.888C925.33 506.715 926.496 507.881 926.496 509.323C926.496 510.764 925.329 511.931 923.887 511.931ZM824.773 501.497H746.525C745.083 501.497 743.917 500.331 743.917 498.889C743.917 497.447 745.083 496.28 746.525 496.28H824.773C826.214 496.28 827.382 497.447 827.382 498.889C827.382 500.331 826.214 501.497 824.773 501.497ZM819.557 491.064H751.742C750.3 491.064 749.133 489.898 749.133 488.456C749.133 487.015 750.3 485.848 751.742 485.848H819.557C820.998 485.848 822.165 487.015 822.165 488.456C822.165 489.898 820.998 491.064 819.557 491.064Z" fill="#F1F1F1"/>
<path d="M756.958 491.064C756.615 491.064 756.276 490.997 755.959 490.866C755.643 490.735 755.355 490.543 755.113 490.301C754.871 490.059 754.679 489.771 754.548 489.454C754.417 489.138 754.349 488.799 754.35 488.456V394.558C754.35 393.116 755.516 391.95 756.958 391.95C758.399 391.95 759.566 393.116 759.566 394.558V488.456C759.567 488.799 759.499 489.138 759.368 489.455C759.237 489.771 759.045 490.059 758.803 490.301C758.56 490.543 758.273 490.735 757.956 490.866C757.64 490.997 757.3 491.064 756.958 491.064Z" fill="#F1F1F1"/>
<path d="M814.34 397.166H756.958C756.616 397.167 756.277 397.099 755.96 396.968C755.644 396.838 755.356 396.645 755.114 396.403C754.871 396.161 754.679 395.873 754.548 395.557C754.417 395.24 754.35 394.901 754.35 394.558C754.35 394.216 754.417 393.877 754.548 393.56C754.679 393.243 754.871 392.956 755.114 392.713C755.356 392.471 755.643 392.279 755.96 392.148C756.277 392.017 756.616 391.95 756.958 391.95H814.34C814.682 391.95 815.022 392.017 815.338 392.148C815.655 392.279 815.942 392.471 816.185 392.713C816.427 392.956 816.619 393.243 816.75 393.56C816.881 393.877 816.948 394.216 816.948 394.558C816.948 394.901 816.881 395.24 816.75 395.557C816.619 395.873 816.427 396.161 816.185 396.403C815.942 396.645 815.655 396.838 815.338 396.968C815.022 397.099 814.682 397.167 814.34 397.166Z" fill="#F1F1F1"/>
<path d="M814.34 491.064C813.997 491.065 813.658 490.997 813.341 490.866C813.025 490.735 812.737 490.543 812.495 490.301C812.253 490.059 812.061 489.771 811.93 489.455C811.799 489.138 811.731 488.799 811.732 488.456V394.559C811.732 393.116 812.898 391.95 814.34 391.95C815.781 391.95 816.948 393.116 816.948 394.559V488.456C816.948 488.799 816.881 489.138 816.75 489.455C816.619 489.771 816.427 490.059 816.185 490.301C815.942 490.543 815.655 490.735 815.338 490.866C815.022 490.997 814.682 491.065 814.34 491.064ZM887.372 449.333H835.206C834.863 449.333 834.524 449.265 834.207 449.134C833.891 449.003 833.603 448.811 833.361 448.569C833.119 448.327 832.927 448.039 832.796 447.722C832.665 447.406 832.597 447.067 832.598 446.724V394.559C832.597 394.216 832.665 393.877 832.796 393.56C832.927 393.244 833.119 392.956 833.361 392.714C833.603 392.471 833.891 392.279 834.207 392.148C834.524 392.017 834.863 391.95 835.206 391.95H887.372C887.714 391.95 888.054 392.017 888.37 392.148C888.687 392.279 888.974 392.471 889.216 392.714C889.459 392.956 889.651 393.244 889.782 393.56C889.913 393.877 889.98 394.216 889.98 394.559V446.724C889.98 447.067 889.913 447.406 889.782 447.722C889.651 448.039 889.459 448.327 889.216 448.569C888.974 448.811 888.687 449.003 888.37 449.134C888.054 449.266 887.714 449.333 887.372 449.333ZM837.814 444.116H884.764V397.167H837.814V444.116ZM885.584 345.9C881.957 345.9 877.58 345.232 873.622 342.808C869.205 340.108 866.169 335.792 864.564 329.954C861.319 330.673 855.563 331.544 849.185 330.632C840.509 329.394 829.128 324.575 823.071 308.864C814.503 310.117 800.377 307.734 796.158 290.861C795.992 290.189 796.098 289.479 796.454 288.886C796.81 288.293 797.387 287.865 798.059 287.697C799.429 287.356 800.871 288.197 801.222 289.597C805.746 307.713 823.388 303.535 824.142 303.347C825.461 303.041 826.821 303.764 827.25 305.053C831.238 317.02 838.865 323.887 849.919 325.466C858.355 326.678 865.609 324.295 865.681 324.269C866.035 324.154 866.41 324.115 866.78 324.155C867.151 324.194 867.509 324.311 867.831 324.499C868.151 324.688 868.427 324.944 868.641 325.249C868.854 325.554 869 325.901 869.068 326.267C870.133 331.977 872.568 336.038 876.318 338.34C882.94 342.421 891.763 339.919 891.85 339.894C892.179 339.797 892.524 339.765 892.865 339.801C893.206 339.837 893.536 339.94 893.837 340.104C894.138 340.269 894.404 340.491 894.619 340.758C894.834 341.025 894.994 341.332 895.09 341.661C895.283 342.323 895.207 343.035 894.878 343.64C894.548 344.246 893.993 344.697 893.333 344.896C893.087 344.967 889.862 345.9 885.584 345.9Z" fill="#F1F1F1"/>
<path d="M874.331 347.611C873.815 347.612 873.31 347.459 872.881 347.172C872.452 346.886 872.118 346.479 871.92 346.002C871.723 345.525 871.671 345.001 871.772 344.495C871.873 343.989 872.121 343.524 872.486 343.159L875.686 339.96C875.928 339.718 876.215 339.526 876.532 339.395C876.848 339.263 877.187 339.196 877.53 339.196C877.872 339.196 878.211 339.263 878.528 339.395C878.844 339.526 879.132 339.718 879.374 339.96C879.616 340.202 879.808 340.49 879.939 340.806C880.071 341.123 880.138 341.462 880.138 341.804C880.138 342.147 880.071 342.486 879.939 342.802C879.808 343.119 879.616 343.406 879.374 343.648L876.175 346.848C875.933 347.09 875.645 347.283 875.329 347.414C875.012 347.545 874.673 347.612 874.331 347.611ZM806.516 311.096C805.999 311.096 805.495 310.944 805.066 310.657C804.636 310.37 804.302 309.963 804.104 309.486C803.907 309.009 803.855 308.485 803.956 307.978C804.057 307.472 804.306 307.008 804.671 306.643L808.426 302.889C808.668 302.646 808.955 302.454 809.272 302.323C809.588 302.192 809.927 302.125 810.27 302.125C810.612 302.125 810.952 302.192 811.268 302.323C811.584 302.454 811.872 302.646 812.114 302.889C812.356 303.131 812.548 303.418 812.68 303.735C812.811 304.051 812.878 304.39 812.878 304.733C812.878 305.075 812.811 305.415 812.68 305.731C812.548 306.047 812.356 306.335 812.114 306.577L808.359 310.331C808.117 310.574 807.83 310.766 807.514 310.898C807.197 311.029 806.858 311.096 806.516 311.096ZM850.855 334.682C850.513 334.682 850.174 334.615 849.857 334.484C849.54 334.353 849.253 334.161 849.011 333.919C848.768 333.676 848.576 333.389 848.445 333.072C848.314 332.756 848.247 332.416 848.247 332.074V328.212C848.247 326.77 849.414 325.604 850.855 325.604C852.297 325.604 853.463 326.77 853.463 328.212V332.074C853.464 332.416 853.396 332.756 853.265 333.072C853.134 333.389 852.942 333.676 852.7 333.919C852.458 334.161 852.17 334.353 851.854 334.484C851.537 334.615 851.198 334.682 850.855 334.682ZM827.381 321.529C827.039 321.529 826.7 321.462 826.383 321.331C826.067 321.199 825.779 321.007 825.537 320.764C825.295 320.522 825.103 320.235 824.972 319.918C824.841 319.602 824.773 319.263 824.773 318.92C824.773 318.578 824.841 318.239 824.972 317.922C825.103 317.606 825.295 317.319 825.537 317.077L828.145 314.468C828.387 314.224 828.675 314.031 828.992 313.899C829.308 313.767 829.648 313.699 829.991 313.698C830.334 313.698 830.674 313.765 830.991 313.896C831.308 314.027 831.597 314.22 831.839 314.462C832.082 314.705 832.274 314.993 832.405 315.31C832.536 315.627 832.604 315.967 832.603 316.31C832.603 316.653 832.534 316.993 832.402 317.31C832.27 317.627 832.077 317.914 831.834 318.156L829.225 320.764C828.983 321.007 828.696 321.199 828.38 321.331C828.063 321.462 827.724 321.529 827.381 321.529ZM685.714 345.9C681.435 345.9 678.21 344.967 677.965 344.896C677.305 344.697 676.75 344.246 676.421 343.64C676.091 343.035 676.015 342.323 676.208 341.661C676.304 341.332 676.464 341.025 676.679 340.757C676.894 340.49 677.159 340.268 677.46 340.104C677.762 339.939 678.092 339.836 678.433 339.8C678.774 339.764 679.119 339.796 679.448 339.894C679.53 339.92 688.353 342.421 694.981 338.34C698.731 336.038 701.165 331.977 702.23 326.267C702.299 325.901 702.445 325.554 702.659 325.25C702.872 324.945 703.148 324.689 703.468 324.499C703.789 324.311 704.146 324.193 704.516 324.154C704.886 324.114 705.26 324.153 705.613 324.269C706.779 324.657 734.584 333.449 744.05 305.053C744.477 303.764 745.807 303.026 747.152 303.347C747.895 303.54 765.573 307.621 770.076 289.597C770.423 288.197 771.823 287.36 773.24 287.697C773.911 287.865 774.488 288.293 774.844 288.886C775.2 289.479 775.307 290.189 775.14 290.861C770.917 307.728 756.806 310.112 748.227 308.864C742.17 324.575 730.79 329.394 722.114 330.632C715.731 331.544 709.975 330.673 706.734 329.954C705.13 335.792 702.094 340.108 697.677 342.808C693.718 345.232 689.342 345.9 685.714 345.9Z" fill="#F1F1F1"/>
<path d="M696.968 347.611C696.625 347.612 696.286 347.545 695.969 347.413C695.653 347.282 695.365 347.09 695.123 346.847L691.924 343.648C690.905 342.629 690.905 340.978 691.924 339.959C692.943 338.94 694.594 338.94 695.613 339.959L698.812 343.158C699.177 343.523 699.426 343.988 699.527 344.494C699.628 345 699.576 345.525 699.379 346.002C699.181 346.478 698.847 346.886 698.417 347.172C697.988 347.459 697.484 347.612 696.968 347.611ZM764.783 311.096C764.44 311.096 764.101 311.029 763.784 310.897C763.468 310.766 763.18 310.574 762.938 310.331L759.184 306.577C758.942 306.335 758.75 306.047 758.619 305.731C758.487 305.414 758.42 305.075 758.42 304.733C758.42 304.39 758.487 304.051 758.619 303.735C758.75 303.418 758.942 303.131 759.184 302.889C759.426 302.646 759.714 302.454 760.03 302.323C760.346 302.192 760.686 302.125 761.028 302.125C761.37 302.125 761.71 302.192 762.026 302.323C762.342 302.454 762.63 302.646 762.872 302.889L766.627 306.643C766.992 307.007 767.241 307.472 767.342 307.978C767.443 308.484 767.391 309.009 767.194 309.486C766.996 309.963 766.662 310.37 766.233 310.657C765.803 310.943 765.299 311.096 764.783 311.096ZM720.442 334.682C720.1 334.682 719.76 334.615 719.444 334.484C719.127 334.353 718.84 334.161 718.597 333.919C718.355 333.676 718.163 333.389 718.032 333.072C717.901 332.756 717.834 332.416 717.834 332.074V328.212C717.834 326.77 719 325.604 720.442 325.604C721.884 325.604 723.051 326.77 723.051 328.212V332.074C723.051 332.416 722.984 332.756 722.852 333.072C722.721 333.389 722.529 333.676 722.287 333.918C722.045 334.161 721.757 334.353 721.44 334.484C721.124 334.615 720.785 334.682 720.442 334.682ZM743.917 321.529C743.574 321.529 743.235 321.462 742.918 321.33C742.602 321.199 742.314 321.007 742.073 320.764L739.464 318.156C739.222 317.914 739.03 317.626 738.899 317.31C738.768 316.994 738.7 316.654 738.7 316.312C738.7 315.969 738.768 315.63 738.899 315.314C739.03 314.997 739.222 314.71 739.464 314.468C739.707 314.225 739.994 314.033 740.31 313.902C740.627 313.771 740.966 313.704 741.308 313.704C741.651 313.704 741.99 313.771 742.306 313.902C742.623 314.033 742.91 314.225 743.152 314.468L745.761 317.076C746.003 317.319 746.195 317.606 746.326 317.922C746.457 318.239 746.525 318.578 746.525 318.92C746.525 319.263 746.457 319.602 746.326 319.918C746.195 320.235 746.003 320.522 745.761 320.764C745.519 321.007 745.232 321.199 744.915 321.33C744.599 321.462 744.259 321.529 743.917 321.529Z" fill="#F1F1F1"/>
<path d="M785.648 251.105C785.306 251.105 784.967 251.038 784.65 250.907C784.333 250.776 784.046 250.584 783.804 250.341C783.561 250.099 783.369 249.812 783.238 249.495C783.107 249.179 783.04 248.839 783.04 248.497V238.064C783.04 236.622 784.207 235.455 785.648 235.455C787.09 235.455 788.257 236.622 788.257 238.064V248.497C788.257 248.839 788.19 249.179 788.059 249.495C787.928 249.812 787.736 250.099 787.493 250.342C787.251 250.584 786.963 250.776 786.647 250.907C786.33 251.038 785.991 251.105 785.648 251.105Z" fill="#F1F1F1"/>
<path d="M803.907 240.672H767.391C765.949 240.672 764.783 239.505 764.783 238.064C764.783 236.622 765.949 235.455 767.391 235.455H803.906C805.348 235.455 806.515 236.622 806.515 238.064C806.515 239.505 805.349 240.672 803.907 240.672Z" fill="#F1F1F1"/>
<path d="M803.907 240.672C803.423 240.672 802.948 240.536 802.536 240.282C802.124 240.027 801.791 239.663 801.574 239.23L791.141 218.365C790.832 217.746 790.782 217.03 791 216.373C791.219 215.717 791.689 215.175 792.308 214.865C792.614 214.711 792.947 214.62 793.289 214.595C793.631 214.571 793.974 214.614 794.299 214.722C794.624 214.831 794.925 215.002 795.183 215.227C795.442 215.451 795.654 215.725 795.807 216.031L806.24 236.898C806.549 237.517 806.6 238.233 806.381 238.889C806.162 239.545 805.692 240.088 805.073 240.398C804.711 240.579 804.312 240.673 803.907 240.672ZM767.391 240.672C766.946 240.672 766.509 240.557 766.121 240.341C765.733 240.124 765.407 239.812 765.174 239.434C764.94 239.056 764.807 238.624 764.787 238.18C764.766 237.737 764.86 237.295 765.058 236.897L775.491 216.031C776.138 214.747 777.706 214.222 778.991 214.864C779.609 215.174 780.079 215.717 780.298 216.373C780.516 217.029 780.466 217.745 780.157 218.364L769.724 239.23C769.507 239.663 769.174 240.027 768.762 240.282C768.35 240.536 767.875 240.672 767.391 240.672ZM798.689 209.373H772.607C771.166 209.373 769.999 208.206 769.999 206.764C769.999 205.322 771.166 204.155 772.607 204.155H798.689C800.132 204.155 801.298 205.322 801.298 206.764C801.298 208.206 800.132 209.373 798.689 209.373Z" fill="#F1F1F1"/>
<path d="M798.689 209.373C798.205 209.372 797.731 209.237 797.319 208.982C796.907 208.728 796.574 208.364 796.357 207.931L783.316 181.848C783.007 181.229 782.956 180.513 783.175 179.857C783.394 179.201 783.864 178.658 784.482 178.348C784.788 178.195 785.122 178.103 785.464 178.079C785.806 178.054 786.149 178.098 786.474 178.206C786.799 178.314 787.1 178.486 787.358 178.711C787.617 178.935 787.829 179.209 787.982 179.515L801.023 205.598C801.332 206.217 801.382 206.933 801.164 207.589C800.945 208.246 800.475 208.788 799.856 209.098C799.494 209.279 799.095 209.373 798.689 209.373Z" fill="#F1F1F1"/>
<path d="M772.607 208.557C772.205 208.557 771.792 208.465 771.41 208.267C770.795 207.949 770.332 207.4 770.122 206.741C769.912 206.082 769.973 205.367 770.29 204.752L783.331 179.484C783.993 178.205 785.573 177.696 786.846 178.363C787.461 178.681 787.924 179.23 788.134 179.889C788.345 180.548 788.285 181.264 787.968 181.879L774.925 207.146C774.706 207.571 774.373 207.928 773.964 208.177C773.555 208.425 773.086 208.557 772.607 208.557Z" fill="#F1F1F1"/>
<path d="M785.648 444.116C774.14 444.116 764.783 434.757 764.783 423.25C764.783 411.741 774.14 402.383 785.648 402.383C797.157 402.383 806.515 411.742 806.515 423.25C806.516 434.757 797.157 444.116 785.648 444.116ZM785.648 407.599C777.019 407.599 769.999 414.619 769.999 423.249C769.999 431.879 777.019 438.898 785.648 438.898C794.278 438.898 801.298 431.878 801.298 423.249C801.299 414.619 794.279 407.599 785.648 407.599Z" fill="#F1F1F1"/>
<path d="M785.648 433.682C779.897 433.682 775.215 429 775.215 423.249C775.215 417.498 779.897 412.816 785.648 412.816C791.4 412.816 796.081 417.498 796.081 423.249C796.081 429.001 791.401 433.682 785.648 433.682ZM785.648 418.033C782.77 418.033 780.432 420.371 780.432 423.249C780.432 426.127 782.77 428.465 785.648 428.465C788.527 428.465 790.865 426.127 790.865 423.249C790.865 420.371 788.527 418.033 785.648 418.033Z" fill="#F1F1F1"/>
<path d="M861.288 438.898C860.946 438.899 860.607 438.831 860.29 438.7C859.973 438.569 859.686 438.377 859.444 438.135C859.201 437.893 859.009 437.605 858.878 437.289C858.747 436.972 858.68 436.633 858.68 436.29V404.992C858.68 403.55 859.847 402.383 861.288 402.383C862.73 402.383 863.897 403.55 863.897 404.992V436.29C863.897 436.633 863.83 436.972 863.699 437.289C863.568 437.605 863.376 437.893 863.133 438.135C862.891 438.377 862.603 438.569 862.287 438.7C861.97 438.831 861.631 438.899 861.288 438.898Z" fill="#F1F1F1"/>
<path d="M876.939 423.249H845.639C845.297 423.25 844.957 423.182 844.641 423.051C844.324 422.92 844.036 422.728 843.794 422.486C843.552 422.244 843.36 421.956 843.229 421.639C843.098 421.323 843.03 420.983 843.031 420.641C843.03 420.298 843.098 419.959 843.229 419.642C843.36 419.326 843.552 419.038 843.794 418.796C844.037 418.554 844.324 418.362 844.641 418.231C844.957 418.1 845.297 418.032 845.639 418.033H876.938C877.281 418.032 877.62 418.1 877.936 418.231C878.253 418.362 878.541 418.554 878.783 418.796C879.025 419.038 879.217 419.326 879.348 419.642C879.479 419.959 879.546 420.298 879.546 420.641C879.547 420.983 879.479 421.323 879.349 421.639C879.218 421.956 879.026 422.244 878.783 422.486C878.541 422.728 878.254 422.92 877.937 423.051C877.621 423.182 877.281 423.25 876.939 423.249Z" fill="#F1F1F1"/>
<path d="M736.092 449.332H683.926C683.583 449.333 683.244 449.265 682.927 449.134C682.611 449.003 682.323 448.811 682.081 448.569C681.839 448.326 681.647 448.039 681.516 447.722C681.385 447.406 681.317 447.066 681.318 446.724V394.558C681.317 394.216 681.385 393.877 681.516 393.56C681.647 393.243 681.839 392.956 682.081 392.713C682.323 392.471 682.611 392.279 682.927 392.148C683.244 392.017 683.583 391.95 683.926 391.95H736.092C736.434 391.95 736.774 392.017 737.09 392.148C737.407 392.279 737.694 392.471 737.937 392.713C738.179 392.956 738.371 393.243 738.502 393.56C738.633 393.877 738.7 394.216 738.7 394.558V446.724C738.7 447.066 738.633 447.406 738.502 447.722C738.371 448.039 738.179 448.326 737.937 448.569C737.694 448.811 737.407 449.003 737.09 449.134C736.774 449.265 736.434 449.333 736.092 449.332ZM686.535 444.116H733.484V397.166H686.535V444.116Z" fill="#F1F1F1"/>
<path d="M710.009 438.898C709.667 438.899 709.327 438.831 709.011 438.7C708.694 438.569 708.407 438.377 708.164 438.135C707.922 437.893 707.73 437.605 707.599 437.289C707.468 436.972 707.401 436.633 707.401 436.29V404.992C707.401 403.55 708.568 402.383 710.009 402.383C711.451 402.383 712.617 403.55 712.617 404.992V436.29C712.618 436.633 712.55 436.972 712.419 437.289C712.288 437.605 712.096 437.893 711.854 438.135C711.612 438.377 711.324 438.569 711.008 438.7C710.691 438.831 710.352 438.899 710.009 438.898Z" fill="#F1F1F1"/>
<path d="M725.659 423.249H694.359C694.017 423.25 693.678 423.182 693.361 423.051C693.044 422.92 692.757 422.728 692.514 422.486C692.272 422.244 692.08 421.956 691.949 421.639C691.818 421.323 691.751 420.983 691.751 420.641C691.751 420.298 691.818 419.959 691.949 419.642C692.08 419.326 692.272 419.038 692.514 418.796C692.757 418.554 693.044 418.362 693.361 418.231C693.678 418.1 694.017 418.032 694.359 418.033H725.659C726.001 418.032 726.341 418.1 726.657 418.231C726.974 418.362 727.261 418.554 727.504 418.796C727.746 419.038 727.938 419.326 728.069 419.642C728.2 419.959 728.267 420.298 728.267 420.641C728.267 420.983 728.2 421.323 728.069 421.639C727.938 421.956 727.746 422.243 727.504 422.486C727.261 422.728 726.974 422.92 726.657 423.051C726.341 423.182 726.002 423.25 725.659 423.249Z" fill="#F1F1F1"/>
<path d="M785.648 376.3C771.268 376.3 759.566 364.598 759.566 350.217C759.566 335.838 771.268 324.137 785.648 324.137C800.03 324.137 811.731 335.838 811.731 350.217C811.732 364.598 800.03 376.3 785.648 376.3ZM785.648 329.354C774.14 329.354 764.783 338.712 764.783 350.217C764.783 361.725 774.14 371.083 785.648 371.083C797.157 371.083 806.515 361.725 806.515 350.217C806.516 338.711 797.157 329.354 785.648 329.354Z" fill="#F1F1F1"/>
<path d="M887.372 386.734H835.206C834.863 386.734 834.524 386.667 834.207 386.536C833.891 386.405 833.603 386.212 833.361 385.97C833.119 385.728 832.927 385.44 832.796 385.124C832.665 384.807 832.597 384.468 832.598 384.125C832.598 383.783 832.665 383.443 832.796 383.127C832.927 382.811 833.119 382.523 833.361 382.281C833.604 382.039 833.891 381.846 834.208 381.715C834.524 381.584 834.863 381.517 835.206 381.517H887.372C887.714 381.517 888.053 381.584 888.37 381.715C888.686 381.846 888.974 382.038 889.216 382.281C889.458 382.523 889.651 382.81 889.782 383.127C889.913 383.443 889.98 383.783 889.98 384.125C889.98 384.468 889.913 384.807 889.782 385.124C889.651 385.44 889.459 385.728 889.216 385.97C888.974 386.212 888.687 386.405 888.37 386.536C888.054 386.667 887.714 386.734 887.372 386.734Z" fill="#F1F1F1"/>
<path d="M840.423 386.734C840.08 386.734 839.741 386.666 839.424 386.535C839.108 386.404 838.82 386.212 838.578 385.97C838.336 385.728 838.143 385.44 838.012 385.123C837.881 384.807 837.814 384.467 837.814 384.125V381.517C837.814 380.075 838.981 378.909 840.423 378.909C841.864 378.909 843.031 380.075 843.031 381.517V384.125C843.031 384.467 842.964 384.807 842.833 385.123C842.702 385.44 842.51 385.728 842.267 385.97C842.025 386.212 841.738 386.404 841.421 386.535C841.104 386.666 840.765 386.734 840.423 386.734ZM850.855 386.734C850.513 386.734 850.174 386.666 849.857 386.535C849.541 386.404 849.253 386.212 849.011 385.97C848.768 385.728 848.576 385.44 848.445 385.123C848.314 384.807 848.247 384.467 848.247 384.125V381.517C848.247 380.075 849.414 378.909 850.855 378.909C852.297 378.909 853.464 380.075 853.464 381.517V384.125C853.464 384.467 853.397 384.807 853.266 385.123C853.135 385.44 852.942 385.728 852.7 385.97C852.458 386.212 852.17 386.404 851.854 386.535C851.537 386.666 851.198 386.734 850.855 386.734ZM861.288 386.734C860.946 386.734 860.607 386.666 860.29 386.535C859.973 386.404 859.686 386.212 859.444 385.97C859.201 385.728 859.009 385.44 858.878 385.123C858.747 384.807 858.68 384.467 858.68 384.125V381.517C858.68 380.075 859.847 378.909 861.288 378.909C862.73 378.909 863.897 380.075 863.897 381.517V384.125C863.897 384.467 863.83 384.807 863.699 385.123C863.568 385.44 863.376 385.728 863.133 385.97C862.891 386.212 862.604 386.404 862.287 386.535C861.97 386.666 861.631 386.734 861.288 386.734ZM871.722 386.734C871.379 386.734 871.04 386.666 870.724 386.535C870.407 386.404 870.119 386.212 869.877 385.97C869.635 385.728 869.443 385.44 869.312 385.123C869.181 384.807 869.114 384.467 869.114 384.125V381.517C869.114 381.174 869.181 380.835 869.312 380.518C869.443 380.202 869.635 379.914 869.877 379.672C870.12 379.43 870.407 379.238 870.724 379.107C871.04 378.976 871.379 378.909 871.722 378.909C872.065 378.908 872.404 378.976 872.72 379.107C873.037 379.238 873.325 379.43 873.567 379.672C873.809 379.914 874.001 380.202 874.132 380.518C874.264 380.835 874.331 381.174 874.331 381.517V384.125C874.331 384.467 874.264 384.807 874.133 385.123C874.002 385.44 873.809 385.728 873.567 385.97C873.325 386.212 873.037 386.404 872.721 386.535C872.404 386.666 872.065 386.734 871.722 386.734ZM882.156 386.734C881.813 386.734 881.474 386.666 881.157 386.535C880.84 386.404 880.553 386.212 880.31 385.97C880.068 385.728 879.876 385.44 879.745 385.123C879.614 384.807 879.547 384.467 879.547 384.125V381.517C879.547 381.174 879.614 380.835 879.745 380.518C879.876 380.202 880.068 379.914 880.311 379.672C880.553 379.43 880.841 379.238 881.157 379.107C881.474 378.976 881.813 378.908 882.156 378.909C882.498 378.909 882.837 378.976 883.154 379.107C883.47 379.238 883.758 379.43 884 379.672C884.242 379.914 884.434 380.202 884.565 380.518C884.696 380.835 884.764 381.174 884.764 381.517V384.125C884.764 384.467 884.697 384.807 884.566 385.123C884.435 385.44 884.243 385.728 884 385.97C883.758 386.212 883.471 386.404 883.154 386.535C882.837 386.666 882.498 386.734 882.156 386.734Z" fill="#F1F1F1"/>
<path d="M887.372 459.765H835.206C833.765 459.765 832.598 458.599 832.598 457.157C832.598 455.715 833.765 454.549 835.206 454.549H887.372C888.813 454.549 889.98 455.715 889.98 457.157C889.98 458.599 888.813 459.765 887.372 459.765Z" fill="#F1F1F1"/>
<path d="M882.156 462.374C881.813 462.374 881.474 462.307 881.157 462.176C880.84 462.045 880.553 461.852 880.31 461.61C880.068 461.368 879.876 461.08 879.745 460.764C879.614 460.447 879.547 460.108 879.547 459.765V457.157C879.547 456.814 879.614 456.475 879.745 456.158C879.876 455.842 880.068 455.554 880.311 455.312C880.553 455.07 880.841 454.878 881.157 454.747C881.474 454.616 881.813 454.549 882.156 454.549C882.498 454.549 882.837 454.616 883.154 454.747C883.47 454.878 883.758 455.07 884 455.312C884.242 455.555 884.434 455.842 884.565 456.159C884.696 456.475 884.764 456.814 884.764 457.157V459.765C884.764 460.108 884.697 460.447 884.566 460.763C884.435 461.08 884.243 461.368 884 461.61C883.758 461.852 883.471 462.044 883.154 462.175C882.837 462.306 882.498 462.374 882.156 462.374ZM871.722 462.374C871.379 462.374 871.04 462.306 870.724 462.175C870.407 462.044 870.119 461.852 869.877 461.61C869.635 461.368 869.443 461.08 869.312 460.763C869.181 460.447 869.114 460.108 869.114 459.765V457.157C869.114 456.814 869.181 456.475 869.312 456.159C869.443 455.842 869.635 455.555 869.877 455.312C870.12 455.07 870.407 454.878 870.724 454.747C871.04 454.616 871.379 454.549 871.722 454.549C872.065 454.549 872.404 454.616 872.72 454.747C873.037 454.878 873.325 455.07 873.567 455.312C873.809 455.554 874.001 455.842 874.132 456.158C874.264 456.475 874.331 456.814 874.331 457.157V459.765C874.331 460.108 874.264 460.447 874.133 460.764C874.002 461.08 873.809 461.368 873.567 461.61C873.325 461.852 873.037 462.045 872.721 462.176C872.404 462.307 872.065 462.374 871.722 462.374ZM861.288 462.374C860.946 462.374 860.607 462.306 860.29 462.175C859.973 462.044 859.686 461.852 859.444 461.61C859.201 461.368 859.009 461.08 858.878 460.763C858.747 460.447 858.68 460.108 858.68 459.765V457.157C858.68 455.715 859.847 454.549 861.288 454.549C862.73 454.549 863.897 455.715 863.897 457.157V459.765C863.897 460.108 863.83 460.447 863.699 460.763C863.568 461.08 863.376 461.368 863.133 461.61C862.891 461.852 862.604 462.044 862.287 462.175C861.97 462.307 861.631 462.374 861.288 462.374ZM850.855 462.374C850.513 462.374 850.174 462.306 849.857 462.175C849.541 462.044 849.253 461.852 849.011 461.61C848.768 461.368 848.576 461.08 848.445 460.763C848.314 460.447 848.247 460.108 848.247 459.765V457.157C848.247 455.715 849.414 454.549 850.855 454.549C852.297 454.549 853.464 455.715 853.464 457.157V459.765C853.464 460.108 853.397 460.447 853.266 460.763C853.135 461.08 852.942 461.368 852.7 461.61C852.458 461.852 852.17 462.044 851.854 462.175C851.537 462.306 851.198 462.374 850.855 462.374ZM840.423 462.374C840.08 462.374 839.741 462.306 839.424 462.175C839.108 462.044 838.82 461.852 838.578 461.61C838.336 461.368 838.143 461.08 838.012 460.763C837.881 460.447 837.814 460.108 837.814 459.765V457.157C837.814 455.715 838.981 454.549 840.423 454.549C841.864 454.549 843.031 455.715 843.031 457.157V459.765C843.031 460.108 842.964 460.447 842.833 460.763C842.702 461.08 842.51 461.368 842.267 461.61C842.025 461.852 841.738 462.044 841.421 462.175C841.104 462.306 840.765 462.374 840.423 462.374Z" fill="#F1F1F1"/>
<path d="M736.092 386.734H683.926C683.583 386.734 683.244 386.667 682.927 386.536C682.611 386.405 682.323 386.212 682.081 385.97C681.839 385.728 681.647 385.44 681.516 385.124C681.385 384.807 681.317 384.468 681.318 384.125C681.318 383.783 681.385 383.443 681.516 383.127C681.647 382.81 681.839 382.523 682.081 382.281C682.323 382.038 682.611 381.846 682.928 381.715C683.244 381.584 683.583 381.517 683.926 381.517H736.092C736.434 381.517 736.774 381.584 737.09 381.715C737.407 381.846 737.694 382.038 737.936 382.281C738.179 382.523 738.371 382.81 738.502 383.127C738.633 383.443 738.7 383.783 738.7 384.125C738.7 384.468 738.633 384.807 738.502 385.124C738.371 385.44 738.179 385.728 737.937 385.97C737.694 386.212 737.407 386.405 737.09 386.536C736.774 386.667 736.434 386.734 736.092 386.734Z" fill="#F1F1F1"/>
<path d="M689.143 386.734C688.8 386.734 688.461 386.666 688.144 386.535C687.828 386.404 687.54 386.212 687.298 385.97C687.055 385.728 686.863 385.44 686.732 385.123C686.601 384.807 686.534 384.467 686.534 384.125V381.517C686.534 380.075 687.701 378.909 689.143 378.909C690.584 378.909 691.751 380.075 691.751 381.517V384.125C691.751 384.467 691.684 384.807 691.553 385.123C691.422 385.44 691.23 385.728 690.987 385.97C690.745 386.212 690.458 386.404 690.141 386.535C689.825 386.666 689.485 386.734 689.143 386.734ZM699.576 386.734C699.233 386.734 698.894 386.666 698.577 386.535C698.261 386.404 697.973 386.212 697.731 385.97C697.489 385.728 697.296 385.44 697.166 385.123C697.035 384.807 696.967 384.467 696.968 384.125V381.517C696.968 380.075 698.134 378.909 699.576 378.909C701.017 378.909 702.184 380.075 702.184 381.517V384.125C702.184 384.467 702.117 384.807 701.986 385.123C701.855 385.44 701.663 385.728 701.42 385.97C701.178 386.212 700.891 386.404 700.574 386.535C700.257 386.666 699.918 386.734 699.576 386.734ZM710.009 386.734C709.667 386.734 709.327 386.666 709.011 386.535C708.694 386.404 708.407 386.212 708.164 385.97C707.922 385.728 707.73 385.44 707.599 385.123C707.468 384.807 707.401 384.467 707.401 384.125V381.517C707.401 380.075 708.567 378.909 710.009 378.909C711.451 378.909 712.617 380.075 712.617 381.517V384.125C712.617 384.467 712.55 384.807 712.419 385.123C712.288 385.44 712.096 385.728 711.854 385.97C711.612 386.212 711.324 386.404 711.008 386.535C710.691 386.666 710.352 386.734 710.009 386.734ZM720.442 386.734C720.1 386.734 719.76 386.666 719.444 386.535C719.127 386.404 718.84 386.212 718.597 385.97C718.355 385.728 718.163 385.44 718.032 385.123C717.901 384.807 717.834 384.467 717.834 384.125V381.517C717.834 380.075 719 378.909 720.442 378.909C721.884 378.909 723.051 380.075 723.051 381.517V384.125C723.051 384.467 722.984 384.807 722.853 385.123C722.722 385.44 722.529 385.728 722.287 385.97C722.045 386.212 721.757 386.404 721.441 386.535C721.124 386.666 720.785 386.734 720.442 386.734ZM730.875 386.734C730.532 386.734 730.193 386.666 729.877 386.535C729.56 386.404 729.272 386.212 729.03 385.97C728.788 385.728 728.596 385.44 728.465 385.123C728.334 384.807 728.267 384.467 728.267 384.125V381.517C728.267 380.075 729.433 378.909 730.875 378.909C732.317 378.909 733.484 380.075 733.484 381.517V384.125C733.484 384.467 733.417 384.807 733.286 385.123C733.154 385.44 732.962 385.728 732.72 385.97C732.478 386.212 732.19 386.404 731.874 386.535C731.557 386.666 731.218 386.734 730.875 386.734Z" fill="#F1F1F1"/>
<path d="M736.092 459.765H683.926C682.484 459.765 681.318 458.599 681.318 457.157C681.318 455.715 682.484 454.549 683.926 454.549H736.092C737.533 454.549 738.7 455.715 738.7 457.157C738.7 458.599 737.533 459.765 736.092 459.765Z" fill="#F1F1F1"/>
<path d="M730.875 462.374C730.532 462.374 730.193 462.306 729.877 462.175C729.56 462.044 729.272 461.852 729.03 461.61C728.788 461.368 728.596 461.08 728.465 460.763C728.334 460.447 728.267 460.108 728.267 459.765V457.157C728.267 455.715 729.433 454.549 730.875 454.549C732.317 454.549 733.484 455.715 733.484 457.157V459.765C733.484 460.108 733.417 460.447 733.286 460.763C733.154 461.08 732.962 461.368 732.72 461.61C732.478 461.852 732.19 462.044 731.874 462.175C731.557 462.307 731.218 462.374 730.875 462.374ZM720.442 462.374C720.1 462.374 719.76 462.306 719.444 462.175C719.127 462.044 718.84 461.852 718.597 461.61C718.355 461.368 718.163 461.08 718.032 460.763C717.901 460.447 717.834 460.108 717.834 459.765V457.157C717.834 455.715 719 454.549 720.442 454.549C721.884 454.549 723.051 455.715 723.051 457.157V459.765C723.051 460.108 722.984 460.447 722.853 460.763C722.722 461.08 722.529 461.368 722.287 461.61C722.045 461.852 721.757 462.044 721.441 462.175C721.124 462.307 720.785 462.374 720.442 462.374ZM710.009 462.374C709.667 462.374 709.327 462.306 709.011 462.175C708.694 462.044 708.407 461.852 708.164 461.61C707.922 461.368 707.73 461.08 707.599 460.763C707.468 460.447 707.401 460.108 707.401 459.765V457.157C707.401 455.715 708.567 454.549 710.009 454.549C711.451 454.549 712.617 455.715 712.617 457.157V459.765C712.617 460.108 712.55 460.447 712.419 460.763C712.288 461.08 712.096 461.368 711.854 461.61C711.612 461.852 711.324 462.044 711.008 462.175C710.691 462.306 710.352 462.374 710.009 462.374ZM699.576 462.374C699.233 462.374 698.894 462.306 698.577 462.175C698.261 462.044 697.973 461.852 697.731 461.61C697.489 461.368 697.296 461.08 697.166 460.763C697.035 460.447 696.967 460.108 696.968 459.765V457.157C696.968 455.715 698.134 454.549 699.576 454.549C701.017 454.549 702.184 455.715 702.184 457.157V459.765C702.184 460.108 702.117 460.447 701.986 460.763C701.855 461.08 701.663 461.368 701.42 461.61C701.178 461.852 700.891 462.044 700.574 462.175C700.257 462.306 699.918 462.374 699.576 462.374ZM689.143 462.374C688.8 462.374 688.461 462.307 688.144 462.175C687.828 462.044 687.54 461.852 687.298 461.61C687.055 461.368 686.863 461.08 686.732 460.763C686.601 460.447 686.534 460.108 686.534 459.765V457.157C686.534 455.715 687.701 454.549 689.143 454.549C690.584 454.549 691.751 455.715 691.751 457.157V459.765C691.751 460.108 691.684 460.447 691.553 460.763C691.422 461.08 691.23 461.368 690.987 461.61C690.745 461.852 690.458 462.044 690.141 462.175C689.825 462.306 689.485 462.374 689.143 462.374Z" fill="#F1F1F1"/>
<path d="M785.648 365.867C785.306 365.867 784.967 365.8 784.65 365.669C784.333 365.538 784.046 365.346 783.804 365.103C783.561 364.861 783.369 364.574 783.238 364.257C783.107 363.94 783.04 363.601 783.04 363.259V337.179C783.04 335.737 784.207 334.57 785.648 334.57C787.09 334.57 788.257 335.737 788.257 337.179V363.259C788.257 363.601 788.19 363.94 788.059 364.257C787.928 364.574 787.736 364.861 787.493 365.103C787.251 365.346 786.963 365.538 786.647 365.669C786.33 365.8 785.991 365.867 785.648 365.867Z" fill="#F1F1F1"/>
<path d="M798.689 352.826H772.607C772.265 352.826 771.926 352.758 771.609 352.628C771.292 352.497 771.005 352.304 770.763 352.062C770.52 351.82 770.328 351.532 770.197 351.216C770.066 350.899 769.999 350.56 769.999 350.217C769.999 349.875 770.067 349.536 770.198 349.22C770.329 348.903 770.521 348.616 770.763 348.374C771.005 348.132 771.293 347.94 771.609 347.809C771.926 347.678 772.265 347.611 772.607 347.611H798.689C799.381 347.611 800.044 347.886 800.533 348.375C801.022 348.864 801.296 349.527 801.296 350.218C801.296 350.91 801.022 351.573 800.533 352.062C800.044 352.551 799.381 352.826 798.689 352.826Z" fill="#F1F1F1"/>
<path d="M720.442 256.322H657.843C656.402 256.322 655.234 255.155 655.234 253.713C655.234 252.272 656.402 251.104 657.843 251.104H720.441C721.883 251.104 723.05 252.272 723.05 253.713C723.05 255.155 721.884 256.322 720.442 256.322Z" fill="#F1F1F1"/>
<path d="M704.792 266.755H694.359C694.017 266.755 693.678 266.687 693.361 266.556C693.044 266.425 692.757 266.233 692.514 265.991C692.272 265.749 692.08 265.461 691.949 265.144C691.818 264.828 691.751 264.488 691.751 264.146C691.751 263.803 691.818 263.464 691.949 263.147C692.08 262.831 692.272 262.543 692.514 262.301C692.757 262.059 693.044 261.866 693.361 261.735C693.678 261.604 694.017 261.537 694.359 261.537H704.792C705.135 261.537 705.474 261.604 705.791 261.735C706.107 261.866 706.395 262.059 706.637 262.301C706.88 262.543 707.072 262.831 707.203 263.147C707.334 263.464 707.401 263.803 707.401 264.146C707.401 264.488 707.334 264.828 707.203 265.144C707.072 265.461 706.88 265.749 706.637 265.991C706.395 266.233 706.107 266.425 705.791 266.556C705.474 266.687 705.135 266.755 704.792 266.755Z" fill="#F1F1F1"/>
<path d="M704.792 245.889H610.895C610.552 245.889 610.213 245.821 609.896 245.69C609.58 245.559 609.292 245.367 609.05 245.125C608.807 244.883 608.615 244.595 608.484 244.278C608.353 243.962 608.286 243.623 608.286 243.28C608.286 242.937 608.353 242.598 608.484 242.282C608.615 241.965 608.807 241.677 609.05 241.435C609.292 241.193 609.58 241.001 609.896 240.87C610.213 240.739 610.552 240.672 610.895 240.672H704.792C705.135 240.672 705.474 240.739 705.791 240.87C706.107 241.001 706.395 241.193 706.637 241.435C706.88 241.677 707.072 241.965 707.203 242.282C707.334 242.598 707.401 242.937 707.401 243.28C707.401 243.623 707.334 243.962 707.203 244.278C707.072 244.595 706.88 244.883 706.637 245.125C706.395 245.367 706.107 245.559 705.791 245.69C705.474 245.821 705.135 245.889 704.792 245.889Z" fill="#F1F1F1"/>
<g clip-path="url(#clip1_276_634)">
<path d="M164.108 435.82L143.261 379.454C142.938 378.58 142.105 378 141.173 378H90.8267C89.8952 378 89.0622 378.58 88.7393 379.454L67.8924 435.82C67.6395 436.503 67.7372 437.267 68.1532 437.864C68.5693 438.462 69.2515 438.818 69.9798 438.818H105.942L108.95 491.079H97.8564C96.6272 491.079 95.6307 492.076 95.6307 493.305V499.314H92.5479C91.3187 499.314 90.3222 500.311 90.3222 501.54V509.775C90.3222 511.004 91.3187 512 92.5479 512H139.452C140.681 512 141.678 511.004 141.678 509.775V501.54C141.678 500.311 140.681 499.314 139.452 499.314H136.369V493.305C136.369 492.076 135.373 491.079 134.144 491.079H123.051L126.059 438.818H129.354V462.86C129.354 464.089 130.35 465.086 131.579 465.086C132.809 465.086 133.805 464.089 133.805 462.86V438.818H162.02C162.749 438.818 163.431 438.462 163.847 437.864C164.263 437.266 164.36 436.503 164.108 435.82ZM156.262 427.439H75.7382L89.9602 388.985H142.04L156.262 427.439ZM139.623 382.451L140.394 384.534H91.6063L92.3764 382.451H139.623ZM137.227 507.549H94.7733V503.765H137.226V507.549H137.227ZM131.918 499.314H100.082V495.53H131.918V499.314ZM118.592 491.079H113.409L110.401 438.818H121.6L118.592 491.079ZM73.1765 434.366L74.0923 431.89H157.908L158.824 434.366H73.1765Z" fill="#F1F1F1"/>
<path d="M146.98 421.59L148.063 424.52C148.395 425.418 149.246 425.974 150.151 425.974C150.407 425.974 150.668 425.93 150.923 425.835C152.076 425.409 152.665 424.129 152.238 422.976L151.155 420.046C150.729 418.893 149.449 418.304 148.295 418.731C147.142 419.157 146.553 420.437 146.98 421.59Z" fill="#F1F1F1"/>
<path d="M137.075 394.809L144.776 415.632C145.108 416.53 145.959 417.086 146.864 417.086C147.12 417.086 147.381 417.042 147.635 416.947C148.788 416.521 149.377 415.241 148.951 414.088L141.25 393.265C140.824 392.112 139.543 391.523 138.39 391.949C137.237 392.376 136.648 393.656 137.075 394.809Z" fill="#F1F1F1"/>
</g>
<g clip-path="url(#clip2_276_634)">
<path d="M1196.31 448.486L1211.05 427.385L1193.11 410.655L1168.05 419.665L1168.89 443.279L1196.31 448.486Z" fill="#F1F1F1"/>
<path d="M1186.76 491.241L1200.25 505.295L1223.82 495.233L1227.67 474.41L1204.27 471.529L1186.76 491.241Z" fill="#F1F1F1"/>
<path d="M1139.49 476.691L1139.79 477.056C1147.8 497.509 1167.7 512 1191 512C1221.38 512 1246 487.377 1246 457C1246 426.624 1221.38 402 1191 402C1160.62 402 1136 426.626 1136 457C1136 463.801 1137.24 470.312 1139.5 476.326L1139.49 476.691ZM1138.87 457C1138.87 450.054 1140.24 443.427 1142.72 437.359L1155.73 421.217L1159.1 415.81C1167.93 408.961 1178.99 404.868 1191 404.868C1191.29 404.868 1191.57 404.885 1191.87 404.889L1197.68 407.032L1210.51 408.668C1218.72 411.995 1225.9 417.35 1231.42 424.119L1229.29 433.418L1237.71 457.18L1243.1 458.544C1242.27 486.579 1219.23 509.13 1191 509.13C1176.95 509.13 1164.18 503.531 1154.8 494.458L1164.92 485.767L1155.26 460.876L1140.15 455.672L1139.8 466.771C1139.2 463.607 1138.87 460.342 1138.87 457Z" fill="#F1F1F1"/>
</g>
<g clip-path="url(#clip3_276_634)">
<path d="M1597.06 397.937C1582.74 383.61 1559.75 376.036 1530.61 376.036C1509.61 376.036 1492.84 379.885 1492.14 380.048L1488.01 381.01L1487.05 385.131C1486.38 388.012 1471 456.117 1504.94 490.058C1519.26 504.389 1542.25 511.964 1571.39 511.964C1592.4 511.964 1609.16 508.111 1609.87 507.952L1613.99 506.985L1614.96 502.865C1615.62 499.974 1630.99 431.878 1597.06 397.937ZM1602.52 495.531C1596.53 496.611 1584.8 498.349 1571.39 498.349C1553.64 498.349 1529.38 495.24 1514.57 480.432C1490.32 456.176 1496.85 407.145 1499.48 392.46C1505.46 391.38 1517.16 389.646 1530.61 389.646C1548.36 389.646 1572.62 392.755 1587.43 407.558C1611.68 431.815 1605.15 480.841 1602.52 495.531Z" fill="#F1F1F1"/>
<path d="M1567.7 472.881C1564.96 472.331 1562.2 471.596 1559.45 470.684L1561.5 466.863C1562.69 464.657 1561.86 461.898 1559.66 460.718C1557.44 459.525 1554.69 460.36 1553.51 462.57L1550.99 467.271C1546.98 465.347 1543.13 463.015 1539.55 460.305L1542.34 457.523C1544.11 455.749 1544.11 452.881 1542.34 451.106C1540.56 449.332 1537.69 449.332 1535.92 451.106L1532.76 454.27C1529.66 451.047 1526.99 447.444 1524.87 443.491L1531.09 440.147C1533.3 438.958 1534.13 436.208 1532.94 434.002C1531.75 431.796 1528.99 430.966 1526.79 432.155L1521.41 435.041C1520.39 431.579 1519.75 427.935 1519.63 424.059C1519.55 421.599 1517.54 419.652 1515.1 419.652C1515.05 419.652 1515 419.652 1514.96 419.652C1512.46 419.725 1510.49 421.817 1510.56 424.322C1510.71 429.704 1511.7 434.719 1513.27 439.416L1508.79 441.821C1506.58 443.006 1505.75 445.756 1506.94 447.966C1507.76 449.482 1509.32 450.349 1510.94 450.349C1511.67 450.349 1512.4 450.181 1513.09 449.809L1516.88 447.771C1519.43 452.522 1522.65 456.82 1526.36 460.65L1521.38 465.638C1519.61 467.417 1519.61 470.285 1521.38 472.055C1522.27 472.935 1523.43 473.384 1524.59 473.384C1525.75 473.384 1526.92 472.935 1527.8 472.055L1533.09 466.763C1537.31 470.081 1541.91 472.917 1546.69 475.25L1543.83 480.568C1542.65 482.774 1543.48 485.528 1545.68 486.713C1546.37 487.085 1547.1 487.253 1547.83 487.253C1549.44 487.253 1551.01 486.386 1551.83 484.861L1555.11 478.771C1558.71 480.042 1562.35 481.077 1565.94 481.784C1566.23 481.848 1566.53 481.875 1566.82 481.875C1568.95 481.875 1570.85 480.382 1571.27 478.222C1571.77 475.749 1570.16 473.366 1567.7 472.881Z" fill="#F1F1F1"/>
</g>
<path d="M437.12 441.921V412.334C437.12 402.224 428.896 394 418.786 394H287.213C277.104 394 268.879 402.224 268.879 412.334V441.921C262.279 442.217 257 447.677 257 454.35V512.12H280.759H292.166H413.834H425.241H449V454.35C449 447.677 443.721 442.217 437.12 441.921ZM280.76 465.48V470.965V482.371V500.713H268.406V454.35C268.406 453.778 268.871 453.313 269.443 453.313H279.723C280.294 453.313 280.76 453.778 280.76 454.35V465.48ZM292.163 454.074C292.161 454.009 292.156 453.945 292.154 453.88C292.15 453.784 292.146 453.688 292.14 453.593C292.134 453.48 292.124 453.368 292.115 453.256C292.107 453.163 292.098 453.069 292.088 452.977C292.076 452.864 292.061 452.752 292.045 452.641C292.033 452.55 292.021 452.458 292.006 452.368C291.988 452.256 291.967 452.145 291.946 452.034C291.929 451.946 291.914 451.858 291.895 451.77C291.871 451.658 291.844 451.546 291.818 451.435C291.797 451.35 291.778 451.266 291.756 451.182C291.726 451.069 291.693 450.957 291.66 450.845C291.636 450.765 291.614 450.685 291.589 450.606C291.553 450.49 291.512 450.377 291.473 450.263C291.447 450.188 291.422 450.114 291.395 450.04C291.351 449.921 291.303 449.804 291.255 449.687C291.228 449.621 291.203 449.553 291.175 449.488C291.121 449.36 291.062 449.234 291.003 449.108C290.978 449.055 290.956 449.001 290.93 448.948C290.852 448.786 290.769 448.626 290.684 448.468C290.676 448.453 290.669 448.438 290.66 448.422C290.565 448.247 290.466 448.074 290.362 447.904C290.357 447.895 290.351 447.886 290.345 447.877C290.248 447.718 290.148 447.562 290.045 447.409C290.014 447.363 289.98 447.319 289.949 447.274C289.869 447.159 289.788 447.043 289.705 446.93C289.664 446.875 289.621 446.822 289.579 446.768C289.501 446.667 289.424 446.566 289.343 446.468C289.295 446.41 289.245 446.354 289.198 446.297C289.119 446.206 289.042 446.113 288.961 446.024C288.908 445.965 288.852 445.908 288.799 445.85C288.719 445.766 288.64 445.681 288.558 445.599C288.501 445.541 288.441 445.485 288.383 445.427C288.301 445.348 288.22 445.27 288.137 445.193C288.075 445.136 288.011 445.081 287.948 445.025C287.865 444.951 287.781 444.878 287.697 444.807C287.631 444.752 287.564 444.698 287.497 444.645C287.411 444.576 287.326 444.508 287.238 444.441C287.169 444.389 287.099 444.337 287.028 444.286C286.94 444.222 286.853 444.159 286.763 444.097C286.69 444.047 286.616 443.998 286.542 443.95C286.453 443.891 286.362 443.833 286.271 443.776C286.195 443.729 286.119 443.683 286.042 443.638C285.95 443.583 285.857 443.53 285.764 443.477C285.685 443.433 285.606 443.39 285.526 443.348C285.432 443.298 285.337 443.249 285.242 443.202C285.161 443.161 285.079 443.122 284.996 443.083C284.9 443.038 284.803 442.994 284.705 442.951C284.621 442.914 284.537 442.877 284.452 442.843C284.354 442.802 284.255 442.763 284.155 442.725C284.069 442.692 283.983 442.66 283.896 442.628C283.795 442.592 283.694 442.558 283.591 442.525C283.504 442.496 283.416 442.467 283.328 442.44C283.224 442.409 283.12 442.38 283.016 442.351C282.926 442.327 282.837 442.302 282.747 442.279C282.641 442.253 282.535 442.229 282.428 442.205C282.338 442.185 282.247 442.164 282.155 442.146C282.047 442.124 281.938 442.106 281.829 442.088C281.738 442.072 281.646 442.055 281.554 442.042C281.442 442.025 281.33 442.012 281.218 441.999C281.126 441.988 281.036 441.975 280.944 441.966C280.827 441.955 280.71 441.947 280.593 441.94C280.504 441.934 280.415 441.925 280.325 441.921C280.312 441.92 280.299 441.919 280.286 441.918V412.333C280.286 408.513 283.394 405.406 287.213 405.406H347.297V454.074H292.163ZM413.835 500.713H292.166V482.371H413.834V500.713H413.835ZM413.835 470.965H292.166V465.48H413.834V470.965H413.835ZM425.057 441.967C424.965 441.976 424.873 441.988 424.782 441.999C424.67 442.012 424.558 442.026 424.447 442.042C424.354 442.056 424.262 442.073 424.17 442.088C424.061 442.107 423.953 442.125 423.845 442.147C423.753 442.165 423.662 442.186 423.57 442.206C423.465 442.23 423.359 442.253 423.254 442.279C423.163 442.302 423.073 442.327 422.983 442.353C422.879 442.381 422.776 442.41 422.674 442.44C422.584 442.467 422.495 442.496 422.407 442.526C422.306 442.559 422.206 442.592 422.106 442.628C422.018 442.66 421.93 442.693 421.842 442.726C421.744 442.764 421.646 442.803 421.549 442.842C421.463 442.878 421.378 442.915 421.292 442.952C421.196 442.994 421.1 443.038 421.005 443.082C420.921 443.121 420.838 443.162 420.755 443.203C420.661 443.25 420.568 443.298 420.475 443.347C420.394 443.39 420.313 443.433 420.233 443.478C420.141 443.529 420.05 443.582 419.959 443.636C419.881 443.682 419.803 443.729 419.726 443.777C419.636 443.833 419.547 443.89 419.459 443.948C419.384 443.998 419.308 444.047 419.234 444.098C419.147 444.159 419.06 444.221 418.975 444.284C418.902 444.336 418.831 444.389 418.76 444.442C418.674 444.507 418.59 444.574 418.506 444.642C418.438 444.697 418.369 444.751 418.302 444.808C418.218 444.878 418.137 444.95 418.055 445.022C417.991 445.079 417.925 445.135 417.862 445.194C417.78 445.269 417.7 445.346 417.621 445.424C417.56 445.482 417.5 445.54 417.44 445.6C417.361 445.68 417.283 445.764 417.205 445.846C417.149 445.906 417.093 445.964 417.038 446.025C416.959 446.113 416.882 446.203 416.806 446.293C416.756 446.351 416.705 446.409 416.657 446.468C416.577 446.566 416.501 446.665 416.424 446.764C416.381 446.82 416.337 446.874 416.295 446.93C416.212 447.042 416.131 447.157 416.052 447.272C416.02 447.318 415.986 447.362 415.955 447.409C415.853 447.559 415.755 447.713 415.66 447.868C415.653 447.88 415.645 447.892 415.637 447.903C415.534 448.073 415.435 448.246 415.339 448.421C415.331 448.436 415.324 448.45 415.317 448.465C415.231 448.624 415.148 448.785 415.069 448.947C415.045 448.997 415.023 449.048 415 449.098C414.94 449.227 414.88 449.356 414.824 449.487C414.797 449.551 414.772 449.617 414.746 449.682C414.697 449.8 414.649 449.919 414.605 450.04C414.578 450.112 414.554 450.186 414.528 450.259C414.488 450.374 414.447 450.488 414.411 450.605C414.386 450.683 414.364 450.763 414.341 450.841C414.308 450.955 414.274 451.068 414.243 451.183C414.222 451.265 414.203 451.348 414.183 451.431C414.156 451.544 414.128 451.657 414.104 451.771C414.086 451.857 414.071 451.944 414.054 452.03C414.033 452.142 414.012 452.255 413.993 452.368C413.979 452.458 413.967 452.548 413.954 452.639C413.939 452.751 413.924 452.863 413.911 452.976C413.901 453.069 413.893 453.161 413.885 453.255C413.875 453.367 413.866 453.48 413.859 453.592C413.853 453.687 413.849 453.783 413.846 453.878C413.843 453.943 413.838 454.007 413.837 454.072H358.703V405.405H418.787C422.607 405.405 425.714 408.513 425.714 412.333V441.919C425.701 441.919 425.689 441.92 425.676 441.921C425.586 441.925 425.496 441.933 425.407 441.94C425.29 441.949 425.173 441.956 425.057 441.967ZM437.594 500.713H425.241V482.371V470.965V465.48V454.35C425.241 453.778 425.706 453.313 426.278 453.313H436.557C437.129 453.313 437.594 453.778 437.594 454.35V500.713Z" fill="#F1F1F1"/>
</g>
<defs>
<clipPath id="clip0_276_634">
<rect width="1619" height="512" fill="white"/>
</clipPath>
<clipPath id="clip1_276_634">
<rect width="134" height="134" fill="white" transform="translate(49 378)"/>
</clipPath>
<clipPath id="clip2_276_634">
<rect width="110" height="110" fill="white" transform="translate(1136 402)"/>
</clipPath>
<clipPath id="clip3_276_634">
<rect width="136" height="136" fill="white" transform="translate(1483 376)"/>
</clipPath>
</defs>
</svg>
